<?xml version="1.0" encoding="UTF-8" standalone="no"?>
<svg xmlns:xlink="http://www.w3.org/1999/xlink" height="275px" width="305px" xmlns="http://www.w3.org/2000/svg">
    <g transform="matrix(1.0, 0.0, 0.0, 1.0, 102.1, 67.2)">
        <path d="M-69.95 51.35 L-71.9 47.6 Q-82.8 16.25 -56.0 19.65 -46.25 3.4 -22.0 9.45 L-21.65 9.35 Q-23.1 5.25 -21.1 1.4 -19.15 -2.25 -14.4 -4.5 -9.7 -6.8 -3.65 -6.8 2.85 -6.85 9.25 -4.25 L9.35 -4.5 Q18.9 -23.05 31.15 -21.4 67.55 -33.6 85.85 -15.4 L93.4 -15.65 Q97.45 -14.75 100.8 -12.2 104.3 -9.6 105.65 -6.15 107.1 -2.4 105.55 1.4 107.15 4.6 105.8 7.7 104.5 10.85 100.75 12.8 L98.9 13.55 Q98.9 5.9 94.3 -0.4 90.05 -6.1 82.9 -9.55 76.0 -12.8 68.5 -12.9 60.7 -12.95 54.75 -9.45 64.05 -8.8 62.45 4.35 48.85 -12.05 30.05 -1.95 27.75 -5.3 32.4 -12.1 18.2 -11.15 13.25 -2.35 L13.2 -2.25 Q10.95 1.65 10.65 7.2 2.9 2.35 -7.1 17.45 -10.5 14.75 -15.55 14.35 -20.4 13.95 -25.05 15.85 -29.95 17.8 -32.95 21.6 -36.25 25.7 -35.9 31.55 -30.4 30.05 -28.9 39.5 -40.05 30.4 -57.05 43.95 -59.4 37.65 -52.25 31.15 -68.3 34.4 -69.85 47.85 L-69.95 51.35 M-56.2 137.55 L-59.1 139.5 Q-64.3 143.15 -74.85 134.15 -90.6 133.85 -93.8 118.15 -98.9 111.95 -100.95 105.3 -102.75 99.15 -101.7 93.7 -100.65 88.45 -97.25 85.05 -93.75 81.55 -88.7 80.95 -91.95 65.25 -82.4 58.8 L-82.3 58.7 Q-71.55 58.3 -70.1 66.05 -69.7 73.45 -76.6 78.5 -87.75 86.7 -84.55 93.15 -82.85 96.75 -81.15 97.15 -83.35 104.3 -75.9 108.7 -76.95 120.5 -63.45 127.15 -63.0 134.6 -56.2 137.55 M145.55 -51.65 Q149.4 -52.35 151.4 -47.85 153.55 -47.0 153.8 -44.8 153.95 -42.75 152.25 -41.85 L147.7 -41.55 Q144.6 -42.1 141.2 -44.15 141.5 -48.75 142.8 -50.0 143.9 -51.4 145.55 -51.65 M111.55 14.8 L111.6 14.6 Q112.8 10.85 116.55 9.85 120.2 8.9 124.65 11.15 128.0 3.9 134.7 1.85 140.55 0.15 146.5 2.9 152.45 5.75 154.2 10.8 156.15 16.5 151.6 21.9 160.1 23.1 159.9 29.0 L159.9 29.45 160.1 29.05 160.2 28.95 Q162.05 25.4 163.6 29.0 183.85 28.85 189.9 44.8 210.1 56.45 196.8 80.6 198.65 82.1 199.25 84.35 200.1 87.55 198.15 91.7 196.3 95.8 192.3 99.75 188.1 103.75 182.75 106.55 177.5 110.35 175.45 114.25 171.95 113.25 167.95 110.6 161.65 112.45 154.8 110.05 152.75 109.3 150.65 108.15 151.25 111.3 148.2 114.4 145.3 117.35 140.9 118.85 136.2 120.35 132.7 119.35 128.75 118.15 127.3 113.9 141.35 115.55 149.8 107.45 L151.55 105.55 155.45 108.35 155.6 105.9 155.55 105.85 Q170.25 109.3 172.0 101.1 181.45 91.1 171.7 85.05 179.65 87.85 181.3 83.4 182.9 78.95 182.15 74.85 181.35 70.65 179.05 67.05 176.55 63.1 173.0 61.15 185.15 59.45 188.25 72.4 190.35 66.4 188.3 60.25 186.5 54.7 182.0 50.55 177.65 46.65 172.95 45.75 167.85 44.85 164.75 47.95 160.65 31.2 146.05 38.6 149.45 35.1 148.25 27.8 147.35 21.9 144.75 18.35 141.4 13.8 136.75 13.15 132.4 12.55 129.35 15.65 126.15 19.05 126.5 24.8 124.25 13.6 111.55 14.8 M191.6 154.7 Q193.55 153.45 195.6 153.65 197.45 153.85 198.95 155.15 200.4 156.55 201.25 157.95 201.95 159.1 201.3 161.65 200.45 164.9 197.3 166.4 187.5 163.15 191.6 154.7 M-43.25 130.75 Q-37.95 140.6 -32.6 140.05 -29.95 139.8 -27.25 136.95 -23.85 146.1 -14.15 141.15 -13.15 146.4 -4.9 147.6 -4.25 159.95 10.7 166.95 3.3 164.95 -5.85 159.2 -29.75 161.15 -32.4 141.3 -34.85 144.15 -38.35 141.2 -43.35 140.3 -44.6 137.3 -45.75 134.55 -43.85 131.05 L-43.25 130.75 M93.8 162.6 Q99.2 161.75 98.2 156.7 106.95 156.25 110.5 150.75 116.55 152.2 121.25 151.5 L123.1 151.1 Q127.8 149.8 129.85 146.35 131.8 142.9 130.3 138.75 128.75 134.2 123.85 130.5 134.95 125.55 145.55 139.1 138.9 155.0 121.45 152.7 112.65 162.45 93.8 162.6 M-44.05 191.75 Q-41.0 194.8 -41.05 199.9 -39.25 199.15 -38.45 199.5 -37.55 199.95 -38.1 201.2 -39.65 204.35 -46.5 206.9 -50.2 208.4 -52.05 205.1 -52.5 201.25 -56.55 200.75 -58.1 195.4 -55.95 192.15 -54.7 190.2 -52.65 189.5 L-50.4 189.15 Q-46.75 188.95 -44.05 191.75 M-49.7 192.3 L-51.8 192.25 Q-54.3 193.2 -51.9 198.95 -49.25 199.25 -49.5 201.85 -46.85 203.6 -45.65 201.2 -43.9 194.5 -49.7 192.3"
              fill="#ffffff" fill-rule="evenodd" stroke="none"/>
        <path d="M98.9 13.55 Q95.55 14.75 91.15 14.65 84.85 14.5 77.7 11.5 48.3 31.7 30.6 15.25 17.65 23.4 1.3 20.15 -1.95 37.9 -19.2 38.4 -24.05 45.8 -33.4 47.2 -37.75 48.1 -40.75 52.55 -43.45 56.5 -49.05 56.05 L-50.1 55.9 -52.6 55.25 Q-56.6 56.7 -59.9 56.8 L-59.95 56.8 Q-41.05 68.9 -67.75 94.3 -62.25 100.1 -60.85 106.8 -43.95 107.3 -48.35 121.4 -39.9 128.15 -48.9 132.95 L-56.2 137.55 Q-63.0 134.6 -63.45 127.15 -76.95 120.5 -75.9 108.7 -83.35 104.3 -81.15 97.15 -82.85 96.75 -84.55 93.15 -87.75 86.7 -76.6 78.5 -69.7 73.45 -70.1 66.05 -71.55 58.3 -82.3 58.7 -76.75 55.05 -67.1 54.45 -68.7 53.2 -69.95 51.35 L-69.85 47.85 Q-68.3 34.4 -52.25 31.15 -59.4 37.65 -57.05 43.95 -40.05 30.4 -28.9 39.5 -30.4 30.05 -35.9 31.55 -36.25 25.7 -32.95 21.6 -29.95 17.8 -25.05 15.85 -20.4 13.95 -15.55 14.35 -10.5 14.75 -7.1 17.45 2.9 2.35 10.65 7.2 10.95 1.65 13.2 -2.25 L13.25 -2.35 Q18.2 -11.15 32.4 -12.1 27.75 -5.3 30.05 -1.95 48.85 -12.05 62.45 4.35 64.05 -8.8 54.75 -9.45 60.7 -12.95 68.5 -12.9 76.0 -12.8 82.9 -9.55 90.05 -6.1 94.3 -0.4 98.9 5.9 98.9 13.55 M111.55 14.8 Q124.25 13.6 126.5 24.8 126.15 19.05 129.35 15.65 132.4 12.55 136.75 13.15 141.4 13.8 144.75 18.35 147.35 21.9 148.25 27.8 149.45 35.1 146.05 38.6 160.65 31.2 164.75 47.95 167.85 44.85 172.95 45.75 177.65 46.65 182.0 50.55 186.5 54.7 188.3 60.25 190.35 66.4 188.25 72.4 185.15 59.45 173.0 61.15 176.55 63.1 179.05 67.05 181.35 70.65 182.15 74.85 182.9 78.95 181.3 83.4 179.65 87.85 171.7 85.05 181.45 91.1 172.0 101.1 170.25 109.3 155.55 105.85 156.6 97.15 165.9 95.1 148.05 66.9 158.4 64.85 146.45 56.0 151.35 48.65 144.7 45.15 142.8 39.65 141.8 36.65 142.2 33.15 128.95 48.45 117.75 33.9 114.4 29.1 112.7 24.8 110.3 18.8 111.5 14.8 L111.55 14.8 M151.55 105.55 L149.8 107.45 Q141.35 115.55 127.3 113.9 L127.2 113.6 Q138.25 97.45 151.55 105.55 M-43.5 130.35 Q-41.6 127.35 -38.25 125.2 -34.35 122.65 -30.35 122.45 -25.85 122.5 -24.7 125.85 -21.05 126.4 -16.85 128.35 -11.25 131.0 -7.0 135.15 -2.35 139.65 -0.75 144.6 8.45 133.3 20.1 141.5 34.9 130.95 41.25 143.35 58.6 130.0 62.8 134.7 79.4 117.25 99.65 133.05 111.0 117.05 121.35 131.85 122.6 131.05 123.85 130.5 128.75 134.2 130.3 138.75 131.8 142.9 129.85 146.35 127.8 149.8 123.1 151.1 L121.25 151.5 Q116.55 152.2 110.5 150.75 106.95 156.25 98.2 156.7 99.2 161.75 93.8 162.6 L91.4 162.55 Q54.4 186.05 27.7 165.9 20.8 169.8 10.7 166.95 -4.25 159.95 -4.9 147.6 -13.15 146.4 -14.15 141.15 -23.85 146.1 -27.25 136.95 -29.95 139.8 -32.6 140.05 -37.95 140.6 -43.25 130.75 L-43.5 130.35"
              fill="#cccccc" fill-rule="evenodd" stroke="none"/>
        <path d="M77.65 -66.9 Q79.45 -67.8 84.3 -66.2 L85.4 -65.7 Q86.65 -65.1 86.6 -64.3 86.55 -63.55 85.3 -63.3 L84.05 -63.2 Q77.1 -63.05 76.5 -64.35 75.9 -66.1 77.65 -66.9 M-43.5 130.35 L-43.25 130.75 -43.85 131.05 -43.5 130.35"
              fill="#feeb9e" fill-rule="evenodd" stroke="none"/>
    </g>
</svg>