<?xml version="1.0" encoding="UTF-8" standalone="no"?>
<svg xmlns:xlink="http://www.w3.org/1999/xlink" height="226.85px" width="333.4px" xmlns="http://www.w3.org/2000/svg">
    <g transform="matrix(1.0, 0.0, 0.0, 1.0, 121.5, 29.7)">
        <path d="M-65.25 28.05 L-64.85 28.25 -64.95 28.4 -65.25 28.05 M106.45 -15.35 L105.75 -14.45 106.0 -15.35 106.45 -15.35 M17.5 176.0 L17.45 175.6 17.6 175.6 17.75 176.0 17.5 176.0 M-110.55 80.8 L-110.6 81.05 -110.85 80.65 -110.55 80.8"
              fill="#feeb9e" fill-rule="evenodd" stroke="none"/>
        <path d="M-65.25 28.05 L-65.3 28.0 -67.9 25.75 -69.85 23.5 Q-70.55 22.4 -70.3 21.15 -70.05 18.55 -70.05 15.8 -70.15 13.45 -68.15 12.75 L-66.1 12.6 Q-64.55 13.15 -64.7 11.0 -64.8 10.0 -64.5 9.0 -64.0 7.25 -63.15 5.7 -61.3 2.15 -57.6 1.55 -54.85 1.1 -52.6 2.5 -50.85 3.5 -50.2 1.35 L-49.25 -1.35 Q-48.15 -4.6 -44.75 -5.4 -39.15 -6.6 -33.0 -6.35 L-30.9 -6.0 Q-29.05 -5.4 -27.85 -3.75 -27.05 -2.7 -26.6 -1.5 -26.15 -0.35 -26.05 0.95 -25.85 2.65 -27.25 3.65 L-27.4 3.75 Q-28.3 3.35 -29.5 4.2 L-29.0 4.35 Q-28.15 4.2 -27.4 3.75 -26.85 4.0 -26.35 4.8 L-24.35 7.8 -22.15 6.1 -19.9 5.6 Q-14.05 3.85 -9.65 8.55 L-7.0 11.45 Q-2.75 15.95 -5.4 21.4 L-5.75 21.55 Q-10.6 12.6 -15.3 11.45 L-19.85 10.75 -22.55 11.1 Q-23.75 11.55 -24.85 14.15 -30.2 11.85 -35.5 13.85 L-35.8 12.75 -36.6 10.05 Q-37.4 8.1 -39.55 8.4 -44.45 9.1 -45.05 13.9 -45.15 11.8 -45.7 10.45 -45.95 9.95 -46.8 9.75 -56.0 7.2 -61.25 15.2 -62.4 16.9 -62.9 18.9 -63.85 22.45 -64.95 25.85 L-64.0 26.2 -64.0 26.25 -64.85 28.25 -65.25 28.05 M5.0 -14.3 L7.1 -16.5 9.55 -17.85 Q17.6 -20.75 23.5 -14.7 L25.35 -12.35 Q27.45 -9.2 26.75 -6.1 L26.95 -5.9 Q28.35 -4.4 28.7 -2.3 29.4 1.4 25.55 2.9 23.35 3.8 21.05 3.95 19.1 4.1 17.6 2.95 16.3 2.05 15.85 0.35 15.4 -1.15 15.4 -2.75 11.8 0.55 7.05 0.95 4.3 1.2 3.25 -1.55 0.6 -8.5 5.0 -14.3 M85.9 -26.4 L85.85 -26.4 Q85.75 -28.45 89.2 -29.2 94.05 -30.2 98.8 -29.2 L101.55 -28.4 Q104.8 -27.35 106.7 -24.6 107.3 -23.75 107.4 -22.35 107.75 -19.5 107.25 -16.75 L106.9 -15.95 106.45 -15.35 106.0 -15.35 Q106.1 -16.35 105.45 -17.5 L105.05 -18.1 Q101.5 -22.85 95.6 -21.35 94.7 -21.2 93.85 -20.65 92.0 -24.6 87.6 -25.95 L85.9 -26.4 M62.6 -3.4 Q67.5 -3.1 69.6 1.0 70.25 2.4 71.2 6.6 73.95 7.65 72.4 10.3 69.7 14.7 65.2 12.6 L63.75 11.75 Q62.8 11.2 61.65 11.1 L57.25 10.65 54.3 10.05 Q49.4 8.5 50.35 3.2 51.5 -3.05 58.2 -3.45 L62.6 -3.4 M136.95 -1.55 Q140.45 -4.95 145.15 -5.25 148.45 -5.45 151.35 -3.85 155.45 -1.5 158.6 1.9 160.3 3.85 159.65 6.4 L157.65 12.45 Q156.9 11.4 155.8 11.3 156.3 7.85 153.25 5.4 151.05 3.6 148.7 5.6 147.6 5.1 147.55 2.95 147.55 1.65 146.5 0.75 144.4 -1.0 141.75 -1.35 L137.35 -1.1 136.95 -1.55 M177.1 46.35 Q182.35 44.95 182.7 39.95 182.85 35.55 180.0 31.95 178.5 30.3 176.35 29.45 L176.25 28.6 Q179.5 27.55 181.3 30.9 181.9 32.0 182.65 32.0 L186.1 31.4 190.55 31.05 Q192.25 31.15 193.6 32.35 195.15 33.7 195.65 35.75 196.35 38.2 196.3 40.8 196.35 43.65 194.55 44.9 L195.85 44.65 Q197.85 44.2 199.65 44.6 202.0 45.0 203.35 46.75 205.2 49.15 205.55 52.35 206.05 55.75 204.5 58.0 L209.85 65.2 Q210.75 66.25 211.2 67.6 213.6 74.7 207.95 79.55 L205.95 80.95 Q203.7 82.6 201.0 82.9 202.85 85.7 201.75 88.65 201.0 90.9 199.3 92.55 198.75 93.1 197.6 93.05 199.85 93.35 199.6 95.75 L198.75 99.7 Q198.0 102.1 196.65 104.15 195.05 106.6 192.75 106.45 191.9 106.3 191.05 105.8 191.35 109.0 188.35 109.8 L183.65 110.0 Q188.1 101.4 188.95 99.2 190.6 94.75 190.1 90.1 189.6 86.1 186.65 83.75 L186.25 83.55 186.75 82.1 Q187.9 78.75 185.9 75.8 188.35 77.55 191.6 76.6 194.05 76.0 195.65 74.05 197.05 72.5 198.1 70.45 198.9 68.7 196.15 68.3 195.85 67.55 196.65 65.4 197.5 63.25 197.5 60.8 197.55 57.3 194.25 56.95 L190.95 56.7 Q192.7 54.25 192.95 51.4 193.05 49.9 192.15 48.55 L191.65 48.0 192.5 47.15 192.0 46.2 Q190.75 44.25 187.95 44.05 186.0 43.9 184.5 44.9 182.95 46.05 182.3 48.0 L181.35 48.95 Q179.6 47.15 177.15 46.6 L177.1 46.35 M135.5 165.85 L136.2 166.7 Q139.2 172.45 134.0 177.15 130.25 180.65 125.75 178.25 123.65 177.1 122.45 179.1 L121.55 180.45 Q118.75 184.65 113.95 184.8 106.9 184.95 100.55 181.65 99.6 181.2 98.75 180.35 96.8 178.4 95.3 176.25 94.7 176.5 94.3 176.9 89.65 180.75 83.4 178.7 79.95 177.55 76.75 175.9 76.85 181.1 71.2 181.75 68.6 182.15 66.2 181.1 L65.0 180.3 Q65.95 182.15 64.85 183.9 63.5 186.35 61.3 188.4 L59.35 190.2 Q56.15 193.15 51.7 192.4 49.55 192.1 48.65 194.15 L47.65 195.65 Q46.0 197.1 43.85 197.15 L40.05 196.95 Q37.95 196.75 36.05 195.8 33.25 194.5 32.0 191.8 25.95 195.8 20.8 190.3 19.55 189.05 18.85 187.55 18.15 185.9 17.95 184.05 17.55 179.9 17.5 176.0 L17.75 176.0 Q18.3 178.0 19.35 179.85 20.95 182.7 24.05 183.25 L26.05 183.85 27.4 185.0 29.35 187.4 Q30.8 188.85 32.65 189.9 L32.8 190.0 Q36.85 192.1 39.2 188.55 L40.55 190.5 Q41.2 191.4 42.25 191.65 L44.9 191.45 Q49.95 189.65 52.35 184.8 52.65 184.15 53.05 184.25 55.35 184.8 57.85 183.2 60.55 181.35 61.35 178.15 61.6 177.15 61.9 177.0 L64.25 176.45 68.3 176.0 72.2 175.65 Q73.65 175.45 74.8 174.6 L75.45 174.1 75.55 174.05 76.9 173.25 Q79.35 172.05 82.3 171.5 83.45 171.3 84.45 171.5 88.8 172.3 92.4 169.9 94.05 168.85 95.2 167.35 96.0 166.2 96.25 165.1 L97.45 166.1 99.8 167.5 Q102.95 168.95 106.45 169.8 L109.8 170.4 Q114.55 170.85 118.8 169.05 121.45 168.0 121.0 165.35 121.85 166.1 122.8 166.65 L125.6 167.6 129.45 167.85 Q132.5 167.9 135.5 165.85 M-79.1 58.4 L-82.2 57.75 -84.2 56.8 Q-86.1 55.55 -88.4 55.65 -90.7 55.75 -92.9 56.5 -94.25 57.0 -95.35 57.8 -96.0 58.25 -96.3 58.95 L-96.4 59.55 Q-96.7 61.55 -98.45 63.15 -99.5 64.25 -99.85 65.5 -100.6 68.05 -97.75 68.85 L-97.75 69.45 Q-100.7 72.45 -99.3 75.8 L-100.55 76.2 -104.25 76.05 Q-108.35 77.15 -110.55 80.8 L-110.85 80.65 -111.75 78.65 Q-112.9 75.85 -114.9 73.25 -115.45 72.6 -115.4 71.8 L-115.5 69.7 Q-115.55 67.45 -114.5 65.55 -111.65 60.3 -106.4 57.35 -101.8 54.75 -97.9 58.35 -98.3 55.55 -96.5 53.45 L-94.85 51.75 -91.8 49.3 Q-87.05 46.05 -81.65 49.7 -76.85 53.1 -79.1 58.4 M-111.45 85.9 Q-110.95 87.05 -109.75 87.9 L-108.8 88.65 -109.4 89.6 -110.7 91.35 Q-114.85 96.95 -115.2 104.0 -115.35 108.7 -111.3 111.4 -110.1 112.1 -108.85 112.4 -105.45 113.4 -101.65 113.35 -103.05 114.35 -103.15 115.45 L-103.5 118.05 Q-104.05 121.85 -101.65 124.5 L-100.2 125.8 Q-98.85 126.95 -97.15 127.7 L-97.05 127.75 -95.9 128.2 Q-93.1 129.1 -90.2 129.25 -88.45 129.35 -87.75 128.9 L-87.75 128.95 Q-88.0 130.05 -87.55 130.85 -84.4 137.0 -77.25 135.6 -75.85 135.4 -74.9 134.55 L-74.85 134.55 -73.85 135.1 Q-73.8 136.2 -73.35 136.45 L-71.25 137.6 Q-63.8 141.1 -55.85 137.95 L-52.1 138.25 Q-51.65 139.65 -52.95 141.2 L-54.1 142.8 Q-55.95 145.75 -59.05 146.5 L-61.3 146.65 Q-66.25 146.15 -70.55 143.25 L-71.6 142.15 Q-72.1 141.4 -72.8 141.1 L-74.4 141.0 -77.15 141.3 -79.3 141.75 Q-86.0 143.5 -91.65 139.35 -94.7 137.1 -96.0 133.95 L-96.5 132.2 Q-96.7 130.85 -98.1 130.2 L-99.75 129.65 Q-102.1 128.85 -104.8 128.95 -106.7 129.0 -108.3 128.35 -111.6 127.3 -114.45 124.55 -117.55 121.6 -119.35 118.2 L-120.15 116.2 -120.8 114.1 Q-121.75 110.6 -121.4 106.75 -120.55 96.35 -111.55 90.75 -113.65 88.6 -112.0 86.15 L-111.45 85.9 M-8.95 167.5 Q-9.05 168.65 -9.65 169.65 L-9.85 171.05 Q-10.2 172.25 -11.05 173.25 -14.05 176.35 -17.3 174.75 -18.85 174.0 -19.5 172.25 -19.95 170.85 -20.0 169.25 L-21.0 169.45 Q-24.25 170.95 -27.9 171.25 -32.25 171.6 -34.65 167.85 -38.0 162.65 -33.45 158.0 -30.85 155.3 -26.9 155.1 -21.3 154.7 -16.65 157.85 L-13.45 159.85 Q-12.55 160.4 -11.95 161.35 -10.4 163.4 -9.25 165.65 -8.75 166.45 -8.95 167.5"
              fill="#ffffff" fill-rule="evenodd" stroke="none"/>
        <path d="M-64.85 28.25 L-64.0 26.25 -64.0 26.2 -64.95 25.85 Q-63.85 22.45 -62.9 18.9 -62.4 16.9 -61.25 15.2 -56.0 7.2 -46.8 9.75 -45.95 9.95 -45.7 10.45 -45.15 11.8 -45.05 13.9 -44.45 9.1 -39.55 8.4 -37.4 8.1 -36.6 10.05 L-35.8 12.75 -35.65 13.85 -35.65 13.9 -35.5 13.85 Q-30.2 11.85 -24.85 14.15 -23.75 11.55 -22.55 11.1 L-19.85 10.75 -15.3 11.45 Q-10.6 12.6 -5.75 21.55 L-5.65 21.8 -5.4 21.4 -4.45 21.75 -4.6 22.05 Q-5.4 27.1 -10.8 28.65 L-15.5 28.75 Q-17.35 28.35 -18.65 26.95 L-21.5 23.85 Q-23.25 21.75 -25.45 22.9 -26.4 23.45 -27.1 24.7 -28.65 27.45 -31.95 26.8 -34.4 26.3 -36.05 27.9 L-37.15 29.3 Q-37.55 30.15 -37.6 31.2 -38.1 39.45 -45.9 42.8 -48.1 43.75 -50.35 44.35 -54.4 45.6 -54.8 42.05 L-61.5 44.7 Q-63.8 45.65 -66.05 44.3 -67.45 43.5 -68.35 42.3 -69.45 40.85 -69.2 39.1 -68.95 36.65 -67.75 34.35 L-65.0 28.55 -64.9 28.45 -64.95 28.4 -64.85 28.25 M106.9 -15.95 Q107.3 -14.9 106.95 -13.4 105.75 -7.6 100.1 -6.85 99.05 -6.7 97.95 -7.5 94.05 -10.5 91.25 -14.45 L89.95 -15.35 Q86.8 -16.4 83.65 -15.0 82.4 -14.4 81.0 -14.35 75.6 -14.1 71.4 -17.3 70.55 -17.95 70.45 -19.3 70.1 -22.3 72.45 -24.55 73.55 -25.65 74.9 -26.25 76.9 -27.2 79.15 -27.75 L83.9 -27.65 83.55 -26.75 85.8 -26.4 85.9 -26.35 85.9 -26.4 87.6 -25.95 Q92.0 -24.6 93.85 -20.65 94.7 -21.2 95.6 -21.35 101.5 -22.85 105.05 -18.1 L105.45 -17.5 Q106.1 -16.35 106.0 -15.35 L105.75 -14.45 106.45 -15.35 106.9 -15.95 M157.65 12.45 L158.15 13.4 Q159.7 17.3 155.4 18.7 L152.4 18.75 Q150.85 18.2 149.8 16.85 148.8 15.6 148.35 14.0 L148.2 12.95 147.8 13.3 Q143.45 16.35 139.65 12.7 138.45 11.5 137.85 9.85 L136.9 7.65 135.6 5.95 Q134.6 4.9 134.45 3.6 134.35 2.3 134.95 1.15 135.7 -0.35 136.9 -1.5 L136.95 -1.55 137.35 -1.1 141.75 -1.35 Q144.4 -1.0 146.5 0.75 147.55 1.65 147.55 2.95 147.6 5.1 148.7 5.6 151.05 3.6 153.25 5.4 156.3 7.85 155.8 11.3 156.9 11.4 157.65 12.45 M176.35 29.45 Q178.5 30.3 180.0 31.95 182.85 35.55 182.7 39.95 182.35 44.95 177.1 46.35 L176.3 46.55 177.15 46.6 Q179.6 47.15 181.35 48.95 L182.25 50.0 182.35 50.3 182.55 50.5 182.25 50.0 Q181.95 49.05 182.3 48.0 182.95 46.05 184.5 44.9 186.0 43.9 187.95 44.05 190.75 44.25 192.0 46.2 L192.5 47.15 191.65 48.0 192.15 48.55 Q193.05 49.9 192.95 51.4 192.7 54.25 190.95 56.7 L194.25 56.95 Q197.55 57.3 197.5 60.8 197.5 63.25 196.65 65.4 195.85 67.55 196.15 68.3 198.9 68.7 198.1 70.45 197.05 72.5 195.65 74.05 194.05 76.0 191.6 76.6 188.35 77.55 185.9 75.8 187.9 78.75 186.75 82.1 L186.25 83.55 186.65 83.75 Q189.6 86.1 190.1 90.1 190.6 94.75 188.95 99.2 188.1 101.4 183.65 110.0 180.3 109.25 178.15 105.65 176.65 103.4 176.55 100.65 176.25 97.0 177.2 93.45 177.9 90.7 179.15 88.1 L179.7 86.95 Q181.8 86.5 181.8 84.8 L180.8 85.5 179.7 86.95 178.95 87.1 Q173.85 87.7 171.7 83.1 170.7 81.0 170.95 78.65 171.25 76.25 172.55 74.2 174.05 71.75 176.0 69.6 176.5 69.35 174.35 68.4 L171.85 67.35 Q169.75 66.5 167.95 65.3 166.05 63.95 165.4 61.65 164.85 59.5 165.6 54.15 162.95 52.5 161.1 49.7 158.65 46.1 158.15 41.85 157.1 34.4 163.65 30.75 165.2 29.85 166.9 30.35 L168.75 30.9 170.85 30.8 173.25 29.8 174.95 29.1 175.75 29.25 176.35 29.45 M185.9 75.8 L185.75 75.55 Q185.05 74.5 183.85 73.75 184.8 75.0 185.9 75.8 M17.45 175.6 L16.65 174.95 13.1 172.65 Q11.25 171.25 10.0 169.25 8.8 167.35 8.5 165.2 L8.15 163.05 Q7.85 160.5 9.35 158.15 L10.45 156.4 12.35 154.55 Q15.2 152.25 19.15 152.85 L24.7 153.6 Q28.1 154.0 30.4 156.45 30.85 154.35 33.7 153.85 37.65 153.1 40.8 155.1 L43.5 157.2 Q45.9 159.25 46.45 162.6 46.7 164.05 46.1 165.15 L47.2 164.05 47.3 163.95 Q49.05 162.6 51.75 163.05 52.95 163.3 54.2 163.95 54.95 164.35 55.8 164.55 58.45 165.3 60.25 167.3 L60.55 167.65 60.6 167.35 60.8 166.8 Q61.45 165.25 62.7 164.15 65.55 161.5 69.2 160.15 75.55 157.9 81.2 161.9 82.95 163.2 85.0 163.7 85.4 159.7 89.5 158.55 L93.0 157.1 Q94.2 156.4 94.9 155.05 L96.85 151.45 Q98.25 148.6 101.7 149.0 L105.6 149.35 107.9 149.5 Q109.65 149.7 111.0 148.45 111.75 147.75 112.9 147.4 118.6 145.75 123.65 148.85 L126.85 151.15 Q128.85 152.7 129.55 155.2 129.9 156.5 130.55 157.35 130.95 158.05 132.1 158.35 135.05 159.2 136.85 161.2 137.5 161.95 137.6 163.0 L137.45 164.25 135.5 165.85 Q132.5 167.9 129.45 167.85 L125.6 167.6 122.8 166.65 Q121.85 166.1 121.0 165.35 121.45 168.0 118.8 169.05 114.55 170.85 109.8 170.4 L106.45 169.8 Q102.95 168.95 99.8 167.5 L97.45 166.1 96.25 165.1 Q96.0 166.2 95.2 167.35 94.05 168.85 92.4 169.9 88.8 172.3 84.45 171.5 83.45 171.3 82.3 171.5 79.35 172.05 76.9 173.25 L75.55 174.05 75.45 174.1 74.8 174.6 Q73.65 175.45 72.2 175.65 L68.3 176.0 64.25 176.45 61.9 177.0 Q61.6 177.15 61.35 178.15 60.55 181.35 57.85 183.2 55.35 184.8 53.05 184.25 52.65 184.15 52.35 184.8 49.95 189.65 44.9 191.45 L42.25 191.65 Q41.2 191.4 40.55 190.5 L39.2 188.55 Q36.85 192.1 32.8 190.0 L32.65 189.9 Q30.8 188.85 29.35 187.4 L27.4 185.0 26.05 183.85 24.05 183.25 Q20.95 182.7 19.35 179.85 18.3 178.0 17.75 176.0 L17.6 175.6 17.45 175.6 M60.55 167.65 Q60.55 168.3 60.85 168.95 L62.05 169.75 Q61.4 168.55 60.55 167.65 M-35.65 13.9 L-36.65 14.3 Q-35.65 14.9 -35.65 13.9 M-79.1 58.4 L-79.45 59.2 Q-79.9 60.05 -79.65 60.4 -77.15 65.4 -78.8 70.7 L-79.95 75.1 Q-80.8 78.4 -83.6 79.75 L-86.15 81.25 Q-86.85 81.7 -87.15 82.65 -87.8 84.95 -86.8 86.65 L-85.85 88.4 Q-85.45 89.1 -85.6 89.75 -86.35 92.85 -83.2 94.95 -79.35 97.55 -79.3 101.95 -79.3 103.55 -79.9 104.85 -81.55 108.8 -81.4 113.1 L-81.3 115.15 Q-80.45 120.5 -75.05 122.35 -74.0 122.75 -73.25 123.4 L-71.9 124.7 Q-69.75 126.95 -67.2 128.7 L-64.3 130.65 Q-63.2 131.25 -62.15 131.1 L-54.75 131.6 Q-53.35 132.0 -52.35 132.65 -48.75 135.25 -52.1 138.25 L-55.85 137.95 Q-63.8 141.1 -71.25 137.6 L-73.35 136.45 Q-73.8 136.2 -73.85 135.1 L-74.85 134.55 -74.9 134.55 Q-75.85 135.4 -77.25 135.6 -84.4 137.0 -87.55 130.85 -88.0 130.05 -87.75 128.95 L-87.75 128.9 Q-88.45 129.35 -90.2 129.25 -93.1 129.1 -95.9 128.2 L-97.05 127.75 -97.15 127.7 Q-98.85 126.95 -100.2 125.8 L-101.65 124.5 Q-104.05 121.85 -103.5 118.05 L-103.15 115.45 Q-103.05 114.35 -101.65 113.35 -105.45 113.4 -108.85 112.4 -110.1 112.1 -111.3 111.4 -115.35 108.7 -115.2 104.0 -114.85 96.95 -110.7 91.35 L-109.4 89.6 -108.35 88.85 Q-107.45 89.3 -107.6 88.55 L-108.35 88.85 -108.8 88.65 -109.75 87.9 Q-110.95 87.05 -111.45 85.9 L-111.6 85.45 -110.75 83.8 Q-110.25 82.8 -110.35 81.8 L-110.6 81.05 -110.55 80.8 Q-108.35 77.15 -104.25 76.05 L-100.55 76.2 -98.75 76.85 Q-98.1 77.85 -97.65 77.4 L-98.75 76.85 -99.3 75.8 Q-100.7 72.45 -97.75 69.45 L-97.2 68.95 -97.75 68.85 Q-100.6 68.05 -99.85 65.5 -99.5 64.25 -98.45 63.15 -96.7 61.55 -96.4 59.55 L-96.3 58.95 Q-96.0 58.25 -95.35 57.8 -94.25 57.0 -92.9 56.5 -90.7 55.75 -88.4 55.65 -86.1 55.55 -84.2 56.8 L-82.2 57.75 -79.1 58.4"
              fill="#cccccc" fill-rule="evenodd" stroke="none"/>
    </g>
</svg>
