<?xml version="1.0" encoding="UTF-8" standalone="no"?>
<svg xmlns:xlink="http://www.w3.org/1999/xlink" height="245.1px" width="337.85px" xmlns="http://www.w3.org/2000/svg">
    <g transform="matrix(1.0, 0.0, 0.0, 1.0, 124.85, 38.85)">
        <path d="M51.3 195.55 L51.6 195.35 51.7 196.25 51.3 195.55 M-36.4 -1.55 L-36.05 -1.3 -36.65 -0.3 -36.4 -1.55 M-111.0 73.6 L-111.2 73.55 -111.05 72.85 -111.0 73.6 M-107.8 109.3 L-107.95 109.0 -106.2 108.65 -107.8 109.3"
              fill="#feeb9e" fill-rule="evenodd" stroke="none"/>
        <path d="M20.75 -25.5 Q18.1 -23.75 15.35 -22.95 14.0 -22.45 12.75 -23.7 11.45 -24.85 11.55 -26.35 11.7 -27.45 13.0 -28.0 15.05 -29.05 17.25 -29.2 L21.6 -28.7 20.75 -25.5 M112.4 -34.1 Q113.6 -32.95 114.1 -31.3 114.55 -29.55 114.5 -27.75 L114.6 -25.15 113.65 -24.7 Q115.4 -20.45 111.6 -18.3 L109.2 -18.15 Q107.6 -18.7 106.15 -19.6 103.75 -21.15 101.9 -23.0 L100.0 -24.45 Q97.4 -25.6 94.9 -23.95 90.85 -21.3 87.55 -24.15 85.3 -26.05 86.85 -29.5 88.2 -32.7 92.0 -32.9 L92.8 -33.15 Q93.7 -33.8 94.25 -34.8 96.35 -38.5 100.3 -38.85 103.8 -39.0 106.9 -37.7 L109.5 -36.3 112.4 -34.1 M55.55 -3.45 Q54.7 -4.25 54.15 -5.35 52.75 -7.9 55.2 -10.1 57.35 -12.15 60.1 -11.3 61.9 -10.75 63.05 -9.25 63.7 -8.4 62.55 -5.5 62.0 -1.5 57.65 -2.25 56.4 -2.45 55.55 -3.45 M161.9 -1.8 Q164.95 0.5 164.45 4.35 161.95 10.55 157.25 9.95 L153.75 9.4 152.15 9.35 Q148.7 9.9 147.55 7.0 147.05 5.6 147.1 4.05 147.4 1.7 149.05 0.15 L150.8 -1.9 Q152.95 -4.65 156.45 -4.15 159.55 -3.7 161.9 -1.8 M176.55 39.95 Q173.05 44.6 168.8 41.15 167.35 39.95 167.3 38.05 167.05 35.7 168.3 33.65 169.5 31.45 171.8 30.0 173.35 29.05 175.25 28.95 172.5 29.0 174.2 25.8 176.05 21.85 180.35 20.9 186.3 19.7 192.15 20.95 196.35 21.95 199.0 24.9 200.4 26.6 200.8 28.7 L200.9 31.8 200.75 34.45 201.9 34.95 Q203.25 36.55 201.9 39.7 200.55 43.0 196.95 42.45 195.0 42.2 193.3 41.35 191.85 40.6 190.95 39.2 L189.25 37.05 Q188.45 36.2 187.25 35.8 182.6 34.2 179.2 37.2 177.8 38.5 176.55 39.95 M194.55 63.1 Q197.15 58.85 202.25 59.7 209.25 60.75 210.25 67.65 210.5 69.4 210.2 71.25 209.95 73.6 211.0 76.65 L212.35 80.65 Q213.35 84.1 212.8 87.05 212.4 89.75 210.0 90.75 L209.95 97.6 Q209.8 99.8 208.7 101.8 207.45 104.25 205.1 104.15 203.95 104.05 202.9 103.5 L201.7 102.5 Q201.8 105.3 198.85 105.8 L195.6 105.6 Q187.7 103.55 188.1 95.3 188.3 90.4 191.1 86.5 191.9 85.45 193.0 84.65 191.4 84.5 190.85 82.55 189.8 78.6 191.8 75.0 L193.4 72.25 Q193.6 71.75 193.4 70.95 192.15 66.95 194.55 63.1 M9.95 169.0 L11.05 171.35 11.35 171.65 Q12.3 172.8 13.75 173.55 15.3 174.35 17.15 174.05 16.85 174.85 16.7 175.65 L16.0 179.35 Q15.1 184.3 18.45 187.45 L19.55 188.25 Q21.0 189.35 22.6 189.9 L22.7 189.95 26.4 190.85 Q29.75 191.25 31.35 188.7 31.1 190.2 31.65 191.45 32.8 193.95 35.2 195.5 37.0 196.9 39.2 197.55 L41.2 198.0 Q44.4 198.5 47.6 197.3 L51.3 195.55 51.7 196.25 51.6 199.75 51.55 199.75 51.55 199.8 Q48.0 204.25 42.8 204.6 39.95 204.75 39.2 202.35 38.85 201.2 38.3 200.15 37.65 202.65 35.35 204.2 31.75 206.9 27.1 206.05 23.15 205.35 19.9 203.4 16.65 201.5 16.1 198.05 15.5 194.15 16.45 190.05 L16.55 189.75 14.35 188.3 12.15 185.8 9.55 181.45 Q8.5 179.7 8.45 177.85 8.4 174.5 10.95 175.05 L11.55 175.2 11.1 174.6 Q10.4 173.3 10.05 172.0 9.85 170.5 9.95 169.0 M97.1 185.55 Q98.4 188.7 101.65 190.3 105.75 192.35 110.15 191.0 113.7 189.8 112.9 187.05 114.0 187.6 115.15 187.75 117.65 188.3 120.1 187.85 122.15 187.45 123.6 185.9 125.9 183.5 124.55 180.05 126.0 181.1 127.55 181.6 130.5 182.6 133.45 182.05 137.0 181.5 139.6 179.0 141.4 177.5 141.55 175.0 L142.65 168.5 Q145.45 169.2 146.7 171.95 148.3 175.55 147.15 179.25 L146.25 181.7 Q145.7 182.75 144.75 183.3 L143.6 184.0 Q144.2 185.15 143.35 187.25 141.5 191.35 137.05 191.65 135.1 191.85 133.15 191.0 L130.85 190.0 Q132.5 192.4 130.5 194.35 L128.0 196.7 Q125.1 199.35 121.55 198.75 120.35 198.6 119.45 197.35 L119.15 196.5 Q117.9 201.45 112.45 201.0 107.7 200.6 103.6 197.95 100.6 195.9 98.6 193.05 96.9 190.7 96.85 187.75 96.8 186.65 97.05 185.6 L97.1 185.55 M-61.8 -13.95 Q-60.35 -13.85 -59.55 -12.85 -59.25 -12.3 -59.8 -11.05 -58.05 -8.45 -58.8 -6.0 -59.35 -4.35 -61.65 -3.35 -65.45 -1.75 -66.7 -5.85 -66.95 -6.9 -67.6 -7.75 -68.45 -8.75 -68.9 -9.8 -69.25 -10.55 -68.75 -11.45 -67.9 -12.7 -66.6 -13.2 -64.3 -14.05 -61.8 -13.95 M-36.4 -1.55 L-36.35 -2.55 Q-39.7 -1.75 -39.8 -4.7 -39.95 -8.25 -36.65 -9.9 -34.45 -11.0 -31.95 -11.75 L-27.15 -13.45 Q-24.9 -14.35 -22.4 -14.45 -17.55 -14.75 -13.1 -13.2 -11.4 -12.65 -10.25 -11.15 -9.15 -9.85 -8.75 -8.15 -8.25 -6.4 -8.65 -4.65 -9.05 -2.65 -10.05 -0.55 -10.75 -1.05 -12.1 -1.35 -12.45 -2.35 -11.75 -3.0 L-11.05 -3.95 Q-13.6 -7.55 -18.35 -6.55 L-21.95 -5.8 Q-22.55 -5.65 -23.55 -6.1 L-26.3 -6.75 Q-32.1 -7.05 -36.05 -1.3 L-36.4 -1.55 M-75.7 17.55 Q-73.85 12.35 -68.25 12.95 -65.0 13.4 -62.7 15.5 -61.65 16.5 -61.8 18.25 -61.85 19.6 -62.4 21.0 L-62.05 22.1 -61.85 22.0 Q-60.35 25.2 -63.4 27.9 -66.4 30.55 -68.55 26.9 -69.05 26.1 -69.75 26.05 -71.0 25.85 -72.45 26.4 -76.6 28.1 -76.65 23.3 -76.75 20.35 -75.7 17.55 M-111.2 73.55 Q-114.2 72.75 -116.15 70.15 -116.85 69.25 -117.15 68.05 L-117.7 65.55 -118.35 62.3 Q-118.65 60.5 -118.0 58.95 -117.3 57.05 -115.8 55.6 -112.75 52.4 -110.25 54.85 L-110.05 53.4 Q-109.45 51.95 -108.5 50.8 -105.35 47.1 -100.8 46.7 -98.65 46.5 -97.45 47.7 -106.15 53.55 -107.9 55.45 L-108.2 55.95 -108.4 56.9 Q-108.6 59.6 -106.9 61.2 L-104.95 62.8 -103.45 63.7 Q-108.7 63.9 -110.2 68.55 -110.95 70.7 -111.05 72.85 L-111.2 73.55 M-105.0 126.05 L-104.95 126.1 Q-106.1 126.8 -107.2 126.85 L-108.8 126.6 Q-113.2 126.25 -116.0 122.9 -121.7 116.2 -124.25 107.85 -125.15 104.95 -124.65 102.05 -124.35 100.15 -123.3 98.6 -122.4 97.25 -120.85 97.05 -118.65 96.7 -117.35 95.2 L-116.5 94.0 -114.65 91.55 Q-113.75 90.5 -112.5 90.2 L-108.4 90.3 -108.25 90.6 Q-112.0 91.8 -114.45 95.35 L-115.3 96.65 Q-116.5 98.75 -116.95 101.05 -117.25 102.5 -116.5 103.7 -115.25 105.65 -113.55 107.1 -111.1 109.4 -107.95 109.0 L-107.8 109.3 -110.05 110.95 Q-114.25 114.95 -110.55 120.3 -109.15 122.1 -107.3 123.3 -105.45 124.45 -105.0 126.05 M-99.05 140.95 Q-95.55 142.45 -92.0 143.15 -88.9 143.75 -85.65 142.75 L-83.65 142.65 Q-82.15 143.15 -80.8 144.5 -78.75 146.55 -76.2 147.5 L-71.45 148.25 Q-69.65 148.15 -69.2 146.9 -67.5 149.05 -67.65 150.2 -68.05 151.95 -69.45 153.1 -70.25 153.85 -71.35 153.95 -74.8 154.35 -76.5 151.3 L-76.9 150.9 -77.6 150.7 -79.25 151.05 Q-84.45 153.2 -89.5 150.25 -91.85 148.95 -94.4 147.85 -96.75 146.8 -97.8 144.8 -98.75 143.1 -99.05 140.95 M-23.9 176.35 Q-22.15 178.0 -21.35 180.45 L-20.4 183.45 Q-20.4 184.25 -20.7 184.5 -22.9 185.9 -25.4 186.6 -28.9 187.55 -30.1 184.5 -30.5 183.4 -31.7 182.65 -32.8 182.05 -33.3 181.2 -34.25 179.75 -33.85 178.05 -33.4 176.3 -31.95 175.2 -30.35 174.15 -28.5 174.3 -25.85 174.6 -23.9 176.35"
              fill="#ffffff" fill-rule="evenodd" stroke="none"/>
        <path d="M9.95 169.0 L10.0 168.4 Q11.05 161.2 18.7 160.5 L23.1 160.65 Q25.4 161.0 27.3 162.3 29.4 163.65 28.5 166.05 28.0 167.3 28.4 168.35 28.85 169.4 30.0 169.4 33.85 169.55 34.95 172.8 36.15 176.35 33.85 179.45 L32.35 182.0 Q31.85 183.1 32.35 184.25 L33.8 186.6 35.7 188.75 Q36.7 189.6 37.75 189.9 39.55 190.35 41.45 189.95 L47.55 189.55 Q49.4 189.75 50.4 191.4 51.45 193.25 51.6 195.35 L51.3 195.55 47.6 197.3 Q44.4 198.5 41.2 198.0 L39.2 197.55 Q37.0 196.9 35.2 195.5 32.8 193.95 31.65 191.45 31.1 190.2 31.35 188.7 29.75 191.25 26.4 190.85 L22.7 189.95 22.6 189.9 Q21.0 189.35 19.55 188.25 L18.45 187.45 Q15.1 184.3 16.0 179.35 L16.7 175.65 Q16.85 174.85 17.15 174.05 15.3 174.35 13.75 173.55 12.3 172.8 11.35 171.65 L11.05 171.35 9.95 169.0 M97.1 185.55 L97.05 185.5 97.05 185.6 96.2 186.15 Q92.9 188.1 89.25 188.15 86.7 188.15 85.2 186.15 83.85 184.25 83.7 181.65 83.5 177.4 86.65 175.25 L88.45 175.1 Q89.65 175.5 90.65 176.4 L92.1 177.6 Q93.0 178.3 94.25 178.75 99.85 180.5 103.75 176.15 104.5 175.3 104.65 173.95 104.8 172.45 105.25 170.95 105.6 169.7 106.6 168.85 108.1 167.55 109.75 166.55 112.85 164.35 116.35 163.0 119.5 161.9 121.7 164.6 L123.95 166.7 Q125.55 164.5 127.7 164.25 L129.95 164.05 135.55 163.75 Q136.95 163.75 138.0 164.85 L140.65 167.85 Q140.95 168.25 141.8 168.35 L142.65 168.5 141.55 175.0 Q141.4 177.5 139.6 179.0 137.0 181.5 133.45 182.05 130.5 182.6 127.55 181.6 126.0 181.1 124.55 180.05 125.9 183.5 123.6 185.9 122.15 187.45 120.1 187.85 117.65 188.3 115.15 187.75 114.0 187.6 112.9 187.05 113.7 189.8 110.15 191.0 105.75 192.35 101.65 190.3 98.4 188.7 97.1 185.55 M-36.05 -1.3 Q-32.1 -7.05 -26.3 -6.75 L-23.55 -6.1 Q-22.55 -5.65 -21.95 -5.8 L-18.35 -6.55 Q-13.6 -7.55 -11.05 -3.95 L-11.75 -3.0 Q-12.45 -2.35 -12.1 -1.35 -10.75 -1.05 -10.05 -0.55 -8.7 0.4 -9.95 2.5 -11.2 4.5 -13.3 5.85 -15.1 6.9 -17.0 6.8 -18.2 6.7 -19.05 5.4 L-20.85 3.5 -22.0 3.45 -25.1 4.8 Q-26.6 5.5 -28.35 5.55 -32.4 5.8 -35.75 3.6 -36.85 3.0 -36.8 1.65 L-36.65 -0.3 -36.05 -1.3 M-97.45 47.7 Q-96.85 48.2 -96.5 49.0 L-95.4 50.65 -94.4 51.8 Q-90.45 56.15 -95.1 59.4 -93.05 59.8 -92.35 61.5 -91.45 63.85 -91.95 66.3 -92.45 68.35 -93.55 69.85 -98.65 77.2 -106.6 77.1 L-107.6 77.05 -108.65 77.0 Q-110.8 76.5 -111.0 73.6 L-111.05 72.85 Q-110.95 70.7 -110.2 68.55 -108.7 63.9 -103.45 63.7 L-104.95 62.8 -106.9 61.2 Q-108.6 59.6 -108.4 56.9 L-108.2 55.95 -107.9 55.45 Q-106.15 53.55 -97.45 47.7 M-105.0 126.05 Q-105.45 124.45 -107.3 123.3 -109.15 122.1 -110.55 120.3 -114.25 114.95 -110.05 110.95 L-107.8 109.3 -106.2 108.65 -107.95 109.0 Q-111.1 109.4 -113.55 107.1 -115.25 105.65 -116.5 103.7 -117.25 102.5 -116.95 101.05 -116.5 98.75 -115.3 96.65 L-114.45 95.35 Q-112.0 91.8 -108.25 90.6 L-107.85 90.5 Q-105.15 91.5 -103.05 93.3 -102.2 94.05 -101.65 95.05 -101.05 95.95 -101.15 96.9 -101.5 100.3 -102.85 103.3 -103.9 105.3 -103.8 107.55 L-103.65 108.15 Q-103.4 109.4 -101.8 110.25 -98.2 112.1 -98.55 115.85 -98.95 122.15 -104.45 125.8 L-105.0 126.05 M-99.05 140.95 L-99.1 139.65 Q-99.65 137.05 -99.95 136.65 L-101.65 134.25 Q-103.85 131.3 -100.8 129.8 -98.05 128.35 -94.6 129.35 L-91.45 130.45 Q-87.2 132.05 -82.9 133.9 -81.7 134.4 -80.55 135.1 -79.2 135.7 -78.1 136.55 L-76.35 137.7 Q-74.45 138.55 -71.55 138.55 -69.3 138.5 -67.3 139.3 -66.2 139.8 -66.2 140.9 -65.85 144.95 -69.2 146.9 -69.65 148.15 -71.45 148.25 L-76.2 147.5 Q-78.75 146.55 -80.8 144.5 -82.15 143.15 -83.65 142.65 L-85.65 142.75 Q-88.9 143.75 -92.0 143.15 -95.55 142.45 -99.05 140.95"
              fill="#cccccc" fill-rule="evenodd" stroke="none"/>
    </g>
</svg>
