<?xml version="1.0" encoding="UTF-8" standalone="no"?>
<svg xmlns:xlink="http://www.w3.org/1999/xlink" height="252.0px" width="338.9px" xmlns="http://www.w3.org/2000/svg">
    <g transform="matrix(1.0, 0.0, 0.0, 1.0, 122.0, 40.4)">
        <path d="M146.25 182.45 L147.25 183.0 146.2 182.95 146.25 182.45 M116.15 203.1 Q115.65 203.5 114.6 203.75 L110.8 203.9 Q109.75 203.7 109.0 203.2 L108.95 203.2 109.15 202.95 Q112.9 203.15 116.25 201.5 L116.45 201.75 Q116.15 202.35 116.15 202.85 L116.15 203.1"
              fill="#feeb9e" fill-rule="evenodd" stroke="none"/>
        <path d="M108.95 203.2 L108.95 203.15 109.15 202.95 108.95 203.2" fill="#e2be16" fill-rule="evenodd"
              stroke="none"/>
        <path d="M108.95 203.15 Q107.8 202.3 107.4 200.7 106.85 198.15 107.5 195.75 108.4 192.65 110.4 190.0 111.5 188.4 112.9 187.0 112.25 186.0 113.95 185.45 115.6 184.9 117.3 184.85 119.8 184.8 122.35 185.6 124.25 186.15 125.05 187.45 L125.25 187.45 Q124.9 186.1 124.9 184.8 124.8 181.7 127.4 181.05 L129.6 180.95 131.15 180.9 Q136.3 179.7 139.15 184.0 L140.5 182.7 Q141.9 181.35 143.65 181.6 145.05 181.8 146.25 182.45 L146.2 182.95 145.9 186.55 Q145.8 188.5 144.35 189.65 142.35 191.45 139.8 191.8 138.5 191.95 137.15 191.2 L134.2 188.85 Q135.6 193.1 130.85 193.8 L128.65 193.65 127.05 193.55 125.45 193.8 124.65 193.9 121.9 193.75 Q123.5 196.5 120.6 198.8 L116.95 201.2 116.25 201.5 Q112.9 203.15 109.15 202.95 L108.95 203.15 M112.9 187.0 L113.45 187.55 113.4 186.5 112.9 187.0"
              fill="#cccccc" fill-rule="evenodd" stroke="none"/>
        <path d="M117.95 -39.25 Q119.45 -38.35 120.2 -36.6 120.65 -35.7 120.7 -34.15 118.6 -31.05 115.1 -31.8 113.35 -32.15 111.6 -32.8 108.9 -33.9 108.9 -36.6 108.95 -38.95 111.55 -39.85 114.95 -41.2 117.95 -39.25 M166.9 -0.7 L167.2 0.0 167.8 1.1 Q166.1 4.7 162.25 3.65 159.5 2.8 159.3 0.1 159.25 -1.15 160.25 -1.7 161.8 -2.5 163.7 -2.1 165.4 -1.75 166.9 -0.7 M208.6 28.05 Q209.45 28.85 209.7 29.8 209.95 30.65 209.3 31.3 208.05 32.5 206.35 33.2 203.0 34.5 202.85 30.7 202.5 26.3 198.4 26.15 194.95 25.95 191.65 26.3 L189.95 26.45 Q187.25 26.35 186.55 23.9 186.3 23.05 186.85 22.15 187.95 20.6 189.45 19.45 193.45 16.3 197.1 18.75 L199.05 19.7 201.1 19.65 Q204.85 18.65 208.4 20.75 210.55 21.9 210.15 24.3 209.9 25.65 208.6 28.05 M210.25 74.0 Q212.0 74.4 213.4 75.35 L214.8 77.05 Q216.2 79.75 216.25 82.8 216.3 83.85 216.65 84.9 217.5 87.95 215.25 90.0 214.15 91.05 216.15 93.85 215.4 98.55 212.0 100.7 210.95 101.35 209.55 101.4 206.05 101.5 205.65 97.7 205.5 96.1 205.0 94.75 204.65 93.75 203.7 93.2 201.9 92.25 202.5 89.8 L203.2 86.7 204.1 82.8 204.0 81.85 Q203.7 80.6 203.95 79.35 204.15 78.45 204.6 77.6 L205.85 74.65 Q206.1 73.95 206.95 73.8 L210.25 74.0 M16.45 193.8 Q15.1 193.05 14.35 191.75 L13.25 189.45 Q12.35 187.05 11.9 184.7 11.15 179.75 16.05 178.35 20.25 177.15 22.2 180.85 23.75 183.95 23.6 186.9 L23.8 187.65 23.85 189.65 Q23.6 191.6 22.1 193.2 21.05 194.3 19.6 194.4 17.95 194.65 16.45 193.8 M147.25 183.0 Q149.25 184.45 150.0 187.05 150.8 190.2 148.7 192.6 L148.45 192.4 148.4 192.9 Q148.35 196.5 144.95 198.55 143.6 199.25 142.2 199.35 141.35 199.35 140.65 198.8 L137.7 198.75 Q136.6 199.9 134.85 200.2 132.65 200.55 130.75 199.75 129.55 199.25 128.75 197.85 126.0 196.5 125.4 199.05 L124.95 201.15 Q124.3 206.05 119.25 205.8 117.85 205.75 116.95 204.95 116.2 204.2 116.15 203.1 116.95 202.55 116.45 201.75 L116.25 201.5 116.95 201.2 120.6 198.8 Q123.5 196.5 121.9 193.75 L124.65 193.9 125.45 193.8 127.05 193.55 128.65 193.65 130.85 193.8 Q135.6 193.1 134.2 188.85 L137.15 191.2 Q138.5 191.95 139.8 191.8 142.35 191.45 144.35 189.65 145.8 188.5 145.9 186.55 L146.2 182.95 147.25 183.0 M45.45 201.9 Q46.75 202.75 46.85 203.95 47.05 204.75 46.85 205.9 L46.7 206.5 Q46.0 210.1 41.85 211.35 L39.05 211.6 37.15 210.95 Q35.9 210.2 34.45 210.2 L32.2 210.4 29.95 210.45 Q25.95 210.2 22.45 208.1 21.55 207.5 21.5 206.2 21.45 205.1 22.2 204.25 24.6 200.9 28.75 201.35 30.4 201.55 31.85 202.4 32.7 202.85 33.05 204.0 33.85 206.6 36.6 204.45 39.75 202.05 43.4 201.55 44.45 201.45 45.45 201.9 M-69.85 -30.1 L-69.95 -29.7 Q-72.35 -27.0 -73.5 -29.75 -73.75 -30.5 -72.9 -30.8 -72.1 -31.05 -69.85 -30.1 M-24.8 -12.45 Q-26.9 -11.9 -28.9 -12.8 -30.55 -13.45 -31.05 -15.1 -31.75 -16.9 -30.65 -18.5 -29.25 -20.65 -26.7 -21.6 -23.9 -22.8 -20.85 -22.7 -19.15 -22.6 -18.2 -21.3 -17.75 -20.5 -18.0 -19.15 -19.9 -15.95 -20.55 -15.1 -22.15 -13.05 -24.8 -12.45 M-103.4 47.9 Q-102.65 52.55 -105.5 56.6 -104.75 57.7 -104.8 59.5 -104.9 60.85 -106.05 61.7 L-107.85 61.9 -107.95 61.85 -108.9 61.3 -108.15 62.2 Q-106.35 64.55 -107.8 67.2 -108.75 68.8 -110.25 70.0 -113.05 72.1 -115.85 70.2 -116.9 69.45 -117.35 68.05 L-118.0 66.05 Q-120.15 67.85 -121.45 65.8 -122.25 64.55 -121.9 63.15 -121.15 60.8 -119.4 59.0 -117.6 57.05 -115.2 55.75 L-114.25 55.45 -114.7 55.1 Q-117.25 52.95 -117.35 49.65 -117.4 48.1 -116.15 46.4 -111.4 40.05 -105.05 44.8 -103.65 45.75 -103.4 47.9 M-87.05 8.7 Q-85.95 7.0 -84.25 7.4 -82.55 7.8 -81.1 9.55 -82.55 13.4 -85.55 13.4 -86.95 13.4 -87.5 12.0 -88.1 10.25 -87.05 8.7 M-108.45 121.75 Q-107.9 124.0 -108.9 126.3 -109.3 127.35 -110.4 128.2 -112.45 129.7 -113.75 127.65 L-115.25 125.8 -116.2 124.35 Q-116.7 123.3 -116.7 121.95 -116.75 119.05 -119.0 117.15 L-120.65 115.55 Q-123.1 112.9 -121.05 109.75 L-119.65 107.25 Q-118.35 104.65 -115.5 105.75 -113.85 106.35 -112.7 107.85 -111.9 109.0 -111.25 110.3 -108.85 115.3 -108.85 120.75 L-108.45 121.75 M-83.0 153.0 Q-80.65 154.75 -80.85 157.4 -82.25 157.75 -82.85 159.8 -83.1 160.6 -84.25 160.95 -86.3 161.55 -87.15 159.65 -88.2 157.45 -90.3 156.2 L-92.7 154.45 Q-93.8 153.6 -94.95 152.8 -93.95 150.15 -91.1 150.3 -88.55 150.35 -86.3 151.25 -84.6 151.9 -83.0 153.0"
              fill="#ffffff" fill-rule="evenodd" stroke="none"/>
        <path d="M53.9 -22.75 Q53.9 -21.7 53.5 -20.85 L52.8 -20.65" fill="none" stroke="#cc9900" stroke-linecap="round"
              stroke-linejoin="round" stroke-width="2.5"/>
    </g>
</svg>
