<?xml version="1.0" encoding="utf-8"?>
<!-- Generator: Adobe Illustrator 24.3.0, SVG Export Plug-In . SVG Version: 6.00 Build 0)  -->
<svg version="1.1" id="图层_1" xmlns="http://www.w3.org/2000/svg" xmlns:xlink="http://www.w3.org/1999/xlink" x="0px" y="0px"
	 viewBox="0 0 119.8 119.8" style="enable-background:new 0 0 119.8 119.8;" xml:space="preserve">
<style type="text/css">
	.st0{fill:#DC704C;stroke:#DC704C;stroke-linecap:round;stroke-linejoin:round;}
	.st1{fill:#DC704C;stroke:#DC704C;stroke-miterlimit:10;}
</style>
<path class="st0" d="M34,59.1c3.3,6.3,13.5,3.3,15.3,0C47.5,56.1,37.3,52.8,34,59.1z"/>
<path class="st0" d="M70.9,59.3c1.8,3,12,6.3,15.3,0C82.9,53,72.7,56,70.9,59.3z"/>
<path class="st1" d="M89.9,29.9c-0.2-39.2-59.8-39.2-60,0c-39.2,0.2-39.2,59.8,0,60c0.2,39.2,59.8,39.2,60,0
	C129.2,89.7,129.1,30.1,89.9,29.9z M101.8,68c-7.5,7.8-18.5,9.3-27.5,5.3c6.3,11.9-2.5,30.2-14.1,33.5C48.8,103.5,39.4,85.4,46,73.4
	c-12,6.3-30.2-2.5-33.5-14.1C15.8,48,33.7,38.5,45.6,44.9C39.7,33.1,48.7,15.2,59.9,12c11.2,3.3,20.8,21,14.6,32.9
	c11.9-6.2,30.1,2.7,33.3,14.2C107.8,59,106,63.8,101.8,68z"/>
<path class="st0" d="M60.2,48.9c3-1.8,6.3-12,0-15.3C53.9,36.9,56.9,47.1,60.2,48.9z"/>
<path class="st0" d="M60,70c-3,1.8-6.3,12,0,15.3C66.3,82,63.3,71.8,60,70z"/>
</svg>
