<?xml version="1.0" encoding="utf-8"?>
<!-- Generator: Adobe Illustrator 24.3.0, SVG Export Plug-In . SVG Version: 6.00 Build 0)  -->
<svg version="1.1" id="图层_1" xmlns="http://www.w3.org/2000/svg" xmlns:xlink="http://www.w3.org/1999/xlink" x="0px" y="0px"
	 viewBox="0 0 691.6 105.4" style="enable-background:new 0 0 691.6 105.4;" xml:space="preserve">
<style type="text/css">
	.st0{fill-rule:evenodd;clip-rule:evenodd;fill:#FFFFFF;}
</style>
<path class="st0" d="M675.6,102.4h-68c-8.8,0-16-7.2-16-16v-68l16-16h68c8.8,0,16,7.2,16,16v68C691.6,95.3,684.5,102.4,675.6,102.4z
	 M635.3,25.3H623V57c0,3.7-0.5,6.4-1.1,8.1c-1.1,1.7-2.7,2.6-4.9,2.6c-1.8,0-3.2-0.5-4.2-1.6c-1-1.1-1.8-2.7-2.3-4.9l-10.3,5.4
	c0.9,4.2,2.9,7.3,5.9,9.3c3,2,7,3,10.8,3c5.4,0,9.8-1.6,13.3-4.8c3.5-3.2,5.2-8.5,5.2-15.8V25.3z M657,36.7c1.2-0.9,2.8-1.4,4.8-1.4
	c2.3,0,4.2,0.6,6.3,1.8c1.2,1.2,2.4,2.9,3.1,5l10.1-5.4c-1-4.2-3.2-7.2-6.7-8.8c-3.4-2.6-7.5-3.6-12.1-3.6c-3.5,0-6.8,0.6-9.8,1.8
	c-2.5,1.2-5.5,3-7.4,5.5c-1.9,2.4-2.8,5.5-2.8,9.1c0,3.3,0.8,6,2.4,8c1.6,2,3.5,3.6,5.6,4.6c2.7,1,5,2,8.4,3
	c2.3,0.7,4.2,1.3,5.5,1.8c1.9,0.5,2.4,1.2,3.3,2c0.8,0.8,1.2,1.8,1.2,3.1c0,1.5-0.6,2.7-1.9,3.5c-1.3,1.1-2.9,1.2-5,1.2
	c-2.8,0-5.2-0.7-7.2-2c-2-0.6-3.6-3.2-4.6-5.7l-9.9,5.7c1.3,4.2,4,7.4,8,10.4c4,1.5,8.5,2.6,13.3,2.6c3.2,0,6.3-0.5,9.4-1.6
	c3.1-1.1,6-2.8,8-5.3c2.4-1.7,3.5-5.6,3.5-9.1c0-3.7-1.7-5.9-3.3-8.5c-1.4-2.1-3.5-3.6-5.7-4.6c-2.2-1-5.1-2.1-8.6-3.1
	c-2.3-0.7-4.1-1.3-5.3-1.8c-1.2-0.5-2.3-1.1-3.1-1.9c-0.8-0.8-1.3-1.7-1.3-2.8C655.2,38.8,655.8,37.6,657,36.7z M539,94.8l-21.6,8.5
	l-9-9.3l-28.3,10.8l-6-4.5l4.2-20.8l-2.4-24.3l4.3-6.2l-4.1-3.3l1-15.7l-7-19.3l19.8,1.2l14.7-10.4l21.3,7.9h40.6l-9,19l0.2,18.5
	l-7.3,3.4l6.5,10.3L556,82.7L574.4,94l1.1,5.1l-30.6,4.6L539,94.8z M494.1,87.7l16.4,1.2l-1.2-8.7l-7,4.1l-8.7-9.4L494.1,87.7z
	 M495,70.2l17.6,3.4l-2.7-9.9l-7.3,1.2l-10.6-5.3L495,70.2z M488.9,48.1l6.6,5.8l17,4.1l-2.7-9.1L488.9,48.1z M543.1,18.8l-17.8,0.2
	l-19.2-3.1l-14.7,5.8l5,5l16-3.4l3.1,10.4l-15.8,0.4l-6.2,5.4l48.4-1.2l-2-3.8l-15.4-2.9l-2.7-6.2l22.2-1.8L543.1,18.8z M535.2,64.4
	l-9.9-4.8l0.4,10.6l17.4,2.2l-1.2-8.2L535.2,64.4z M539.8,55.9v-9.1l-13.2,4.5l1.2,3.7L539.8,55.9z M541.1,76.9l-6.6,5.8l-9.2-5.5
	l-2.1,10l22.3-2.1L541.1,76.9z M455.1,37.3l5.8,9.2l-43.2,2.8l-6.7,4.7l0.1,6.8l8.5-1l34.7-4.9l-6.8,16.2L416.4,74l-6.6,4.6l1,8.6
	l7.4,1.6l19-2.1l3.1-6.7l10.1,19.7l-38.5,3.5l-20-1.1l-8-13l3-15.3L368.7,81L358,82l30.6-19l-1.6-8.5l-15.2,0.3l-7.2-10.7l16.6-4.3
	l7.2-1.5l-1.5-7.4l-7.4,1.5L362,20.3l32-4.6l9.8-15.1l8,13.7l22.5,2.7l13-7.3l16.1,13.1l-21.1,12.5L455.1,37.3z M412.6,28.3
	l-1.5,9.9l9.5,0.4L436.4,27L412.6,28.3z M316.1,83.8c-31.6,0.1-83.6,0.2-83.6,0.2L232,46.2l17.5-16.1l97.8-0.9c0,0,0.2,8.1,0.4,23.4
	C348,72.8,337.2,83.8,316.1,83.8z M287,49c-1.8-0.4-8.1,0-8.1,0s1-4.2,0.6-5.1c-0.4-0.9-4.4-1.5-4.4-1.5l-1.7,7.2l-10.8,1.5l1.9,4
	l7.1-0.5l-8.2,12.9c0,0,4.6,0.6,6.1,0c1.5-0.9,5.9-8.7,5.9-8.7s6.6,9.1,8.2,9.5c1.6,0.4,5-4.5,5-4.5L278,54.7l11.6-0.2
	C289.6,54.6,288.8,49.4,287,49z M317.2,58.6c0,0-1.1-3.3-2-3.4c-1,0-3.1,1.8-3.1,1.8l-0.8-2.9l6.1-2.3c0,0,0.5-2.5-0.1-2.6
	c-0.6-0.1-1.8,0.2-1.8,0.2s0.6-2.5-0.1-3.6c0.1-0.6-3.7,0.6-3.7,0.6l1.6,3.3l-2.9,1.4l-2.9-7.5c0,0-2.3,1.2-2.9,1.9
	c-0.2,0.7,1.4,5.5,1.4,5.5l-4.4,1.6l1.5,2.7l-3.8-0.6l-0.2-3.1l4-1.8l0.5-3.8l-4.6,1.9c0,0-0.4-4.6-0.4-4.9c-1.4-0.2-4,0.7-4,0.7
	l0.7,11.1c0,0-3.3-0.2-4.2,0.7c-0.9,0.5,0.9,12.3,0.9,12.3s5-0.3,8.9-1.5c4.4-1.4,8.4-4.3,8.4-4.3s2,6.9,3.6,7.3
	c1.6,0.4,6.3-4.3,6.3-4.3l-4.9-0.4l-1.3-3.6L317.2,58.6z M304,55.8l2.5-0.7l1.5,4.2l-5.8,4L304,55.8z M295.5,63.6l-0.7-4.7l4.4-0.7
	l-0.4,4.6L295.5,63.6z M219.3,38.1c-5.1,3.1-19.3,8.4-19.3,8.4l1.1,16.2c0,0,10.5,6.3,9.6,8.2c-0.8,1.9-15.9,6.8-15.9,6.8l21.6,7.7
	c0,0-15.4,15.6-19.3,15.9c-3.9,1.1-20.8-11.1-24.6-10.9c-3.9,0.2-37,17-41.6,12.8c-4.5-4.1,0.3-57.3,0.3-57.3l-17-2.2
	c0,0,36.9-37.8,42.9-40.4c6-2.2,32.3,3.7,32.3,3.7l-10.3,5.1C178.9,12.1,224.4,34.9,219.3,38.1z M173.2,74.7
	c4.3-0.7,12.9-7.6,12.9-7.6l-33.3,2C152.8,69.1,168.8,75.7,173.2,74.7z M150,57l0.2,3.6h35.3l-0.4-6.1L150,57z M184.9,48.1l-0.6-4.9
	L148,44.4l1.1,5.3L184.9,48.1z M145.4,87.1l17.5-6.4l-17.7-3.4L145.4,87.1z M138.6,36.3c0,0,22.9-1,24.3-0.5
	c2.2,0.5-13.3-8.8-13.3-8.8L138.6,36.3z M165.8,16.6l-10,7.5c0,0,16.3,3.8,18.7,4.5c2.4,0.7-4.3,6.5-4.3,6.5s16.1-0.8,20.8-0.8
	C196.3,34.3,165.8,16.6,165.8,16.6z M105.1,76.8c-2.9,1-31.1,1.9-31.1,1.9l31.6,26.4c0,0-19.5,1.1-26.7-0.4
	c-7.2-1.4-26-22.3-26-22.3s-16,21.8-23,22.5c-7-0.2-19.7-0.3-19.7-0.3l26-26.8c0,0-24.8,0.8-28.3,0.8C4,78.7,0,69.3,0,69.3
	c1.1,0,42.1-4.2,42.1-4.2l0.1-4.9c0,0-19.7,2.9-24.8,2.9c-4.3,0-5-9.8-5-9.8l30.4-3.5l-0.2-6.2c0,0-21.9,3.6-25.8,3.2
	s-5-11.2-5-11.2l30.5-2.5l-0.5-4.5c0,0-26.4,0.8-31,0.8c-3.9,0-7.5-9.3-7.5-9.3l30.8-2.8L26.9,2.5l14-0.2l4.7,14L56.5,16L70.2,1
	l12.7,6.3l-13.4,9.8c0,0,22.7-2.3,27.8-0.8c4.1,1.4,5.7,9.4,5.7,9.4l-38.8,2.5l-0.4,3.6l40.8-0.2c0,0-5.9,9.6-9.3,10.2
	C91.8,41.7,63,43.6,63,43.6l-1.1,5.3l35.4-1.9c0,0-5.3,10.9-9.3,11.1c-3.6,0.2-26.7,1.6-26.7,1.6l-0.9,5l47.8,1.6
	C108.3,66.3,107.9,76,105.1,76.8z"/>
</svg>
