<?xml version="1.0" encoding="utf-8"?>
<!-- Generator: Adobe Illustrator 24.3.0, SVG Export Plug-In . SVG Version: 6.00 Build 0)  -->
<svg version="1.1" id="图层_1" xmlns="http://www.w3.org/2000/svg" xmlns:xlink="http://www.w3.org/1999/xlink" x="0px" y="0px"
	 viewBox="0 0 16.5 16.4" style="enable-background:new 0 0 16.5 16.4;" xml:space="preserve">
<style type="text/css">
	.st0{fill:none;stroke:#000000;stroke-width:1.4;stroke-miterlimit:10;}
	.st1{fill-rule:evenodd;clip-rule:evenodd;}
	.st2{fill:none;stroke:#000000;stroke-width:1.4;stroke-linejoin:round;stroke-miterlimit:10;}
</style>
<path class="st0" d="M7.9,9.6c1.2,1.2,1.2,3.1,0,4.2l-1.5,1.5c-0.6,0.6-1.5,0.6-2.1,0l-3.2-3.2c-0.6-0.6-0.6-1.5,0-2.1l1.4-1.5
	c1.2-1.2,3.1-1.2,4.2,0L7.4,9L7.9,9.6z"/>
<g>
	<path class="st1" d="M10.4,6.7c-0.1,0-0.3-0.1-0.4-0.2C9.8,6.3,9.8,6,9.9,5.8l3.3-4.7c0.3-0.3,0.6-0.4,1-0.4s0.7,0.2,1.1,0.5
		c0.3,0.3,0.5,0.7,0.5,1.1s-0.1,0.7-0.4,1l-4.7,3.3C10.7,6.7,10.6,6.7,10.4,6.7L10.4,6.7z"/>
	<path d="M14.4,1.4c0.2,0,0.4,0.1,0.6,0.3c0.3,0.3,0.3,0.7,0.1,1.1l-3.9,2.8L14,1.7C13.9,1.5,14.2,1.4,14.4,1.4 M14.4,0
		c-0.6,0-1.1,0.2-1.6,0.7L9.4,5.4C9.1,5.9,9.1,6.6,9.6,7c0.2,0.2,0.6,0.4,0.9,0.4c0.3,0,0.5-0.1,0.7-0.2l4.7-3.4
		c0.9-0.9,0.9-2.2,0-3.1C15.4,0.2,14.9,0,14.4,0L14.4,0z"/>
</g>
<path class="st2" d="M7.4,9l2.1-2L7.4,9z"/>
</svg>
