<svg
        xmlns:xlink="http://www.w3.org/1999/xlink"
        xmlns="http://www.w3.org/2000/svg"
        width="242px" height="397px">
    <path fill-rule="evenodd" fill="rgb(255, 255, 255)"
          d="M148.723,246.133 C147.720,245.387 146.782,244.641 145.907,243.894 L145.907,245.909 L133.107,245.909 L133.107,244.182 C132.638,244.609 132.19,245.109 131.251,245.685 L129.523,243.319 C131.528,241.827 133.230,240.234 134.627,238.539 C136.24,236.844 137.224,234.963 138.227,232.896 L140.755,232.896 C142.739,236.967 145.907,240.537 150.259,243.607 L148.723,246.133 ZM139.539,236.285 C137.875,239.35 136.94,241.326 134.195,243.159 L145.107,243.159 C142.718,240.964 140.862,238.672 139.539,236.285 ZM130.227,248.515 C130.590,249.741 130.771,251.3 130.771,252.303 C130.771,254.30 130.488,255.256 129.923,255.980 C129.358,256.705 128.414,257.67 127.91,257.67 C126.728,257.67 126.206,257.25 125.523,256.940 L124.915,254.62 C125.342,254.190 125.875,254.254 126.515,254.254 C127.134,254.254 127.550,254.62 127.763,253.678 C127.976,253.295 128.83,252.591 128.83,251.568 C128.83,249.458 127.336,247.316 125.843,245.141 L128.115,237.308 L124.531,237.308 L124.531,262.343 L121.907,262.343 L121.907,234.430 L130.707,234.430 L130.707,237.340 L128.467,244.662 C129.278,246.5 129.864,247.289 130.227,248.515 ZM112.563,236.764 L93.555,236.764 L93.555,244.758 L90.483,244.758 L90.483,234.334 L115.667,234.334 L115.667,244.758 L112.563,244.758 L112.563,236.764 ZM95.347,238.491 L110.803,238.491 L110.803,240.569 L95.347,240.569 L95.347,238.491 ZM110.803,244.502 L95.347,244.502 L95.347,242.392 L110.803,242.392 L110.803,244.502 ZM113.587,262.407 L110.611,262.407 L110.611,260.936 L95.411,260.936 L95.411,262.471 L92.467,262.471 L92.467,246.197 L113.587,246.197 L113.587,262.407 ZM110.611,248.403 L95.411,248.403 L95.411,250.449 L110.611,250.449 L110.611,248.403 ZM110.611,252.559 L95.411,252.559 L95.411,254.605 L110.611,254.605 L110.611,252.559 ZM110.611,256.716 L95.411,256.716 L95.411,258.730 L110.611,258.730 L110.611,256.716 ZM131.667,248.115 L134.99,247.284 C134.483,248.350 134.947,249.778 135.491,251.568 C136.35,253.359 136.478,254.893 136.819,256.172 L134.227,256.971 C133.907,255.650 133.496,254.105 132.995,252.335 C132.494,250.566 132.51,249.160 131.667,248.115 ZM138.211,251.504 C137.752,249.884 137.342,248.574 136.979,247.571 L139.443,246.804 C139.806,247.891 140.232,249.271 140.723,250.945 C141.214,252.618 141.576,253.977 141.811,255.21 L139.315,255.725 C139.38,254.531 138.670,253.124 138.211,251.504 ZM143.379,252.863 C144.83,250.806 144.680,248.904 145.171,247.156 L147.795,247.987 C147.368,249.479 146.830,251.211 146.179,253.183 C145.528,255.155 144.915,256.876 144.339,258.346 L149.299,258.346 L149.299,261.160 L130.35,261.160 L130.35,258.346 L141.299,258.346 C141.982,256.748 142.675,254.920 143.379,252.863 Z"/>
    <path fill-rule="evenodd" fill="rgb(255, 255, 255)"
          d="M96.237,158.728 L93.401,135.375 L108.247,135.375 L108.915,144.215 L113.585,144.215 L113.419,135.375 L124.261,135.375 L124.261,144.49 L128.932,144.49 L129.599,135.375 L144.278,135.375 L141.442,158.728 L96.237,158.728 ZM141.776,166.234 L148.448,220.781 L89.398,220.781 L96.404,166.234 L141.776,166.234 Z"/>
</svg>