<svg
        xmlns:xlink="http://www.w3.org/1999/xlink"
        xmlns="http://www.w3.org/2000/svg"
        width="398px" height="322px">
    <path fill-rule="evenodd" opacity="0.251" fill="rgb(255, 255, 255)"
          d="M388.757,190.92 L370.707,105.174 L395.598,161.79 C400.203,171.423 397.88,183.224 388.757,190.92 ZM328.759,26.336 L166.354,60.856 L297.923,2.278 C310.355,-3.256 324.920,2.334 330.455,14.766 L335.396,25.864 C333.221,25.731 330.995,25.861 328.759,26.336 ZM9.29,131.907 L27.78,216.825 L2.188,160.920 C-2.416,150.576 0.698,138.775 9.29,131.907 ZM69.26,295.663 L231.431,261.143 L99.862,319.721 C87.431,325.256 72.866,319.665 67.331,307.233 L62.389,296.135 C64.565,296.268 66.790,296.138 69.26,295.663 Z"/>
    <path fill-rule="evenodd" opacity="0.502" fill="rgb(255, 255, 255)"
          d="M25.481,90.800 L328.759,26.336 C342.70,23.507 355.154,32.4 357.984,45.315 L391.283,201.975 C394.112,215.286 385.615,228.370 372.304,231.199 L69.26,295.663 C55.715,298.492 42.631,289.995 39.802,276.684 L6.503,120.24 C3.673,106.713 12.170,93.629 25.481,90.800 Z"/>
    <path fill-rule="evenodd" fill="rgb(255, 255, 255)"
          d="M43.866,56.280 L353.920,56.280 C367.528,56.280 378.559,67.311 378.559,80.920 L378.559,241.79 C378.559,254.688 367.528,265.719 353.920,265.719 L43.866,265.719 C30.258,265.719 19.226,254.688 19.226,241.79 L19.226,80.920 C19.226,67.311 30.258,56.280 43.866,56.280 Z"/>
</svg>