<?xml version="1.0" encoding="utf-8"?>
<!-- Generator: Adobe Illustrator 24.3.0, SVG Export Plug-In . SVG Version: 6.00 Build 0)  -->
<svg version="1.1" xmlns="http://www.w3.org/2000/svg" xmlns:xlink="http://www.w3.org/1999/xlink" x="0px" y="0px"
	 viewBox="0 0 31.6 31.6" style="enable-background:new 0 0 31.6 31.6;" xml:space="preserve">
<path fill-rule = "evenodd" clip-rule="evenodd" fill="white" d="M15.8,3.8C8.7,3.8,3,9.5,3,16.6c0,7.1,5.7,12.8,12.8,12.8c7.1,0,12.8-5.7,12.8-12.8C28.6,9.5,22.9,3.8,15.8,3.8
	z M22.1,18.2l-4.6,4.6c-0.9,0.9-2.4,0.9-3.3,0l-4.6-4.6c-0.9-0.9-0.9-2.5,0-3.4l4.5-4.5c0.9-0.9,2.5-0.9,3.4,0l4.6,4.6
	C23,15.8,23,17.3,22.1,18.2z"/>
</svg>
