<svg
        xmlns:xlink="http://www.w3.org/1999/xlink"
        xmlns="http://www.w3.org/2000/svg"
        width="245px" height="400px">
    <path fill-rule="evenodd" fill="rgb(255, 255, 255)"
          d="M177.953,246.733 L177.303,249.277 C174.664,248.787 172.360,248.260 170.391,247.694 C168.421,247.129 166.645,246.469 165.62,245.715 C161.857,247.167 157.843,248.476 153.18,249.645 L152.142,247.129 C156.24,246.319 159.426,245.367 162.348,244.273 C160.764,243.275 159.332,242.163 158.50,240.937 C156.750,242.106 155.478,243.96 154.234,243.906 L152.764,242.68 C154.139,241.163 155.539,240.0 156.962,238.577 C158.385,237.154 159.521,235.811 160.369,234.548 L162.856,235.396 C162.291,236.226 161.848,236.838 161.528,237.234 L174.617,237.234 L174.617,239.411 C172.525,241.352 170.273,242.992 167.860,244.330 C170.442,245.254 173.807,246.54 177.953,246.733 ZM170.744,239.439 L159.916,239.439 C161.348,240.928 163.45,242.153 165.5,243.114 C167.342,242.21 169.255,240.796 170.744,239.439 ZM141.992,256.910 L148.919,256.910 L148.919,259.540 L132.239,259.540 L132.239,256.910 L139.278,256.910 L139.278,248.881 L131.532,248.881 L131.532,246.167 L139.278,246.167 L139.278,239.806 C137.318,240.33 135.188,240.212 132.889,240.344 L132.606,237.686 C135.113,237.555 137.761,237.319 140.551,236.979 C143.340,236.640 145.809,236.235 147.958,235.764 L148.523,238.449 C146.431,238.883 144.254,239.232 141.992,239.495 L141.992,246.167 L149.682,246.167 L149.682,248.881 L141.992,248.881 L141.992,256.910 ZM130.62,260.671 L127.405,260.671 L127.405,246.422 C126.575,247.741 125.642,249.51 124.606,250.352 L123.475,247.468 C124.643,245.941 125.802,244.52 126.952,241.800 C128.102,239.548 129.54,237.262 129.808,234.944 L132.380,235.707 C131.683,237.837 130.910,239.788 130.62,241.559 L130.62,260.671 ZM117.170,249.164 L120.817,249.164 L120.817,251.680 L117.170,251.680 L117.170,256.995 C117.170,257.900 117.57,258.607 116.831,259.116 C116.605,259.625 116.228,259.992 115.700,260.218 C115.172,260.444 114.428,260.557 113.467,260.557 C112.393,260.557 111.318,260.501 110.244,260.388 L109.763,257.843 C111.26,258.13 112.63,258.98 112.873,258.98 C113.533,258.98 113.966,257.957 114.174,257.674 C114.381,257.391 114.485,256.854 114.485,256.62 L114.485,251.680 L104.53,251.680 L104.53,249.164 L114.485,249.164 L114.485,246.394 L103.204,246.394 L103.204,243.906 L110.753,243.906 L110.753,240.796 L104.844,240.796 L104.844,238.280 L110.753,238.280 L110.753,234.944 L113.439,234.944 L113.439,238.280 L119.884,238.280 L119.884,240.796 L113.439,240.796 L113.439,243.906 L121.185,243.906 L121.185,246.394 L117.170,246.394 L117.170,249.164 ZM96.843,236.725 L99.20,235.113 C100.245,236.678 101.508,238.365 102.809,240.174 L100.575,241.870 C99.859,240.796 98.615,239.81 96.843,236.725 ZM100.915,255.129 L101.734,254.394 C102.36,254.112 102.314,253.857 102.568,253.631 C102.823,253.405 103.53,253.207 103.261,253.37 L104.53,255.893 C102.375,257.269 101.226,258.249 100.604,258.833 C100.283,259.116 99.831,259.568 99.247,260.190 L97.494,258.239 C97.795,257.957 98.7,257.674 98.130,257.391 C98.252,257.108 98.314,256.779 98.314,256.402 L98.314,246.535 L95.232,246.535 L95.232,243.821 L100.915,243.821 L100.915,255.129 ZM85.479,256.981 C87.495,257.387 89.974,257.684 92.914,257.872 L92.292,260.586 C89.31,260.303 86.294,259.907 84.79,259.398 C81.864,258.889 79.899,258.183 78.185,257.278 C77.185,257.976 75.899,258.626 74.326,259.229 C72.752,259.832 70.768,260.435 68.374,261.38 L67.385,258.409 C69.402,257.995 71.84,257.570 72.431,257.137 C73.779,256.703 74.877,256.223 75.725,255.695 C74.160,254.545 72.568,252.981 70.947,251.2 L73.96,249.306 C74.698,251.266 76.271,252.793 77.817,253.885 C78.250,253.283 78.557,252.595 78.736,251.822 C78.915,251.49 79.4,250.144 79.4,249.108 L79.4,248.938 L69.505,248.938 L69.505,238.647 L79.4,238.647 L79.4,234.944 L81.634,234.944 L81.634,238.647 L90.991,238.647 L90.991,248.938 L81.634,248.938 L81.634,249.108 C81.634,250.465 81.521,251.638 81.294,252.627 C81.68,253.617 80.691,254.498 80.164,255.271 C81.690,256.6 83.462,256.576 85.479,256.981 ZM79.4,241.163 L72.135,241.163 L72.135,246.422 L79.4,246.422 L79.4,241.163 ZM81.634,246.422 L88.390,246.422 L88.390,241.163 L81.634,241.163 L81.634,246.422 ZM107.869,252.528 C109.396,254.55 110.414,255.92 110.922,255.638 L109.170,257.532 C108.698,256.986 108.114,256.345 107.417,255.610 C106.719,254.875 106.78,254.225 105.494,253.659 L107.276,251.935 L107.869,252.528 ZM160.934,252.698 L154.8,252.698 L154.8,250.380 L161.471,250.380 C161.659,249.155 161.772,248.241 161.810,247.638 L164.581,247.666 L164.440,248.712 L164.242,250.380 L174.985,250.380 C174.815,252.830 174.523,255.92 174.108,257.165 C173.882,258.352 173.482,259.229 172.907,259.794 C172.332,260.360 171.441,260.652 170.235,260.671 C168.444,260.671 166.758,260.576 165.175,260.388 L164.694,258.41 C166.164,258.267 167.672,258.390 169.217,258.409 C169.896,258.409 170.391,258.272 170.702,257.999 C171.13,257.726 171.262,257.203 171.451,256.430 C171.734,255.318 171.932,254.74 172.45,252.698 L163.733,252.698 C163.356,253.980 162.800,255.83 162.65,256.6 C161.330,256.929 160.340,257.778 159.96,258.550 C157.853,259.323 156.231,260.114 154.234,260.925 L152.707,258.748 C155.252,257.843 157.136,256.944 158.361,256.48 C159.586,255.153 160.444,254.37 160.934,252.698 Z"/>
    <path fill-rule="evenodd" stroke="rgb(255, 255, 255)" stroke-width="6px" stroke-linecap="butt"
          stroke-linejoin="miter" fill="none"
          d="M90.311,150.154 L150.642,150.154 C157.782,150.154 163.570,155.942 163.570,163.82 L163.570,215.333 L77.382,215.333 L77.382,163.82 C77.382,155.942 83.171,150.154 90.311,150.154 Z"/>
    <path fill-rule="evenodd" stroke="rgb(255, 255, 255)" stroke-width="5px" stroke-linecap="butt"
          stroke-linejoin="miter" fill="none"
          d="M78.460,183.12 L161.954,183.12 L78.460,183.12 Z"/>
    <path fill-rule="evenodd" stroke="rgb(255, 255, 255)" stroke-width="0px" stroke-linecap="butt"
          stroke-linejoin="miter" fill="rgb(255, 255, 255)"
          d="M111.642,172.239 L128.233,172.239 C130.196,172.239 131.788,174.152 131.788,176.513 L131.788,193.786 L108.87,193.786 L108.87,176.513 C108.87,174.152 109.678,172.239 111.642,172.239 Z"/>
    <path fill-rule="evenodd" stroke="rgb(255, 255, 255)" stroke-width="5px" stroke-linecap="butt"
          stroke-linejoin="miter" fill="none"
          d="M97.477,152.386 L97.477,213.717 L97.477,152.386 Z"/>
    <path fill-rule="evenodd" stroke="rgb(255, 255, 255)" stroke-width="5px" stroke-linecap="butt"
          stroke-linejoin="miter" fill="none"
          d="M144.552,152.386 L144.552,213.717 L144.552,152.386 Z"/>
</svg>