<svg
        xmlns="http://www.w3.org/2000/svg"
        width="616px" height="616px">
    <path fill-rule="evenodd" fill="rgb(255,255,255)"
          d="M405.916,234.696 L325.798,174.674 L356.915,129.269 L477.191,129.269 L405.916,234.696 ZM378.627,319.233 C378.627,361.820 344.104,396.344 301.517,396.344 C258.929,396.344 224.406,361.820 224.406,319.233 C224.406,276.646 258.929,242.122 301.517,242.122 C344.104,242.122 378.627,276.646 378.627,319.233 ZM124.821,129.269 L245.97,129.269 L276.215,174.674 L196.96,234.696 L124.821,129.269 Z"/>
    <path fill-rule="evenodd" stroke="rgb(255,255,255)" stroke-width="32px" stroke-linecap="round"
          fill="none"
          d="M301.517,165.649 C386.71,165.649 454.616,234.194 454.616,318.749 C454.616,403.303 386.71,471.848 301.517,471.848 C216.962,471.848 148.417,403.303 148.417,318.749 C148.417,234.194 216.962,165.649 301.517,165.649 Z"/>
</svg>