<svg
        xmlns:xlink="http://www.w3.org/1999/xlink"
        xmlns="http://www.w3.org/2000/svg"
        width="625px" height="115px">
    <path fill-rule="evenodd" stroke="rgb(255, 255, 255)" stroke-width="22px" stroke-linecap="square"
          stroke-linejoin="round" fill="rgb(255, 255, 255)"
          d="M583.664,38.820 C582.164,49.655 579.664,58.319 576.164,64.819 C580.664,71.155 585.828,75.69 591.664,76.569 L591.664,77.569 C589.164,77.733 587.414,78.651 586.414,80.319 C581.578,77.151 577.578,72.905 574.414,67.569 C569.578,73.737 562.914,78.401 554.414,81.569 L554.164,80.569 C562.496,76.233 568.664,70.987 572.664,64.819 C569.664,58.487 567.746,50.569 566.914,41.70 C564.578,45.737 561.914,49.655 558.914,52.819 L558.164,52.319 C560.828,48.319 563.78,43.569 564.914,38.70 C566.746,32.570 568.78,27.320 568.914,22.320 L574.664,25.320 C573.328,26.156 572.371,27.156 571.789,28.320 C571.203,29.488 570.78,32.488 568.414,37.320 L584.664,37.320 L587.664,34.320 L591.914,38.820 L583.664,38.820 ZM567.914,38.820 C569.578,49.319 571.746,56.905 574.414,61.569 C577.246,54.905 579.164,47.319 580.164,38.820 L567.914,38.820 ZM557.664,50.569 C557.664,52.737 557.746,55.405 557.914,58.569 L554.414,61.819 L554.414,29.820 L540.665,29.820 L540.665,62.69 L536.915,64.319 C537.79,59.155 537.165,52.362 537.165,43.944 C537.165,35.530 537.79,29.738 536.915,26.570 L540.665,28.320 L554.164,28.320 L556.414,25.820 L560.164,29.320 L557.664,30.820 L557.664,50.569 ZM545.914,47.694 C546.78,41.445 546.78,36.820 545.914,33.820 L551.414,36.70 L549.414,37.820 C549.414,49.655 548.496,58.444 546.664,64.194 C544.828,69.944 540.579,75.233 533.915,80.69 L533.415,79.69 C538.415,74.237 541.704,69.362 543.290,64.444 C544.871,59.530 545.746,53.944 545.914,47.694 ZM510.165,70.569 C506.165,66.69 503.79,60.319 500.915,53.319 L499.165,53.319 C497.329,60.987 494.204,66.905 489.790,71.69 C485.372,75.233 479.247,78.569 471.415,81.69 L470.915,80.319 C477.579,77.483 482.829,74.155 486.665,70.319 C490.497,66.487 493.415,60.819 495.415,53.319 L479.915,53.319 C477.747,53.319 475.747,53.569 473.915,54.69 L471.665,51.819 L495.665,51.819 C496.329,47.487 496.747,43.237 496.915,39.70 L483.415,39.70 C481.79,43.569 478.747,47.155 476.415,49.819 L475.665,49.319 C479.329,42.487 481.579,35.488 482.415,28.320 L488.165,31.320 C486.665,31.988 485.247,34.70 483.915,37.570 L496.915,37.570 L496.915,29.570 C496.915,27.570 496.829,25.320 496.665,22.820 L503.165,25.820 L500.665,27.570 L500.665,37.570 L512.665,37.570 L516.165,34.70 L521.165,39.70 L500.665,39.70 C500.329,43.905 499.915,48.155 499.415,51.819 L517.165,51.819 L521.165,47.819 L526.665,53.319 L502.165,53.319 C505.665,60.819 509.829,66.362 514.665,69.944 C519.497,73.530 523.829,75.569 527.665,76.69 L527.665,77.69 C524.497,77.569 522.579,78.733 521.915,80.569 C518.79,78.401 514.165,75.69 510.165,70.569 ZM457.915,79.319 C454.79,76.983 450.665,73.905 447.665,70.69 C442.497,75.69 436.79,78.651 428.415,80.819 L427.915,80.69 C435.247,76.901 441.165,72.737 445.665,67.569 C442.329,62.405 439.915,55.905 438.415,48.69 C437.747,56.737 435.915,63.405 432.915,68.69 C429.915,72.737 425.329,76.819 419.165,80.319 L418.665,79.569 C424.829,74.905 428.915,70.362 430.915,65.944 C432.915,61.530 434.247,56.444 434.915,50.694 C435.579,44.944 435.997,38.238 436.165,30.570 C433.997,30.570 431.997,30.820 430.165,31.320 L427.915,29.70 L451.665,29.70 L454.165,26.570 L458.165,30.570 L455.165,32.70 C451.997,38.570 449.829,43.70 448.665,45.569 L454.665,45.569 L457.165,43.70 L460.665,46.569 L458.415,48.319 C456.247,55.819 453.415,62.237 449.915,67.569 C453.579,71.737 457.915,74.569 462.915,76.69 L462.915,76.819 C460.579,76.651 458.915,77.483 457.915,79.319 ZM454.915,47.69 L447.915,47.69 L446.665,49.69 L443.415,45.569 C444.747,45.237 446.204,43.405 447.790,40.70 C449.372,36.738 450.747,33.570 451.915,30.570 L439.415,30.570 C439.247,35.570 439.79,40.487 438.915,45.319 C441.415,54.319 444.329,60.819 447.665,64.819 C450.665,60.487 453.79,54.569 454.915,47.69 ZM426.665,35.70 L431.415,38.820 L428.915,39.820 C424.247,46.155 418.747,52.905 412.415,60.69 L428.915,57.319 L428.915,58.569 C418.247,61.237 411.998,63.405 410.165,65.69 L407.166,60.319 C408.830,59.987 410.580,58.780 412.415,56.694 C414.247,54.612 417.165,50.819 421.165,45.319 C418.997,45.655 416.747,46.69 414.415,46.569 C412.80,47.69 410.330,47.819 409.165,48.819 L406.416,44.319 C408.80,44.319 410.330,41.780 413.165,36.695 C415.997,31.613 417.829,27.238 418.665,23.570 L423.915,26.570 L421.665,28.70 C418.497,33.570 414.747,38.987 410.415,44.319 L421.915,44.69 C424.79,40.905 425.665,37.905 426.665,35.70 ZM384.166,72.319 C384.166,74.487 384.248,76.901 384.416,79.569 L380.416,81.69 C380.580,78.401 380.666,76.733 380.666,76.69 L380.666,50.319 L363.666,50.319 C363.498,58.155 362.41,64.237 359.291,68.569 C356.541,72.905 351.248,76.983 343.416,80.819 L342.666,80.69 C349.330,76.69 353.791,72.69 356.41,68.69 C358.291,64.69 359.666,58.155 360.166,50.319 L350.166,50.319 C347.998,50.319 345.998,50.569 344.166,51.69 L341.916,48.819 L360.166,48.819 L360.166,31.820 C352.998,32.988 348.80,33.656 345.416,33.820 L345.416,32.820 C350.748,31.988 355.916,30.781 360.916,29.195 C365.916,27.613 369.666,25.820 372.166,23.820 L375.916,28.820 C373.248,28.988 369.166,29.738 363.666,31.70 L363.666,48.819 L380.666,48.819 L380.666,29.320 C380.666,27.656 380.580,25.738 380.416,23.570 L386.416,26.70 L384.166,27.820 L384.166,48.819 L390.666,48.819 L394.416,45.69 L399.666,50.319 L384.166,50.319 L384.166,72.319 ZM288.541,74.194 C286.791,76.108 285.373,77.151 284.291,77.319 C283.205,77.483 282.666,77.483 282.666,77.319 C282.666,77.151 282.916,76.901 283.416,76.569 C284.416,75.733 285.373,74.737 286.291,73.569 C287.205,72.405 287.998,70.737 288.666,68.569 C287.166,68.569 286.80,68.319 285.416,67.819 C284.748,67.319 284.291,66.655 284.41,65.819 C283.791,64.987 283.748,64.194 283.916,63.444 C284.80,62.694 284.666,61.944 285.666,61.194 C286.666,60.444 287.916,60.237 289.416,60.569 C290.916,60.905 291.830,61.530 292.166,62.444 C292.498,63.362 292.666,64.237 292.666,65.69 C292.666,66.69 292.416,67.362 291.916,68.944 C291.416,70.530 290.291,72.280 288.541,74.194 ZM248.542,78.69 C243.624,77.901 239.624,77.194 236.542,75.944 C233.456,74.694 230.999,73.155 229.167,71.319 C227.331,69.655 225.999,68.737 225.167,68.569 C224.331,68.405 222.956,69.319 221.42,71.319 C219.124,73.319 217.749,74.905 216.917,76.69 L213.417,72.569 C216.81,70.405 219.499,68.487 223.667,66.819 L223.667,46.569 L221.917,46.569 C219.749,46.569 217.749,46.819 215.917,47.319 L213.667,45.69 L223.167,45.69 L224.917,42.320 L229.167,45.569 L226.917,47.319 L226.917,66.819 C228.417,68.487 230.499,70.69 233.167,71.569 C235.831,73.69 239.706,73.944 244.792,74.194 C249.874,74.444 254.706,74.487 259.292,74.319 C263.874,74.155 268.249,73.737 272.416,73.69 L272.416,74.69 C268.917,75.69 267.167,76.483 267.167,78.319 C259.667,78.319 253.456,78.233 248.542,78.69 ZM252.167,48.69 C250.831,48.69 248.917,49.819 246.417,53.319 C243.749,56.987 240.917,60.319 237.917,63.319 L260.167,62.319 C258.999,59.819 257.167,57.155 254.667,54.319 L255.417,53.819 C258.917,55.987 261.624,58.30 263.542,59.944 C265.456,61.862 266.292,63.612 266.42,65.194 C265.792,66.780 265.417,67.780 264.917,68.194 C264.417,68.612 263.999,68.819 263.667,68.819 C263.167,68.819 262.749,68.319 262.417,67.319 C261.917,65.987 261.417,64.737 260.917,63.569 C252.249,64.405 246.456,65.155 243.542,65.819 C240.624,66.487 238.417,67.319 236.917,68.319 L233.917,62.819 C235.581,62.487 237.167,61.405 238.667,59.569 C240.167,57.737 241.749,55.405 243.417,52.569 C245.81,49.737 246.249,47.155 246.917,44.819 L237.917,44.819 C236.581,44.819 234.999,45.69 233.167,45.569 L230.917,43.320 L261.917,43.320 L265.667,39.570 L270.417,44.819 L247.667,44.819 L252.167,48.69 ZM237.667,32.570 L235.417,30.320 L257.167,30.320 L260.667,27.70 L265.167,31.820 L242.167,31.820 C240.999,31.820 239.499,32.70 237.667,32.570 ZM225.417,36.820 C224.749,36.820 224.249,35.988 223.917,34.320 C223.417,31.988 221.831,29.156 219.167,25.820 L219.917,25.320 C223.249,26.988 225.499,28.406 226.667,29.570 C227.831,30.738 228.331,31.945 228.167,33.195 C227.999,34.445 227.581,35.363 226.917,35.945 C226.249,36.530 225.749,36.820 225.417,36.820 ZM200.417,51.819 L203.667,48.569 L208.417,53.319 L192.167,53.319 L192.167,74.69 C192.331,77.401 190.499,79.901 186.667,81.569 C186.667,79.569 183.917,77.733 178.417,76.69 L178.417,74.819 C183.81,75.651 185.917,75.944 186.917,75.694 C187.917,75.444 188.499,74.569 188.667,73.69 L188.667,53.319 L177.167,53.319 L174.917,53.819 L172.917,51.819 L188.667,51.819 C188.667,47.155 188.581,42.905 188.417,39.70 L191.417,40.820 L197.417,30.820 L181.667,30.820 L178.417,31.570 L176.167,29.320 L197.417,29.320 L199.667,26.820 L204.417,31.320 C202.417,31.656 200.417,32.781 198.417,34.695 C196.417,36.613 194.417,38.820 192.417,41.320 L194.167,42.320 L192.167,44.69 L192.167,51.819 L200.417,51.819 ZM167.667,65.69 C171.331,66.569 173.706,67.862 174.792,68.944 C175.874,70.30 176.249,71.194 175.917,72.444 C175.581,73.694 175.167,74.319 174.667,74.319 C173.999,74.319 173.249,73.819 172.417,72.819 C170.749,70.819 168.749,69.69 166.417,67.569 C163.81,72.569 157.667,76.901 150.167,80.569 L149.417,79.819 C156.81,75.651 160.831,71.69 163.667,66.69 C159.167,64.69 155.831,62.737 153.667,62.69 C155.831,55.237 157.667,47.737 159.167,39.570 L154.167,39.570 L151.667,40.70 L149.667,38.70 L159.417,38.70 C160.581,31.738 161.331,26.820 161.667,23.320 L167.167,26.70 L165.167,27.570 C164.499,30.406 163.749,33.906 162.917,38.70 L170.167,38.70 L171.917,35.820 L175.667,39.70 L173.667,40.570 C172.167,50.905 170.167,59.69 167.667,65.69 ZM162.667,39.570 C160.667,47.737 158.749,55.69 156.917,61.569 C158.749,62.69 161.331,62.819 164.667,63.819 C166.999,57.819 168.917,49.737 170.417,39.570 L162.667,39.570 ZM126.418,74.694 C120.918,77.776 114.832,79.901 108.168,81.69 L107.918,80.69 C114.582,78.401 120.375,75.858 125.293,72.444 C130.207,69.30 134.332,63.655 137.667,56.319 L124.918,56.319 C123.582,57.487 122.168,58.819 120.668,60.319 C123.500,62.487 125.82,64.30 125.418,64.944 C125.750,65.862 125.918,66.487 125.918,66.819 C125.918,67.655 125.668,68.362 125.168,68.944 C124.668,69.530 124.250,69.819 123.918,69.819 C123.418,69.819 123.0,68.987 122.668,67.319 C122.168,65.155 121.250,63.69 119.918,61.69 C117.750,62.905 115.168,64.569 112.168,66.69 L111.668,65.319 C115.332,62.819 118.375,59.905 120.793,56.569 C123.207,53.237 125.82,50.69 126.418,47.69 L130.668,50.569 L128.418,51.319 L125.668,54.819 L137.667,54.819 L139.917,52.569 L143.417,56.69 L140.917,57.819 C136.750,65.987 131.918,71.612 126.418,74.694 ZM128.418,45.569 C124.250,48.405 118.832,50.819 112.168,52.819 L111.918,51.819 C119.82,48.987 124.543,45.780 128.293,42.195 C132.43,38.613 134.582,35.488 135.917,32.820 L123.168,32.820 C122.0,34.320 121.0,35.488 120.168,36.320 C123.332,37.820 125.82,39.112 125.418,40.195 C125.750,41.280 125.668,42.155 125.168,42.820 C124.668,43.487 124.332,43.819 124.168,43.819 C123.668,43.819 123.168,43.155 122.668,41.820 C121.832,39.987 120.750,38.405 119.418,37.70 C117.82,39.70 115.82,40.570 113.418,41.570 L113.168,40.820 C116.168,38.155 118.500,35.238 120.168,32.70 C121.832,28.906 123.82,26.70 123.918,23.570 L128.168,26.570 L126.168,27.570 L123.918,31.320 L135.917,31.320 L138.167,29.70 L141.667,32.570 L139.417,33.820 C136.250,38.820 132.582,42.737 128.418,45.569 ZM110.168,68.444 C109.668,71.362 108.832,73.405 107.668,74.569 C106.500,75.733 104.832,76.819 102.668,77.819 C102.500,75.319 100.0,73.487 95.168,72.319 L95.168,71.319 C99.832,71.987 102.875,72.194 104.293,71.944 C105.707,71.694 106.625,70.69 107.43,67.69 C107.457,64.69 107.668,53.569 107.668,35.570 L94.668,35.570 C92.168,40.570 89.250,45.69 85.918,49.69 L85.168,48.569 C88.168,43.405 90.457,38.530 92.43,33.945 C93.625,29.363 94.668,25.656 95.168,22.820 L100.418,25.570 L98.418,27.70 L95.168,34.70 L107.418,34.70 L109.668,31.820 L112.668,34.820 L110.918,36.70 C110.918,54.737 110.668,65.530 110.168,68.444 ZM50.668,39.70 L54.918,41.570 L52.668,43.320 L52.668,67.319 C52.668,72.319 52.750,76.151 52.918,78.819 L48.668,80.569 C48.832,74.237 48.918,68.737 48.918,64.69 L48.918,42.70 C42.250,52.237 33.582,60.405 22.918,66.569 L22.418,65.569 C27.918,61.569 33.207,56.530 38.293,50.444 C43.375,44.362 47.500,37.238 50.668,29.70 L31.168,29.70 C29.0,29.70 27.0,29.320 25.168,29.820 L22.918,27.570 L70.418,27.570 L74.168,23.820 L79.418,29.70 L55.668,29.70 C54.168,31.906 52.500,35.238 50.668,39.70 ZM76.293,56.319 C77.375,57.987 77.918,59.319 77.918,60.319 C77.918,60.987 77.668,61.780 77.168,62.694 C76.668,63.612 76.250,64.69 75.918,64.69 C75.250,64.69 74.250,62.737 72.918,60.69 C70.918,56.569 65.918,51.237 57.918,44.69 L58.668,43.320 C69.332,50.319 75.207,54.655 76.293,56.319 ZM94.918,43.320 L99.668,43.320 L101.418,41.320 L104.918,44.319 L103.168,45.569 L103.168,56.69 C103.168,57.405 103.250,59.319 103.418,61.819 L100.168,63.569 L100.168,60.319 L94.918,60.319 L94.918,65.569 L91.668,66.819 C91.832,62.819 91.918,58.444 91.918,53.694 C91.918,48.944 91.832,44.987 91.668,41.820 L94.918,43.320 ZM94.918,58.819 L100.168,58.819 L100.168,44.819 L94.918,44.819 L94.918,58.819 ZM428.665,67.319 C421.665,70.319 416.955,72.444 414.540,73.694 C412.123,74.944 410.415,76.151 409.415,77.319 L406.416,72.569 C410.915,71.737 418.329,69.655 428.665,66.319 L428.665,67.319 ZM558.164,66.569 C559.328,67.905 559.914,69.69 559.914,70.69 C559.914,70.905 559.621,71.737 559.39,72.569 C558.453,73.405 557.996,73.819 557.664,73.819 C557.328,73.819 556.996,73.237 556.664,72.69 C555.996,70.405 554.996,68.655 553.664,66.819 C552.328,64.987 550.746,63.237 548.914,61.569 L549.414,60.819 C554.78,63.319 556.996,65.237 558.164,66.569 Z"/>
    <path fill-rule="evenodd" stroke="rgb(81, 137, 2)" stroke-width="12px" stroke-linecap="square"
          stroke-linejoin="round" fill="rgb(81, 137, 2)"
          d="M583.664,38.820 C582.164,49.655 579.664,58.319 576.164,64.819 C580.664,71.155 585.828,75.69 591.664,76.569 L591.664,77.569 C589.164,77.733 587.414,78.651 586.414,80.319 C581.578,77.151 577.578,72.905 574.414,67.569 C569.578,73.737 562.914,78.401 554.414,81.569 L554.164,80.569 C562.496,76.233 568.664,70.987 572.664,64.819 C569.664,58.487 567.746,50.569 566.914,41.70 C564.578,45.737 561.914,49.655 558.914,52.819 L558.164,52.319 C560.828,48.319 563.78,43.569 564.914,38.70 C566.746,32.570 568.78,27.320 568.914,22.320 L574.664,25.320 C573.328,26.156 572.371,27.156 571.789,28.320 C571.203,29.488 570.78,32.488 568.414,37.320 L584.664,37.320 L587.664,34.320 L591.914,38.820 L583.664,38.820 ZM567.914,38.820 C569.578,49.319 571.746,56.905 574.414,61.569 C577.246,54.905 579.164,47.319 580.164,38.820 L567.914,38.820 ZM557.664,50.569 C557.664,52.737 557.746,55.405 557.914,58.569 L554.414,61.819 L554.414,29.820 L540.665,29.820 L540.665,62.69 L536.915,64.319 C537.79,59.155 537.165,52.362 537.165,43.944 C537.165,35.530 537.79,29.738 536.915,26.570 L540.665,28.320 L554.164,28.320 L556.414,25.820 L560.164,29.320 L557.664,30.820 L557.664,50.569 ZM545.914,47.694 C546.78,41.445 546.78,36.820 545.914,33.820 L551.414,36.70 L549.414,37.820 C549.414,49.655 548.496,58.444 546.664,64.194 C544.828,69.944 540.579,75.233 533.915,80.69 L533.415,79.69 C538.415,74.237 541.704,69.362 543.290,64.444 C544.871,59.530 545.746,53.944 545.914,47.694 ZM510.165,70.569 C506.165,66.69 503.79,60.319 500.915,53.319 L499.165,53.319 C497.329,60.987 494.204,66.905 489.790,71.69 C485.372,75.233 479.247,78.569 471.415,81.69 L470.915,80.319 C477.579,77.483 482.829,74.155 486.665,70.319 C490.497,66.487 493.415,60.819 495.415,53.319 L479.915,53.319 C477.747,53.319 475.747,53.569 473.915,54.69 L471.665,51.819 L495.665,51.819 C496.329,47.487 496.747,43.237 496.915,39.70 L483.415,39.70 C481.79,43.569 478.747,47.155 476.415,49.819 L475.665,49.319 C479.329,42.487 481.579,35.488 482.415,28.320 L488.165,31.320 C486.665,31.988 485.247,34.70 483.915,37.570 L496.915,37.570 L496.915,29.570 C496.915,27.570 496.829,25.320 496.665,22.820 L503.165,25.820 L500.665,27.570 L500.665,37.570 L512.665,37.570 L516.165,34.70 L521.165,39.70 L500.665,39.70 C500.329,43.905 499.915,48.155 499.415,51.819 L517.165,51.819 L521.165,47.819 L526.665,53.319 L502.165,53.319 C505.665,60.819 509.829,66.362 514.665,69.944 C519.497,73.530 523.829,75.569 527.665,76.69 L527.665,77.69 C524.497,77.569 522.579,78.733 521.915,80.569 C518.79,78.401 514.165,75.69 510.165,70.569 ZM457.915,79.319 C454.79,76.983 450.665,73.905 447.665,70.69 C442.497,75.69 436.79,78.651 428.415,80.819 L427.915,80.69 C435.247,76.901 441.165,72.737 445.665,67.569 C442.329,62.405 439.915,55.905 438.415,48.69 C437.747,56.737 435.915,63.405 432.915,68.69 C429.915,72.737 425.329,76.819 419.165,80.319 L418.665,79.569 C424.829,74.905 428.915,70.362 430.915,65.944 C432.915,61.530 434.247,56.444 434.915,50.694 C435.579,44.944 435.997,38.238 436.165,30.570 C433.997,30.570 431.997,30.820 430.165,31.320 L427.915,29.70 L451.665,29.70 L454.165,26.570 L458.165,30.570 L455.165,32.70 C451.997,38.570 449.829,43.70 448.665,45.569 L454.665,45.569 L457.165,43.70 L460.665,46.569 L458.415,48.319 C456.247,55.819 453.415,62.237 449.915,67.569 C453.579,71.737 457.915,74.569 462.915,76.69 L462.915,76.819 C460.579,76.651 458.915,77.483 457.915,79.319 ZM454.915,47.69 L447.915,47.69 L446.665,49.69 L443.415,45.569 C444.747,45.237 446.204,43.405 447.790,40.70 C449.372,36.738 450.747,33.570 451.915,30.570 L439.415,30.570 C439.247,35.570 439.79,40.487 438.915,45.319 C441.415,54.319 444.329,60.819 447.665,64.819 C450.665,60.487 453.79,54.569 454.915,47.69 ZM426.665,35.70 L431.415,38.820 L428.915,39.820 C424.247,46.155 418.747,52.905 412.415,60.69 L428.915,57.319 L428.915,58.569 C418.247,61.237 411.998,63.405 410.165,65.69 L407.166,60.319 C408.830,59.987 410.580,58.780 412.415,56.694 C414.247,54.612 417.165,50.819 421.165,45.319 C418.997,45.655 416.747,46.69 414.415,46.569 C412.80,47.69 410.330,47.819 409.165,48.819 L406.416,44.319 C408.80,44.319 410.330,41.780 413.165,36.695 C415.997,31.613 417.829,27.238 418.665,23.570 L423.915,26.570 L421.665,28.70 C418.497,33.570 414.747,38.987 410.415,44.319 L421.915,44.69 C424.79,40.905 425.665,37.905 426.665,35.70 ZM384.166,72.319 C384.166,74.487 384.248,76.901 384.416,79.569 L380.416,81.69 C380.580,78.401 380.666,76.733 380.666,76.69 L380.666,50.319 L363.666,50.319 C363.498,58.155 362.41,64.237 359.291,68.569 C356.541,72.905 351.248,76.983 343.416,80.819 L342.666,80.69 C349.330,76.69 353.791,72.69 356.41,68.69 C358.291,64.69 359.666,58.155 360.166,50.319 L350.166,50.319 C347.998,50.319 345.998,50.569 344.166,51.69 L341.916,48.819 L360.166,48.819 L360.166,31.820 C352.998,32.988 348.80,33.656 345.416,33.820 L345.416,32.820 C350.748,31.988 355.916,30.781 360.916,29.195 C365.916,27.613 369.666,25.820 372.166,23.820 L375.916,28.820 C373.248,28.988 369.166,29.738 363.666,31.70 L363.666,48.819 L380.666,48.819 L380.666,29.320 C380.666,27.656 380.580,25.738 380.416,23.570 L386.416,26.70 L384.166,27.820 L384.166,48.819 L390.666,48.819 L394.416,45.69 L399.666,50.319 L384.166,50.319 L384.166,72.319 ZM288.541,74.194 C286.791,76.108 285.373,77.151 284.291,77.319 C283.205,77.483 282.666,77.483 282.666,77.319 C282.666,77.151 282.916,76.901 283.416,76.569 C284.416,75.733 285.373,74.737 286.291,73.569 C287.205,72.405 287.998,70.737 288.666,68.569 C287.166,68.569 286.80,68.319 285.416,67.819 C284.748,67.319 284.291,66.655 284.41,65.819 C283.791,64.987 283.748,64.194 283.916,63.444 C284.80,62.694 284.666,61.944 285.666,61.194 C286.666,60.444 287.916,60.237 289.416,60.569 C290.916,60.905 291.830,61.530 292.166,62.444 C292.498,63.362 292.666,64.237 292.666,65.69 C292.666,66.69 292.416,67.362 291.916,68.944 C291.416,70.530 290.291,72.280 288.541,74.194 ZM248.542,78.69 C243.624,77.901 239.624,77.194 236.542,75.944 C233.456,74.694 230.999,73.155 229.167,71.319 C227.331,69.655 225.999,68.737 225.167,68.569 C224.331,68.405 222.956,69.319 221.42,71.319 C219.124,73.319 217.749,74.905 216.917,76.69 L213.417,72.569 C216.81,70.405 219.499,68.487 223.667,66.819 L223.667,46.569 L221.917,46.569 C219.749,46.569 217.749,46.819 215.917,47.319 L213.667,45.69 L223.167,45.69 L224.917,42.320 L229.167,45.569 L226.917,47.319 L226.917,66.819 C228.417,68.487 230.499,70.69 233.167,71.569 C235.831,73.69 239.706,73.944 244.792,74.194 C249.874,74.444 254.706,74.487 259.292,74.319 C263.874,74.155 268.249,73.737 272.416,73.69 L272.416,74.69 C268.917,75.69 267.167,76.483 267.167,78.319 C259.667,78.319 253.456,78.233 248.542,78.69 ZM252.167,48.69 C250.831,48.69 248.917,49.819 246.417,53.319 C243.749,56.987 240.917,60.319 237.917,63.319 L260.167,62.319 C258.999,59.819 257.167,57.155 254.667,54.319 L255.417,53.819 C258.917,55.987 261.624,58.30 263.542,59.944 C265.456,61.862 266.292,63.612 266.42,65.194 C265.792,66.780 265.417,67.780 264.917,68.194 C264.417,68.612 263.999,68.819 263.667,68.819 C263.167,68.819 262.749,68.319 262.417,67.319 C261.917,65.987 261.417,64.737 260.917,63.569 C252.249,64.405 246.456,65.155 243.542,65.819 C240.624,66.487 238.417,67.319 236.917,68.319 L233.917,62.819 C235.581,62.487 237.167,61.405 238.667,59.569 C240.167,57.737 241.749,55.405 243.417,52.569 C245.81,49.737 246.249,47.155 246.917,44.819 L237.917,44.819 C236.581,44.819 234.999,45.69 233.167,45.569 L230.917,43.320 L261.917,43.320 L265.667,39.570 L270.417,44.819 L247.667,44.819 L252.167,48.69 ZM237.667,32.570 L235.417,30.320 L257.167,30.320 L260.667,27.70 L265.167,31.820 L242.167,31.820 C240.999,31.820 239.499,32.70 237.667,32.570 ZM225.417,36.820 C224.749,36.820 224.249,35.988 223.917,34.320 C223.417,31.988 221.831,29.156 219.167,25.820 L219.917,25.320 C223.249,26.988 225.499,28.406 226.667,29.570 C227.831,30.738 228.331,31.945 228.167,33.195 C227.999,34.445 227.581,35.363 226.917,35.945 C226.249,36.530 225.749,36.820 225.417,36.820 ZM200.417,51.819 L203.667,48.569 L208.417,53.319 L192.167,53.319 L192.167,74.69 C192.331,77.401 190.499,79.901 186.667,81.569 C186.667,79.569 183.917,77.733 178.417,76.69 L178.417,74.819 C183.81,75.651 185.917,75.944 186.917,75.694 C187.917,75.444 188.499,74.569 188.667,73.69 L188.667,53.319 L177.167,53.319 L174.917,53.819 L172.917,51.819 L188.667,51.819 C188.667,47.155 188.581,42.905 188.417,39.70 L191.417,40.820 L197.417,30.820 L181.667,30.820 L178.417,31.570 L176.167,29.320 L197.417,29.320 L199.667,26.820 L204.417,31.320 C202.417,31.656 200.417,32.781 198.417,34.695 C196.417,36.613 194.417,38.820 192.417,41.320 L194.167,42.320 L192.167,44.69 L192.167,51.819 L200.417,51.819 ZM167.667,65.69 C171.331,66.569 173.706,67.862 174.792,68.944 C175.874,70.30 176.249,71.194 175.917,72.444 C175.581,73.694 175.167,74.319 174.667,74.319 C173.999,74.319 173.249,73.819 172.417,72.819 C170.749,70.819 168.749,69.69 166.417,67.569 C163.81,72.569 157.667,76.901 150.167,80.569 L149.417,79.819 C156.81,75.651 160.831,71.69 163.667,66.69 C159.167,64.69 155.831,62.737 153.667,62.69 C155.831,55.237 157.667,47.737 159.167,39.570 L154.167,39.570 L151.667,40.70 L149.667,38.70 L159.417,38.70 C160.581,31.738 161.331,26.820 161.667,23.320 L167.167,26.70 L165.167,27.570 C164.499,30.406 163.749,33.906 162.917,38.70 L170.167,38.70 L171.917,35.820 L175.667,39.70 L173.667,40.570 C172.167,50.905 170.167,59.69 167.667,65.69 ZM162.667,39.570 C160.667,47.737 158.749,55.69 156.917,61.569 C158.749,62.69 161.331,62.819 164.667,63.819 C166.999,57.819 168.917,49.737 170.417,39.570 L162.667,39.570 ZM126.418,74.694 C120.918,77.776 114.832,79.901 108.168,81.69 L107.918,80.69 C114.582,78.401 120.375,75.858 125.293,72.444 C130.207,69.30 134.332,63.655 137.667,56.319 L124.918,56.319 C123.582,57.487 122.168,58.819 120.668,60.319 C123.500,62.487 125.82,64.30 125.418,64.944 C125.750,65.862 125.918,66.487 125.918,66.819 C125.918,67.655 125.668,68.362 125.168,68.944 C124.668,69.530 124.250,69.819 123.918,69.819 C123.418,69.819 123.0,68.987 122.668,67.319 C122.168,65.155 121.250,63.69 119.918,61.69 C117.750,62.905 115.168,64.569 112.168,66.69 L111.668,65.319 C115.332,62.819 118.375,59.905 120.793,56.569 C123.207,53.237 125.82,50.69 126.418,47.69 L130.668,50.569 L128.418,51.319 L125.668,54.819 L137.667,54.819 L139.917,52.569 L143.417,56.69 L140.917,57.819 C136.750,65.987 131.918,71.612 126.418,74.694 ZM128.418,45.569 C124.250,48.405 118.832,50.819 112.168,52.819 L111.918,51.819 C119.82,48.987 124.543,45.780 128.293,42.195 C132.43,38.613 134.582,35.488 135.917,32.820 L123.168,32.820 C122.0,34.320 121.0,35.488 120.168,36.320 C123.332,37.820 125.82,39.112 125.418,40.195 C125.750,41.280 125.668,42.155 125.168,42.820 C124.668,43.487 124.332,43.819 124.168,43.819 C123.668,43.819 123.168,43.155 122.668,41.820 C121.832,39.987 120.750,38.405 119.418,37.70 C117.82,39.70 115.82,40.570 113.418,41.570 L113.168,40.820 C116.168,38.155 118.500,35.238 120.168,32.70 C121.832,28.906 123.82,26.70 123.918,23.570 L128.168,26.570 L126.168,27.570 L123.918,31.320 L135.917,31.320 L138.167,29.70 L141.667,32.570 L139.417,33.820 C136.250,38.820 132.582,42.737 128.418,45.569 ZM110.168,68.444 C109.668,71.362 108.832,73.405 107.668,74.569 C106.500,75.733 104.832,76.819 102.668,77.819 C102.500,75.319 100.0,73.487 95.168,72.319 L95.168,71.319 C99.832,71.987 102.875,72.194 104.293,71.944 C105.707,71.694 106.625,70.69 107.43,67.69 C107.457,64.69 107.668,53.569 107.668,35.570 L94.668,35.570 C92.168,40.570 89.250,45.69 85.918,49.69 L85.168,48.569 C88.168,43.405 90.457,38.530 92.43,33.945 C93.625,29.363 94.668,25.656 95.168,22.820 L100.418,25.570 L98.418,27.70 L95.168,34.70 L107.418,34.70 L109.668,31.820 L112.668,34.820 L110.918,36.70 C110.918,54.737 110.668,65.530 110.168,68.444 ZM50.668,39.70 L54.918,41.570 L52.668,43.320 L52.668,67.319 C52.668,72.319 52.750,76.151 52.918,78.819 L48.668,80.569 C48.832,74.237 48.918,68.737 48.918,64.69 L48.918,42.70 C42.250,52.237 33.582,60.405 22.918,66.569 L22.418,65.569 C27.918,61.569 33.207,56.530 38.293,50.444 C43.375,44.362 47.500,37.238 50.668,29.70 L31.168,29.70 C29.0,29.70 27.0,29.320 25.168,29.820 L22.918,27.570 L70.418,27.570 L74.168,23.820 L79.418,29.70 L55.668,29.70 C54.168,31.906 52.500,35.238 50.668,39.70 ZM76.293,56.319 C77.375,57.987 77.918,59.319 77.918,60.319 C77.918,60.987 77.668,61.780 77.168,62.694 C76.668,63.612 76.250,64.69 75.918,64.69 C75.250,64.69 74.250,62.737 72.918,60.69 C70.918,56.569 65.918,51.237 57.918,44.69 L58.668,43.320 C69.332,50.319 75.207,54.655 76.293,56.319 ZM94.918,43.320 L99.668,43.320 L101.418,41.320 L104.918,44.319 L103.168,45.569 L103.168,56.69 C103.168,57.405 103.250,59.319 103.418,61.819 L100.168,63.569 L100.168,60.319 L94.918,60.319 L94.918,65.569 L91.668,66.819 C91.832,62.819 91.918,58.444 91.918,53.694 C91.918,48.944 91.832,44.987 91.668,41.820 L94.918,43.320 ZM94.918,58.819 L100.168,58.819 L100.168,44.819 L94.918,44.819 L94.918,58.819 ZM428.665,67.319 C421.665,70.319 416.955,72.444 414.540,73.694 C412.123,74.944 410.415,76.151 409.415,77.319 L406.416,72.569 C410.915,71.737 418.329,69.655 428.665,66.319 L428.665,67.319 ZM558.164,66.569 C559.328,67.905 559.914,69.69 559.914,70.69 C559.914,70.905 559.621,71.737 559.39,72.569 C558.453,73.405 557.996,73.819 557.664,73.819 C557.328,73.819 556.996,73.237 556.664,72.69 C555.996,70.405 554.996,68.655 553.664,66.819 C552.328,64.987 550.746,63.237 548.914,61.569 L549.414,60.819 C554.78,63.319 556.996,65.237 558.164,66.569 Z"/>
    <path fill-rule="evenodd" stroke="rgb(228, 255, 0)" stroke-width="2px" stroke-linecap="square"
          stroke-linejoin="bevel" fill="rgb(228, 255, 0)"
          d="M583.664,38.820 C582.164,49.655 579.664,58.319 576.164,64.819 C580.664,71.155 585.828,75.69 591.664,76.569 L591.664,77.569 C589.164,77.733 587.414,78.651 586.414,80.319 C581.578,77.151 577.578,72.905 574.414,67.569 C569.578,73.737 562.914,78.401 554.414,81.569 L554.164,80.569 C562.496,76.233 568.664,70.987 572.664,64.819 C569.664,58.487 567.746,50.569 566.914,41.70 C564.578,45.737 561.914,49.655 558.914,52.819 L558.164,52.319 C560.828,48.319 563.78,43.569 564.914,38.70 C566.746,32.570 568.78,27.320 568.914,22.320 L574.664,25.320 C573.328,26.156 572.371,27.156 571.789,28.320 C571.203,29.488 570.78,32.488 568.414,37.320 L584.664,37.320 L587.664,34.320 L591.914,38.820 L583.664,38.820 ZM567.914,38.820 C569.578,49.319 571.746,56.905 574.414,61.569 C577.246,54.905 579.164,47.319 580.164,38.820 L567.914,38.820 ZM557.664,50.569 C557.664,52.737 557.746,55.405 557.914,58.569 L554.414,61.819 L554.414,29.820 L540.665,29.820 L540.665,62.69 L536.915,64.319 C537.79,59.155 537.165,52.362 537.165,43.944 C537.165,35.530 537.79,29.738 536.915,26.570 L540.665,28.320 L554.164,28.320 L556.414,25.820 L560.164,29.320 L557.664,30.820 L557.664,50.569 ZM545.914,47.694 C546.78,41.445 546.78,36.820 545.914,33.820 L551.414,36.70 L549.414,37.820 C549.414,49.655 548.496,58.444 546.664,64.194 C544.828,69.944 540.579,75.233 533.915,80.69 L533.415,79.69 C538.415,74.237 541.704,69.362 543.290,64.444 C544.871,59.530 545.746,53.944 545.914,47.694 ZM510.165,70.569 C506.165,66.69 503.79,60.319 500.915,53.319 L499.165,53.319 C497.329,60.987 494.204,66.905 489.790,71.69 C485.372,75.233 479.247,78.569 471.415,81.69 L470.915,80.319 C477.579,77.483 482.829,74.155 486.665,70.319 C490.497,66.487 493.415,60.819 495.415,53.319 L479.915,53.319 C477.747,53.319 475.747,53.569 473.915,54.69 L471.665,51.819 L495.665,51.819 C496.329,47.487 496.747,43.237 496.915,39.70 L483.415,39.70 C481.79,43.569 478.747,47.155 476.415,49.819 L475.665,49.319 C479.329,42.487 481.579,35.488 482.415,28.320 L488.165,31.320 C486.665,31.988 485.247,34.70 483.915,37.570 L496.915,37.570 L496.915,29.570 C496.915,27.570 496.829,25.320 496.665,22.820 L503.165,25.820 L500.665,27.570 L500.665,37.570 L512.665,37.570 L516.165,34.70 L521.165,39.70 L500.665,39.70 C500.329,43.905 499.915,48.155 499.415,51.819 L517.165,51.819 L521.165,47.819 L526.665,53.319 L502.165,53.319 C505.665,60.819 509.829,66.362 514.665,69.944 C519.497,73.530 523.829,75.569 527.665,76.69 L527.665,77.69 C524.497,77.569 522.579,78.733 521.915,80.569 C518.79,78.401 514.165,75.69 510.165,70.569 ZM457.915,79.319 C454.79,76.983 450.665,73.905 447.665,70.69 C442.497,75.69 436.79,78.651 428.415,80.819 L427.915,80.69 C435.247,76.901 441.165,72.737 445.665,67.569 C442.329,62.405 439.915,55.905 438.415,48.69 C437.747,56.737 435.915,63.405 432.915,68.69 C429.915,72.737 425.329,76.819 419.165,80.319 L418.665,79.569 C424.829,74.905 428.915,70.362 430.915,65.944 C432.915,61.530 434.247,56.444 434.915,50.694 C435.579,44.944 435.997,38.238 436.165,30.570 C433.997,30.570 431.997,30.820 430.165,31.320 L427.915,29.70 L451.665,29.70 L454.165,26.570 L458.165,30.570 L455.165,32.70 C451.997,38.570 449.829,43.70 448.665,45.569 L454.665,45.569 L457.165,43.70 L460.665,46.569 L458.415,48.319 C456.247,55.819 453.415,62.237 449.915,67.569 C453.579,71.737 457.915,74.569 462.915,76.69 L462.915,76.819 C460.579,76.651 458.915,77.483 457.915,79.319 ZM454.915,47.69 L447.915,47.69 L446.665,49.69 L443.415,45.569 C444.747,45.237 446.204,43.405 447.790,40.70 C449.372,36.738 450.747,33.570 451.915,30.570 L439.415,30.570 C439.247,35.570 439.79,40.487 438.915,45.319 C441.415,54.319 444.329,60.819 447.665,64.819 C450.665,60.487 453.79,54.569 454.915,47.69 ZM426.665,35.70 L431.415,38.820 L428.915,39.820 C424.247,46.155 418.747,52.905 412.415,60.69 L428.915,57.319 L428.915,58.569 C418.247,61.237 411.998,63.405 410.165,65.69 L407.166,60.319 C408.830,59.987 410.580,58.780 412.415,56.694 C414.247,54.612 417.165,50.819 421.165,45.319 C418.997,45.655 416.747,46.69 414.415,46.569 C412.80,47.69 410.330,47.819 409.165,48.819 L406.416,44.319 C408.80,44.319 410.330,41.780 413.165,36.695 C415.997,31.613 417.829,27.238 418.665,23.570 L423.915,26.570 L421.665,28.70 C418.497,33.570 414.747,38.987 410.415,44.319 L421.915,44.69 C424.79,40.905 425.665,37.905 426.665,35.70 ZM384.166,72.319 C384.166,74.487 384.248,76.901 384.416,79.569 L380.416,81.69 C380.580,78.401 380.666,76.733 380.666,76.69 L380.666,50.319 L363.666,50.319 C363.498,58.155 362.41,64.237 359.291,68.569 C356.541,72.905 351.248,76.983 343.416,80.819 L342.666,80.69 C349.330,76.69 353.791,72.69 356.41,68.69 C358.291,64.69 359.666,58.155 360.166,50.319 L350.166,50.319 C347.998,50.319 345.998,50.569 344.166,51.69 L341.916,48.819 L360.166,48.819 L360.166,31.820 C352.998,32.988 348.80,33.656 345.416,33.820 L345.416,32.820 C350.748,31.988 355.916,30.781 360.916,29.195 C365.916,27.613 369.666,25.820 372.166,23.820 L375.916,28.820 C373.248,28.988 369.166,29.738 363.666,31.70 L363.666,48.819 L380.666,48.819 L380.666,29.320 C380.666,27.656 380.580,25.738 380.416,23.570 L386.416,26.70 L384.166,27.820 L384.166,48.819 L390.666,48.819 L394.416,45.69 L399.666,50.319 L384.166,50.319 L384.166,72.319 ZM288.541,74.194 C286.791,76.108 285.373,77.151 284.291,77.319 C283.205,77.483 282.666,77.483 282.666,77.319 C282.666,77.151 282.916,76.901 283.416,76.569 C284.416,75.733 285.373,74.737 286.291,73.569 C287.205,72.405 287.998,70.737 288.666,68.569 C287.166,68.569 286.80,68.319 285.416,67.819 C284.748,67.319 284.291,66.655 284.41,65.819 C283.791,64.987 283.748,64.194 283.916,63.444 C284.80,62.694 284.666,61.944 285.666,61.194 C286.666,60.444 287.916,60.237 289.416,60.569 C290.916,60.905 291.830,61.530 292.166,62.444 C292.498,63.362 292.666,64.237 292.666,65.69 C292.666,66.69 292.416,67.362 291.916,68.944 C291.416,70.530 290.291,72.280 288.541,74.194 ZM248.542,78.69 C243.624,77.901 239.624,77.194 236.542,75.944 C233.456,74.694 230.999,73.155 229.167,71.319 C227.331,69.655 225.999,68.737 225.167,68.569 C224.331,68.405 222.956,69.319 221.42,71.319 C219.124,73.319 217.749,74.905 216.917,76.69 L213.417,72.569 C216.81,70.405 219.499,68.487 223.667,66.819 L223.667,46.569 L221.917,46.569 C219.749,46.569 217.749,46.819 215.917,47.319 L213.667,45.69 L223.167,45.69 L224.917,42.320 L229.167,45.569 L226.917,47.319 L226.917,66.819 C228.417,68.487 230.499,70.69 233.167,71.569 C235.831,73.69 239.706,73.944 244.792,74.194 C249.874,74.444 254.706,74.487 259.292,74.319 C263.874,74.155 268.249,73.737 272.416,73.69 L272.416,74.69 C268.917,75.69 267.167,76.483 267.167,78.319 C259.667,78.319 253.456,78.233 248.542,78.69 ZM252.167,48.69 C250.831,48.69 248.917,49.819 246.417,53.319 C243.749,56.987 240.917,60.319 237.917,63.319 L260.167,62.319 C258.999,59.819 257.167,57.155 254.667,54.319 L255.417,53.819 C258.917,55.987 261.624,58.30 263.542,59.944 C265.456,61.862 266.292,63.612 266.42,65.194 C265.792,66.780 265.417,67.780 264.917,68.194 C264.417,68.612 263.999,68.819 263.667,68.819 C263.167,68.819 262.749,68.319 262.417,67.319 C261.917,65.987 261.417,64.737 260.917,63.569 C252.249,64.405 246.456,65.155 243.542,65.819 C240.624,66.487 238.417,67.319 236.917,68.319 L233.917,62.819 C235.581,62.487 237.167,61.405 238.667,59.569 C240.167,57.737 241.749,55.405 243.417,52.569 C245.81,49.737 246.249,47.155 246.917,44.819 L237.917,44.819 C236.581,44.819 234.999,45.69 233.167,45.569 L230.917,43.320 L261.917,43.320 L265.667,39.570 L270.417,44.819 L247.667,44.819 L252.167,48.69 ZM237.667,32.570 L235.417,30.320 L257.167,30.320 L260.667,27.70 L265.167,31.820 L242.167,31.820 C240.999,31.820 239.499,32.70 237.667,32.570 ZM225.417,36.820 C224.749,36.820 224.249,35.988 223.917,34.320 C223.417,31.988 221.831,29.156 219.167,25.820 L219.917,25.320 C223.249,26.988 225.499,28.406 226.667,29.570 C227.831,30.738 228.331,31.945 228.167,33.195 C227.999,34.445 227.581,35.363 226.917,35.945 C226.249,36.530 225.749,36.820 225.417,36.820 ZM200.417,51.819 L203.667,48.569 L208.417,53.319 L192.167,53.319 L192.167,74.69 C192.331,77.401 190.499,79.901 186.667,81.569 C186.667,79.569 183.917,77.733 178.417,76.69 L178.417,74.819 C183.81,75.651 185.917,75.944 186.917,75.694 C187.917,75.444 188.499,74.569 188.667,73.69 L188.667,53.319 L177.167,53.319 L174.917,53.819 L172.917,51.819 L188.667,51.819 C188.667,47.155 188.581,42.905 188.417,39.70 L191.417,40.820 L197.417,30.820 L181.667,30.820 L178.417,31.570 L176.167,29.320 L197.417,29.320 L199.667,26.820 L204.417,31.320 C202.417,31.656 200.417,32.781 198.417,34.695 C196.417,36.613 194.417,38.820 192.417,41.320 L194.167,42.320 L192.167,44.69 L192.167,51.819 L200.417,51.819 ZM167.667,65.69 C171.331,66.569 173.706,67.862 174.792,68.944 C175.874,70.30 176.249,71.194 175.917,72.444 C175.581,73.694 175.167,74.319 174.667,74.319 C173.999,74.319 173.249,73.819 172.417,72.819 C170.749,70.819 168.749,69.69 166.417,67.569 C163.81,72.569 157.667,76.901 150.167,80.569 L149.417,79.819 C156.81,75.651 160.831,71.69 163.667,66.69 C159.167,64.69 155.831,62.737 153.667,62.69 C155.831,55.237 157.667,47.737 159.167,39.570 L154.167,39.570 L151.667,40.70 L149.667,38.70 L159.417,38.70 C160.581,31.738 161.331,26.820 161.667,23.320 L167.167,26.70 L165.167,27.570 C164.499,30.406 163.749,33.906 162.917,38.70 L170.167,38.70 L171.917,35.820 L175.667,39.70 L173.667,40.570 C172.167,50.905 170.167,59.69 167.667,65.69 ZM162.667,39.570 C160.667,47.737 158.749,55.69 156.917,61.569 C158.749,62.69 161.331,62.819 164.667,63.819 C166.999,57.819 168.917,49.737 170.417,39.570 L162.667,39.570 ZM126.418,74.694 C120.918,77.776 114.832,79.901 108.168,81.69 L107.918,80.69 C114.582,78.401 120.375,75.858 125.293,72.444 C130.207,69.30 134.332,63.655 137.667,56.319 L124.918,56.319 C123.582,57.487 122.168,58.819 120.668,60.319 C123.500,62.487 125.82,64.30 125.418,64.944 C125.750,65.862 125.918,66.487 125.918,66.819 C125.918,67.655 125.668,68.362 125.168,68.944 C124.668,69.530 124.250,69.819 123.918,69.819 C123.418,69.819 123.0,68.987 122.668,67.319 C122.168,65.155 121.250,63.69 119.918,61.69 C117.750,62.905 115.168,64.569 112.168,66.69 L111.668,65.319 C115.332,62.819 118.375,59.905 120.793,56.569 C123.207,53.237 125.82,50.69 126.418,47.69 L130.668,50.569 L128.418,51.319 L125.668,54.819 L137.667,54.819 L139.917,52.569 L143.417,56.69 L140.917,57.819 C136.750,65.987 131.918,71.612 126.418,74.694 ZM128.418,45.569 C124.250,48.405 118.832,50.819 112.168,52.819 L111.918,51.819 C119.82,48.987 124.543,45.780 128.293,42.195 C132.43,38.613 134.582,35.488 135.917,32.820 L123.168,32.820 C122.0,34.320 121.0,35.488 120.168,36.320 C123.332,37.820 125.82,39.112 125.418,40.195 C125.750,41.280 125.668,42.155 125.168,42.820 C124.668,43.487 124.332,43.819 124.168,43.819 C123.668,43.819 123.168,43.155 122.668,41.820 C121.832,39.987 120.750,38.405 119.418,37.70 C117.82,39.70 115.82,40.570 113.418,41.570 L113.168,40.820 C116.168,38.155 118.500,35.238 120.168,32.70 C121.832,28.906 123.82,26.70 123.918,23.570 L128.168,26.570 L126.168,27.570 L123.918,31.320 L135.917,31.320 L138.167,29.70 L141.667,32.570 L139.417,33.820 C136.250,38.820 132.582,42.737 128.418,45.569 ZM110.168,68.444 C109.668,71.362 108.832,73.405 107.668,74.569 C106.500,75.733 104.832,76.819 102.668,77.819 C102.500,75.319 100.0,73.487 95.168,72.319 L95.168,71.319 C99.832,71.987 102.875,72.194 104.293,71.944 C105.707,71.694 106.625,70.69 107.43,67.69 C107.457,64.69 107.668,53.569 107.668,35.570 L94.668,35.570 C92.168,40.570 89.250,45.69 85.918,49.69 L85.168,48.569 C88.168,43.405 90.457,38.530 92.43,33.945 C93.625,29.363 94.668,25.656 95.168,22.820 L100.418,25.570 L98.418,27.70 L95.168,34.70 L107.418,34.70 L109.668,31.820 L112.668,34.820 L110.918,36.70 C110.918,54.737 110.668,65.530 110.168,68.444 ZM50.668,39.70 L54.918,41.570 L52.668,43.320 L52.668,67.319 C52.668,72.319 52.750,76.151 52.918,78.819 L48.668,80.569 C48.832,74.237 48.918,68.737 48.918,64.69 L48.918,42.70 C42.250,52.237 33.582,60.405 22.918,66.569 L22.418,65.569 C27.918,61.569 33.207,56.530 38.293,50.444 C43.375,44.362 47.500,37.238 50.668,29.70 L31.168,29.70 C29.0,29.70 27.0,29.320 25.168,29.820 L22.918,27.570 L70.418,27.570 L74.168,23.820 L79.418,29.70 L55.668,29.70 C54.168,31.906 52.500,35.238 50.668,39.70 ZM76.293,56.319 C77.375,57.987 77.918,59.319 77.918,60.319 C77.918,60.987 77.668,61.780 77.168,62.694 C76.668,63.612 76.250,64.69 75.918,64.69 C75.250,64.69 74.250,62.737 72.918,60.69 C70.918,56.569 65.918,51.237 57.918,44.69 L58.668,43.320 C69.332,50.319 75.207,54.655 76.293,56.319 ZM94.918,43.320 L99.668,43.320 L101.418,41.320 L104.918,44.319 L103.168,45.569 L103.168,56.69 C103.168,57.405 103.250,59.319 103.418,61.819 L100.168,63.569 L100.168,60.319 L94.918,60.319 L94.918,65.569 L91.668,66.819 C91.832,62.819 91.918,58.444 91.918,53.694 C91.918,48.944 91.832,44.987 91.668,41.820 L94.918,43.320 ZM94.918,58.819 L100.168,58.819 L100.168,44.819 L94.918,44.819 L94.918,58.819 ZM428.665,67.319 C421.665,70.319 416.955,72.444 414.540,73.694 C412.123,74.944 410.415,76.151 409.415,77.319 L406.416,72.569 C410.915,71.737 418.329,69.655 428.665,66.319 L428.665,67.319 ZM558.164,66.569 C559.328,67.905 559.914,69.69 559.914,70.69 C559.914,70.905 559.621,71.737 559.39,72.569 C558.453,73.405 557.996,73.819 557.664,73.819 C557.328,73.819 556.996,73.237 556.664,72.69 C555.996,70.405 554.996,68.655 553.664,66.819 C552.328,64.987 550.746,63.237 548.914,61.569 L549.414,60.819 C554.78,63.319 556.996,65.237 558.164,66.569 Z"/>
</svg>