<svg
        xmlns:xlink="http://www.w3.org/1999/xlink"
        xmlns="http://www.w3.org/2000/svg"
        width="598.5px" height="139.5px">
    <path fill-rule="evenodd" fill="rgb(255, 255, 255)"
          d="M15.999,0.0 C15.999,0.0 7.23,0.47 49.249,0.122 C59.972,0.141 68.676,19.162 81.166,19.184 C244.394,19.473 580.999,19.999 580.999,19.999 C589.836,19.999 596.999,27.163 596.999,35.999 L596.999,121.999 C596.999,130.836 589.836,137.999 580.999,137.999 L15.999,137.999 C7.163,137.999 0.0,130.836 0.0,121.999 L0.0,15.999 C0.0,7.163 7.163,0.0 15.999,0.0 Z"/>
    <path fill-rule="evenodd" fill="rgb(68, 138, 202)"
          d="M73.153,19.215 C73.486,19.216 73.468,19.216 73.150,19.217 C63.642,22.940 61.841,37.392 52.499,37.408 C10.273,37.483 4.249,37.531 4.249,37.531 L4.249,16.31 C4.247,8.934 9.769,4.197 15.369,4.207 C21.233,4.218 38.483,3.925 47.999,3.999 C57.333,4.16 59.625,14.593 69.122,18.333 C71.908,19.376 70.775,19.216 73.153,19.215 Z"/>
    <path fill-rule="evenodd" opacity="0.122" fill="rgb(0, 0, 0)"
          d="M21.515,45.999 L421.515,45.999 C428.143,45.999 433.515,51.372 433.515,57.999 L433.515,116.999 C433.515,123.627 428.143,128.999 421.515,128.999 L21.515,128.999 C14.888,128.999 9.515,123.627 9.515,116.999 L9.515,57.999 C9.515,51.372 14.888,45.999 21.515,45.999 Z"/>
    <path fill-rule="evenodd" stroke="rgb(68, 138, 202)" stroke-width="3px" stroke-linecap="butt"
          stroke-linejoin="miter" fill="rgb(255, 255, 255)"
          d="M21.524,8.999 L42.637,8.999 C45.136,8.999 47.161,11.25 47.161,13.524 L47.161,31.809 L16.999,31.809 L16.999,13.524 C16.999,11.25 19.25,8.999 21.524,8.999 Z"/>
    <path fill-rule="evenodd" stroke="rgb(68, 138, 202)" stroke-width="2px" stroke-linecap="butt"
          stroke-linejoin="miter" fill="none"
          d="M17.376,20.499 L46.596,20.499 L17.376,20.499 Z"/>
    <path fill-rule="evenodd" stroke="rgb(68, 138, 202)" stroke-width="2px" stroke-linecap="butt"
          stroke-linejoin="miter" fill="rgb(255, 255, 255)"
          d="M28.989,16.728 L34.795,16.728 C35.482,16.728 36.39,17.398 36.39,18.224 L36.39,24.269 L27.745,24.269 L27.745,18.224 C27.745,17.398 28.302,16.728 28.989,16.728 Z"/>
    <path fill-rule="evenodd" stroke="rgb(68, 138, 202)" stroke-width="2px" stroke-linecap="butt"
          stroke-linejoin="miter" fill="none"
          d="M24.32,10.131 L24.32,31.244 L24.32,10.131 Z"/>
    <path fill-rule="evenodd" stroke="rgb(68, 138, 202)" stroke-width="2px" stroke-linecap="butt"
          stroke-linejoin="miter" fill="none"
          d="M40.506,10.131 L40.506,31.244 L40.506,10.131 Z"/>
    <path fill-rule="evenodd" fill="rgb(249, 218, 91)"
          d="M532.515,45.999 L574.515,45.999 C581.143,45.999 586.515,51.372 586.515,58.0 L586.515,115.999 C586.515,122.627 581.143,127.999 574.515,127.999 L532.515,127.999 C525.888,127.999 520.515,122.627 520.515,115.999 L520.515,58.0 C520.515,51.372 525.888,45.999 532.515,45.999 Z"/>
    <path fill-rule="evenodd" stroke="rgb(255, 255, 255)" stroke-width="0.64px" stroke-linecap="butt"
          stroke-linejoin="miter" fill="none"
          d="M530.999,89.999 L576.999,89.999 L530.999,89.999 Z"/>
    <path fill-rule="evenodd" stroke="rgb(255, 255, 255)" stroke-width="2.4px" stroke-linecap="butt"
          stroke-linejoin="miter" fill="rgb(255, 255, 255)"
          d="M554.0,55.200 C561.69,55.200 566.800,60.930 566.800,68.0 C566.800,75.69 561.69,80.799 554.0,80.799 C546.930,80.799 541.199,75.69 541.199,68.0 C541.199,60.930 546.930,55.200 554.0,55.200 Z"/>
    <path fill-rule="evenodd" fill="rgb(249, 218, 91)"
          d="M555.414,62.3 L560.409,66.999 C561.190,67.780 561.190,69.46 560.409,69.827 L555.414,74.823 C554.633,75.604 553.366,75.604 552.585,74.823 L547.590,69.827 C546.809,69.46 546.809,67.780 547.590,66.999 L552.585,62.3 C553.366,61.222 554.633,61.222 555.414,62.3 Z"/>
    <path fill-rule="evenodd" fill="rgb(130, 87, 238)"
          d="M456.515,46.0 L498.515,46.0 C505.143,46.0 510.515,51.372 510.515,57.999 L510.515,116.0 C510.515,122.627 505.143,127.999 498.515,127.999 L456.515,127.999 C449.888,127.999 444.515,122.627 444.515,116.0 L444.515,57.999 C444.515,51.372 449.888,46.0 456.515,46.0 Z"/>
    <path fill-rule="evenodd" stroke="rgb(255, 255, 255)" stroke-width="0.64px" stroke-linecap="butt"
          stroke-linejoin="miter" fill="none"
          d="M454.999,90.0 L501.0,90.0 L454.999,90.0 Z"/>
    <path fill-rule="evenodd" fill="rgb(255, 255, 255)"
          d="M461.257,58.536 L494.777,58.536 C494.777,58.536 494.777,60.0 494.777,62.248 C494.777,64.179 491.777,66.788 491.777,69.231 C491.777,72.87 494.777,75.87 494.777,77.73 C494.777,78.707 494.777,79.525 494.777,79.525 L461.257,79.525 C461.257,79.525 461.257,78.483 461.257,76.761 C461.257,74.701 463.737,72.247 463.737,69.348 C463.737,67.184 461.257,64.486 461.257,62.716 C461.257,60.258 461.257,58.536 461.257,58.536 Z"/>
    <path fill-rule="evenodd" stroke="rgb(130, 87, 238)" stroke-width="2.4px" stroke-linecap="butt"
          stroke-linejoin="miter" fill="none"
          d="M488.350,64.391 L468.270,64.391 L488.350,64.391 Z"/>
</svg>