<svg
        xmlns="http://www.w3.org/2000/svg"
        width="600px" height="600px">
    <path fill-rule="evenodd" fill="rgb(255,255,255)"
          d="M469.345,285.284 C489.23,281.357 483.603,252.581 463.873,255.554 C463.873,255.554 443.806,259.64 443.806,259.64 C441.816,251.967 439.304,245.27 436.291,238.300 C447.236,231.438 468.887,224.497 459.740,207.361 C449.539,190.828 432.608,206.104 421.201,212.111 C416.894,206.138 412.154,200.489 407.20,195.212 C414.956,185.11 432.994,171.49 418.518,158.66 C403.267,146.5 392.557,166.223 383.883,175.768 C377.806,171.619 371.435,167.920 364.819,164.699 C368.786,152.396 380.971,133.98 362.929,125.849 C344.495,119.746 341.340,142.330 336.461,154.267 C329.325,152.435 322.62,151.137 314.735,150.381 C314.268,137.467 319.87,115.238 299.682,114.598 C280.275,115.179 285.26,137.463 284.523,150.352 C277.266,151.74 269.856,152.367 262.784,154.155 C257.928,142.182 254.854,119.626 236.399,125.668 C218.362,132.846 230.439,152.159 234.373,164.439 C227.736,167.637 221.347,171.323 215.257,175.469 C206.599,165.879 196.0,145.728 180.720,157.725 C166.206,170.656 184.226,184.707 192.118,194.909 C186.988,200.184 182.249,205.829 177.940,211.795 C166.518,205.750 149.621,190.378 139.358,206.903 C130.140,224.21 151.870,231.53 162.773,237.940 C159.731,244.647 157.188,251.570 155.163,258.652 C142.370,256.874 121.298,248.249 117.301,267.268 C114.497,286.486 137.253,285.679 149.850,288.409 C149.274,296.74 149.293,303.769 149.904,311.431 C137.717,313.896 116.807,313.460 118.203,331.363 C121.340,351.86 142.278,343.162 155.287,341.176 C157.345,348.353 159.938,355.363 163.45,362.150 C152.104,368.906 131.214,375.804 140.222,392.728 C150.834,409.214 166.676,394.263 178.356,388.210 C182.735,394.185 187.552,399.825 192.765,405.88 L179.612,420.725 C170.423,430.975 180.368,448.120 193.781,445.345 C201.818,444.911 210.986,429.275 216.63,424.332 C222.172,428.422 228.568,432.62 235.204,435.220 L228.30,454.854 C223.142,467.50 236.896,479.601 248.585,473.755 C257.196,470.846 260.310,452.413 263.659,445.386 C270.748,447.137 277.954,448.366 285.222,449.61 C285.603,463.217 280.696,487.285 302.919,485.266 C319.883,482.491 314.673,460.794 315.438,448.860 C322.588,448.99 329.880,446.780 336.828,444.983 C341.908,457.104 344.691,480.530 363.561,474.422 C381.896,467.348 369.24,446.786 365.182,434.538 C371.672,431.369 377.924,427.729 383.887,423.649 C389.585,429.135 398.949,446.62 408.206,445.830 C421.182,447.358 429.866,430.886 421.131,421.72 C421.131,421.72 406.977,404.147 406.977,404.147 C411.986,398.971 416.618,393.446 420.839,387.609 C427.489,390.553 442.251,402.851 450.125,400.499 C463.678,398.554 467.223,379.49 455.99,372.530 C455.100,372.530 436.20,361.474 436.20,361.474 C439.1,354.907 441.504,348.134 443.511,341.207 C456.621,342.753 478.293,352.474 482.658,332.819 C485.708,313.393 461.466,314.266 448.943,311.472 C449.538,303.941 449.559,296.377 449.7,288.842 L469.345,285.284 ZM358.499,316.487 C369.604,283.534 347.390,245.552 314.650,238.81 L314.768,180.819 C389.854,187.741 441.999,276.612 409.707,346.209 L358.499,316.487 ZM293.673,266.805 C333.610,259.849 345.902,320.32 306.363,329.309 C264.136,338.82 251.529,275.91 293.673,266.805 ZM284.553,180.774 L284.436,237.886 C250.281,245.919 229.99,282.626 239.825,316.496 L188.894,345.775 C158.378,274.848 206.686,189.343 284.553,180.774 ZM203.970,371.970 L255.497,342.349 C277.658,365.728 319.971,366.436 342.844,342.347 L394.539,372.353 C357.740,424.952 272.10,434.959 224.125,392.745 C224.125,392.745 216.329,388.317 203.970,371.970 Z"/>
</svg>