<svg
        xmlns:xlink="http://www.w3.org/1999/xlink"
        xmlns="http://www.w3.org/2000/svg"
        width="818px" height="179px">
    <path fill-rule="evenodd" stroke="rgb(255, 255, 255)" stroke-width="22px" stroke-linecap="square"
          stroke-linejoin="round" fill="rgb(255, 255, 255)"
          d="M782.935,37.536 C782.99,58.36 781.17,69.997 779.685,73.411 C778.349,76.825 775.267,79.36 770.435,80.36 C770.767,77.536 768.517,75.450 763.685,73.786 L763.935,72.786 C768.267,73.786 771.185,74.286 772.685,74.286 C774.185,74.286 775.435,73.161 776.435,70.911 C777.435,68.661 778.435,57.286 779.435,36.786 L774.685,36.786 C773.17,48.454 769.935,57.411 765.435,63.661 C760.935,69.911 755.267,74.868 748.435,78.536 L747.935,77.786 C754.435,73.122 759.517,67.704 763.185,61.536 C766.849,55.372 769.435,47.122 770.935,36.786 L765.685,36.786 C762.849,48.286 756.935,57.704 747.935,65.36 L747.435,64.286 C755.267,55.454 760.99,46.286 761.935,36.786 L757.435,36.786 C754.267,42.286 751.349,46.454 748.685,49.286 L747.935,48.786 C750.935,43.954 753.310,39.79 755.60,34.161 C756.810,29.247 757.849,25.372 758.185,22.536 L763.685,25.536 L761.685,26.786 C760.517,29.454 759.267,32.286 757.935,35.286 L778.935,35.286 L780.685,32.786 L784.685,36.36 L782.935,37.536 ZM743.185,54.286 L750.935,51.36 L751.185,52.36 L743.185,56.536 C743.185,67.372 743.267,74.868 743.435,79.36 L739.685,80.786 C739.849,77.286 739.935,69.704 739.935,58.36 C734.100,60.704 730.850,62.786 730.185,64.286 L727.435,60.36 C730.267,59.372 734.435,57.872 739.935,55.536 L739.935,40.536 L733.435,40.536 C731.600,44.536 729.518,48.204 727.185,51.536 L726.435,51.36 C728.268,47.204 729.725,43.36 730.810,38.536 C731.892,34.36 732.435,30.622 732.435,28.286 L738.185,31.36 L735.935,32.536 C735.267,34.372 734.517,36.536 733.685,39.36 L739.935,39.36 C739.935,31.36 739.849,25.622 739.685,22.786 L745.435,25.286 L743.185,27.36 L743.185,39.36 L744.935,39.36 L747.685,36.36 L751.685,40.536 L743.185,40.536 L743.185,54.286 ZM717.436,73.36 C717.600,77.200 715.768,79.868 711.936,81.36 C711.600,78.536 708.850,76.700 703.686,75.536 L703.686,74.286 C706.186,74.622 708.518,74.786 710.686,74.786 C711.850,74.786 712.768,74.661 713.436,74.411 C714.100,74.161 714.350,72.954 714.186,70.786 L714.186,31.536 C714.186,29.36 714.100,26.204 713.936,23.36 L719.436,25.536 L717.436,27.286 L717.436,73.36 ZM705.436,59.36 C705.436,60.704 705.518,62.954 705.686,65.786 L701.936,67.286 C702.100,61.786 702.186,55.579 702.186,48.661 C702.186,41.747 702.100,35.872 701.936,31.36 L707.686,34.36 L705.436,35.786 L705.436,59.36 ZM685.436,32.36 C683.436,32.704 681.350,34.204 679.186,36.536 C676.850,39.36 674.268,41.536 671.436,44.36 L691.436,43.536 C689.936,41.204 688.18,38.786 685.686,36.286 L686.436,35.536 C693.436,40.372 697.100,43.622 697.436,45.286 C697.768,46.954 697.518,48.204 696.686,49.36 C695.850,49.872 695.268,50.286 694.936,50.286 C694.600,50.286 694.350,49.954 694.186,49.286 C693.686,48.122 692.936,46.622 691.936,44.786 C688.268,45.122 684.686,45.454 681.186,45.786 L685.186,47.786 L683.186,49.536 L683.186,57.536 L689.936,57.536 L692.936,54.536 L697.436,59.36 L683.186,59.36 L683.186,71.36 L697.436,68.286 L697.686,69.536 C678.686,74.372 668.436,77.536 666.936,79.36 L664.186,74.36 C667.18,73.704 672.186,72.954 679.686,71.786 L679.686,59.36 L670.186,59.36 L667.186,59.536 L665.186,57.536 L679.686,57.536 L679.686,45.786 C673.686,46.622 670.100,47.536 668.936,48.536 L666.686,44.36 C669.18,43.872 671.436,42.204 673.936,39.36 C676.436,35.872 678.436,32.622 679.936,29.286 L673.436,29.286 C671.268,29.286 669.268,29.536 667.436,30.36 L665.186,27.786 L690.436,27.786 L693.686,24.536 L698.436,29.286 L680.936,29.286 L685.436,32.36 ZM657.936,104.286 L667.686,104.286 C667.686,95.286 667.600,89.454 667.436,86.786 L673.686,89.536 L671.186,91.286 L671.186,104.286 L678.436,104.286 L681.936,100.786 L686.936,105.786 L671.186,105.786 L671.186,119.536 L677.686,119.536 L680.936,116.286 L685.686,121.36 L671.186,121.36 L671.186,138.535 L680.936,138.535 L684.436,135.35 L689.436,140.35 L656.686,140.35 C654.518,140.35 652.518,140.285 650.686,140.785 L648.436,138.535 L667.686,138.535 L667.686,121.36 L662.436,121.36 C660.268,121.36 658.268,121.286 656.436,121.786 L654.186,119.536 L667.686,119.536 L667.686,105.786 L657.436,105.786 C655.268,111.122 652.850,115.454 650.186,118.786 L649.436,118.286 C651.436,114.286 653.100,109.829 654.436,104.911 C655.768,99.997 656.600,95.954 656.936,92.786 L662.686,95.536 L660.436,97.36 L657.936,104.286 ZM652.186,77.286 C651.518,77.286 650.768,76.118 649.936,73.786 C648.768,70.954 646.100,67.122 641.936,62.286 C638.768,67.622 634.393,71.661 628.811,74.411 C623.225,77.161 616.768,79.118 609.436,80.286 L608.936,79.286 C613.600,78.286 617.850,76.950 621.686,75.286 C625.518,73.622 629.100,71.329 632.436,68.411 C635.768,65.497 638.225,61.536 639.811,56.536 C641.393,51.536 642.18,40.622 641.686,23.786 L647.936,26.536 L645.936,28.286 C645.768,37.786 645.475,44.747 645.61,49.161 C644.643,53.579 643.768,57.536 642.436,61.36 C646.268,63.704 649.186,65.872 651.186,67.536 C653.186,69.204 654.186,70.911 654.186,72.661 C654.186,74.411 653.893,75.618 653.311,76.286 C652.725,76.950 652.350,77.286 652.186,77.286 ZM627.686,44.536 C627.18,44.536 626.436,43.454 625.936,41.286 C625.100,38.286 623.100,34.622 619.936,30.286 L620.686,29.536 C627.186,34.36 630.436,37.247 630.436,39.161 C630.436,41.79 630.61,42.454 629.311,43.286 C628.561,44.122 628.18,44.536 627.686,44.536 ZM610.686,64.286 C614.18,62.622 619.850,58.872 628.186,53.36 L628.936,53.786 C622.436,59.454 617.936,63.372 615.436,65.536 C612.936,67.704 610.936,69.872 609.436,72.36 L605.686,67.536 C606.518,66.536 606.936,65.122 606.936,63.286 L606.936,38.536 C606.936,33.536 606.850,29.372 606.686,26.36 L612.936,29.36 L610.686,31.36 L610.686,64.286 ZM581.187,71.286 C581.351,75.618 579.519,78.536 575.687,80.36 C575.351,77.700 572.519,75.786 567.187,74.286 L567.187,73.36 C569.687,73.372 572.144,73.622 574.562,73.786 C576.976,73.954 578.19,72.786 577.687,70.286 L577.687,30.536 L543.187,30.536 C541.19,30.536 539.19,30.786 537.187,31.286 L534.937,29.36 L584.187,29.36 L587.937,25.286 L593.186,30.536 L581.187,30.536 L581.187,71.286 ZM527.687,140.785 L524.187,142.785 L524.187,137.535 L511.187,137.535 L511.187,141.785 L507.687,143.785 C507.851,135.953 507.937,128.161 507.937,120.411 C507.937,112.661 507.851,104.954 507.687,97.286 L511.437,99.536 L513.937,99.536 C515.601,93.872 516.519,89.536 516.687,86.536 L522.187,89.536 C520.519,90.372 518.269,93.704 515.437,99.536 L523.687,99.536 L526.187,97.36 L529.937,100.786 L527.437,102.536 C527.437,122.36 527.519,134.785 527.687,140.785 ZM524.187,101.36 L511.187,101.36 L511.187,117.36 L524.187,117.36 L524.187,101.36 ZM524.187,118.536 L511.187,118.536 L511.187,136.35 L524.187,136.35 L524.187,118.536 ZM528.62,66.36 C528.144,67.872 527.894,69.161 527.312,69.911 C526.726,70.661 526.269,71.36 525.937,71.36 C525.437,71.36 525.19,70.286 524.687,68.786 C524.19,66.622 522.726,63.747 520.812,60.161 C518.894,56.579 516.937,53.536 514.937,51.36 L515.687,50.536 C519.187,53.704 522.101,56.622 524.437,59.286 C526.769,61.954 527.976,64.204 528.62,66.36 ZM518.937,45.536 L518.187,45.36 L521.687,37.786 L499.937,37.786 C496.769,42.786 493.519,46.872 490.187,50.36 L489.437,49.536 C492.601,45.372 495.269,40.579 497.437,35.161 C499.601,29.747 500.937,25.622 501.437,22.786 L507.437,26.536 L504.937,27.786 C503.437,30.622 501.937,33.454 500.437,36.286 L521.187,36.286 L523.687,33.286 L528.687,38.286 C526.19,38.286 522.769,40.704 518.937,45.536 ZM483.437,39.536 L486.937,41.536 L485.187,42.786 L485.187,69.36 C485.187,72.704 485.269,75.786 485.437,78.286 L481.437,80.786 C481.601,73.122 481.687,68.36 481.687,65.536 L481.687,42.786 C478.187,47.954 474.769,52.122 471.437,55.286 L470.687,54.786 C475.851,47.454 479.601,41.79 481.937,35.661 C484.269,30.247 485.937,25.704 486.937,22.36 L492.687,25.786 L490.437,26.786 C488.101,31.122 485.769,35.372 483.437,39.536 ZM466.437,97.786 L482.437,97.786 L485.687,94.536 L490.437,99.286 L466.437,99.286 L466.437,110.536 L487.687,110.536 L491.437,106.786 L496.687,112.36 L463.937,112.36 L468.687,114.786 L466.437,116.286 L466.437,119.36 C478.601,121.872 485.437,124.121 486.937,125.786 C488.437,127.454 489.62,128.911 488.812,130.161 C488.562,131.411 488.187,132.35 487.687,132.35 C487.19,132.35 485.937,131.371 484.437,130.36 C481.937,127.703 475.937,124.454 466.437,120.286 L466.437,135.285 C466.437,138.285 466.519,140.867 466.687,143.35 L462.687,144.785 C462.851,140.285 462.937,136.703 462.937,134.35 L462.937,112.36 L447.438,112.36 C445.270,112.36 443.270,112.286 441.438,112.786 L439.188,110.536 L462.937,110.536 L462.937,94.786 C462.937,92.122 462.851,89.286 462.687,86.286 L468.687,89.286 L466.437,91.36 L466.437,97.786 ZM413.938,101.286 L411.938,102.286 C408.270,106.286 404.852,109.622 401.688,112.286 L417.188,111.536 C418.688,108.872 419.852,106.372 420.688,104.36 L425.688,107.286 L423.188,108.786 C419.352,114.954 415.438,119.872 411.438,123.536 C407.438,127.204 402.438,130.203 396.438,132.535 L395.938,131.536 C404.602,127.204 411.438,121.36 416.438,113.36 C412.938,113.372 409.602,113.829 406.438,114.411 C403.270,114.997 401.102,115.786 399.938,116.786 L397.688,112.286 C399.520,111.954 401.477,110.411 403.563,107.661 C405.645,104.911 407.352,101.954 408.688,98.786 L401.938,98.786 C399.770,98.786 397.770,99.36 395.938,99.536 L393.688,97.286 L425.438,97.286 L428.438,94.286 L432.688,98.786 L410.438,98.786 L413.938,101.286 ZM417.563,73.911 C415.813,75.825 414.395,76.868 413.313,77.36 C412.227,77.200 411.688,77.200 411.688,77.36 C411.688,76.868 411.938,76.618 412.438,76.286 C413.438,75.450 414.395,74.454 415.313,73.286 C416.227,72.122 417.20,70.454 417.688,68.286 C416.188,68.286 415.102,68.36 414.438,67.536 C413.770,67.36 413.313,66.372 413.63,65.536 C412.813,64.704 412.770,63.911 412.938,63.161 C413.102,62.411 413.688,61.661 414.688,60.911 C415.688,60.161 416.938,59.954 418.438,60.286 C419.938,60.622 420.852,61.247 421.188,62.161 C421.520,63.79 421.688,63.954 421.688,64.786 C421.688,65.786 421.438,67.79 420.938,68.661 C420.438,70.247 419.313,71.997 417.563,73.911 ZM414.63,94.661 C413.313,95.411 412.852,95.786 412.688,95.786 C412.188,95.786 411.852,95.372 411.688,94.536 C411.352,93.204 410.895,91.954 410.313,90.786 C409.727,89.622 408.852,88.372 407.688,87.36 L408.188,86.536 C412.188,88.372 414.352,89.997 414.688,91.411 C415.20,92.829 414.813,93.911 414.63,94.661 ZM396.188,67.911 C395.852,72.329 395.63,75.368 393.813,77.36 C392.563,78.700 390.688,79.950 388.188,80.786 C388.20,78.450 384.852,76.286 378.688,74.286 L378.938,73.36 C384.602,74.36 388.145,74.536 389.563,74.536 C390.977,74.536 391.938,72.786 392.438,69.286 C392.938,65.786 393.520,56.536 394.188,41.536 L383.188,41.536 C382.688,48.372 381.727,54.36 380.313,58.536 C378.895,63.36 376.520,67.79 373.188,70.661 C369.852,74.247 364.852,77.618 358.188,80.786 L357.438,80.36 C362.938,76.868 367.188,73.579 370.188,70.161 C373.188,66.747 375.438,62.911 376.938,58.661 C378.438,54.411 379.438,48.704 379.938,41.536 L373.188,41.536 L370.188,42.36 L368.188,40.36 L379.938,40.36 C380.102,32.36 380.20,26.122 379.688,22.286 L385.688,25.36 L383.438,27.36 C383.438,32.204 383.352,36.536 383.188,40.36 L393.688,40.36 L395.938,37.536 L399.688,40.786 L397.688,42.286 C397.20,54.954 396.520,63.497 396.188,67.911 ZM359.438,62.36 C364.102,60.872 368.188,59.704 371.688,58.536 L372.188,59.536 C364.852,62.204 358.977,64.454 354.563,66.286 C350.145,68.122 347.602,69.536 346.938,70.536 L343.438,65.786 C345.938,65.454 350.188,64.454 356.188,62.786 L356.188,34.786 L352.438,34.786 C350.270,34.786 348.270,35.36 346.438,35.536 L344.188,33.286 L364.938,33.286 L367.688,30.536 L371.938,34.786 L359.438,34.786 L359.438,62.36 ZM357.688,86.536 L361.188,90.786 C359.520,90.954 357.352,91.204 354.688,91.536 C352.20,91.872 347.102,92.454 339.938,93.286 C339.270,95.622 338.520,97.872 337.688,100.36 L353.188,100.36 L356.938,96.786 L360.938,101.536 L337.188,101.536 C336.20,104.204 335.20,106.372 334.188,108.36 L360.688,108.36 L364.688,104.536 L369.188,109.536 L333.438,109.536 C332.102,112.36 330.770,114.286 329.438,116.286 L352.938,116.286 L354.688,113.786 L358.438,116.786 L356.688,118.536 C356.688,131.371 356.770,139.617 356.938,143.285 L353.188,145.35 L353.188,141.785 L330.688,141.785 L330.688,144.35 L326.938,145.285 C327.103,142.449 327.188,133.621 327.188,118.786 C322.853,124.286 317.521,128.871 311.189,132.535 L310.689,131.786 C319.21,125.286 325.353,117.872 329.688,109.536 L318.688,109.536 C316.521,109.536 314.521,109.786 312.689,110.286 L310.439,108.36 L330.438,108.36 C331.270,106.372 332.188,104.204 333.188,101.536 L324.938,101.536 C322.770,101.536 320.771,101.786 318.938,102.286 L316.689,100.36 L333.688,100.36 C334.520,98.204 335.188,96.36 335.688,93.536 C331.20,93.872 324.188,94.204 315.189,94.536 L315.189,93.286 C326.520,92.622 335.977,91.622 343.563,90.286 C351.145,88.954 355.852,87.704 357.688,86.536 ZM330.688,140.285 L353.188,140.285 L353.188,134.35 L330.688,134.35 L330.688,140.285 ZM330.688,132.535 L353.188,132.535 L353.188,125.786 L330.688,125.786 L330.688,132.535 ZM330.688,124.286 L353.188,124.286 L353.188,117.786 L330.688,117.786 L330.688,124.286 ZM335.938,79.286 C334.770,79.286 332.602,78.700 329.438,77.536 C326.270,76.368 322.603,73.204 318.439,68.36 C313.271,73.372 307.603,77.368 301.439,80.36 L301.189,79.36 C307.853,74.704 312.939,70.122 316.439,65.286 C313.103,59.122 310.939,50.122 309.939,38.286 L290.189,38.286 L289.939,50.286 L301.439,50.286 L303.689,47.786 L307.439,51.286 L305.189,53.36 C304.689,63.36 304.21,68.829 303.189,70.411 C302.353,71.997 300.771,73.286 298.439,74.286 C297.939,71.954 295.689,70.36 291.689,68.536 L291.689,67.536 C294.853,68.36 297.64,68.372 298.314,68.536 C299.564,68.704 300.353,67.997 300.689,66.411 C301.21,64.829 301.353,59.954 301.689,51.786 L289.939,51.786 C289.439,65.622 285.939,75.286 279.439,80.786 L278.939,80.36 C283.271,73.872 285.564,67.247 285.814,60.161 C286.64,53.79 286.189,47.704 286.189,44.36 C286.189,40.372 286.103,37.204 285.939,34.536 L290.439,36.786 L309.689,36.786 C309.189,31.286 308.771,26.786 308.439,23.286 L314.939,25.786 L313.189,27.786 C313.189,30.454 313.353,33.454 313.689,36.786 L327.438,36.786 L330.938,33.286 L335.938,38.286 L313.689,38.286 C314.689,49.286 316.439,57.36 318.939,61.536 C320.271,59.536 321.603,56.954 322.938,53.786 C324.271,50.622 325.603,47.36 326.938,43.36 L332.188,47.36 L329.938,48.286 C327.103,55.122 324.188,60.704 321.188,65.36 C324.688,69.204 328.353,72.122 332.188,73.786 L335.188,63.36 L336.188,63.286 C335.520,68.454 335.188,71.872 335.188,73.536 C335.188,75.200 335.602,76.786 336.438,78.286 C336.770,78.950 336.602,79.286 335.938,79.286 ZM326.188,34.161 C325.520,34.579 325.103,34.786 324.938,34.786 C324.271,34.786 323.771,34.122 323.438,32.786 C322.938,30.954 321.271,28.286 318.439,24.786 L319.189,24.36 C322.688,26.36 325.21,27.579 326.188,28.661 C327.353,29.747 327.813,30.829 327.563,31.911 C327.313,32.997 326.853,33.747 326.188,34.161 ZM280.189,89.36 L277.939,90.786 L277.939,94.786 L295.189,94.786 L298.689,91.286 L303.689,96.286 L280.689,96.286 C286.521,104.454 294.521,109.372 304.689,111.36 L304.689,111.786 C301.853,112.122 300.271,113.122 299.939,114.786 C290.103,110.622 283.271,104.454 279.439,96.286 L277.939,96.286 C277.939,103.286 278.21,107.872 278.189,110.36 L274.189,111.786 C274.353,107.786 274.439,103.372 274.439,98.536 C267.939,106.704 259.21,112.872 247.689,117.36 L247.189,116.286 C257.521,111.286 265.689,104.622 271.689,96.286 L257.439,96.286 C255.271,96.286 253.271,96.536 251.439,97.36 L249.189,94.786 L274.439,94.786 C274.439,91.786 274.353,88.954 274.189,86.286 L280.189,89.36 ZM265.939,78.36 L252.689,78.36 C248.521,78.36 246.439,76.118 246.439,72.286 L246.439,57.36 C242.103,60.372 237.103,63.204 231.439,65.536 L231.189,64.536 C237.21,61.204 242.103,57.536 246.439,53.536 L246.439,35.536 C246.439,31.872 246.353,27.622 246.189,22.786 L251.939,25.536 L249.939,27.536 L249.939,50.786 C252.271,48.622 254.814,45.872 257.564,42.536 C260.314,39.204 262.271,36.536 263.439,34.536 L267.939,38.786 L265.189,39.536 C260.353,45.36 255.271,50.122 249.939,54.786 L249.939,70.536 C249.939,73.372 251.353,74.786 254.189,74.786 L264.939,74.786 C266.271,74.786 267.103,73.704 267.439,71.536 C267.771,69.372 267.939,66.36 267.939,61.536 L269.189,61.536 C269.521,66.36 269.939,69.36 270.439,70.536 C270.939,72.36 271.853,73.36 273.189,73.536 C271.689,76.536 269.271,78.36 265.939,78.36 ZM227.939,40.36 L231.439,42.36 L229.439,44.36 L229.439,71.286 C229.439,73.122 229.521,75.618 229.689,78.786 L225.689,80.786 C225.853,75.450 225.939,70.372 225.939,65.536 L225.939,43.536 C222.271,49.36 218.771,53.536 215.439,57.36 L214.689,56.286 C218.353,51.122 221.771,45.122 224.939,38.286 C228.103,31.454 230.103,26.286 230.939,22.786 L236.439,26.36 L233.939,27.536 C231.771,32.372 229.771,36.536 227.939,40.36 ZM219.439,98.36 C219.439,99.36 219.103,100.79 218.439,101.161 C217.771,102.247 217.271,102.786 216.939,102.786 C216.439,102.786 215.939,101.704 215.439,99.536 C214.603,96.536 212.939,92.872 210.439,88.536 L211.189,88.36 C215.521,91.872 217.978,94.329 218.564,95.411 C219.146,96.497 219.439,97.372 219.439,98.36 ZM206.439,79.411 C205.939,79.661 205.603,79.200 205.439,78.36 C205.103,76.868 204.603,75.618 203.939,74.286 C193.271,75.618 185.854,76.661 181.690,77.411 C177.522,78.161 174.772,79.36 173.440,80.36 L170.940,75.286 C176.440,74.786 182.354,74.286 188.689,73.786 L188.689,61.786 L179.440,61.786 L179.440,63.786 L175.940,65.786 C176.104,62.622 176.190,59.79 176.190,55.161 C176.190,51.247 176.104,48.454 175.940,46.786 L179.940,48.786 L188.689,48.786 L188.689,38.786 L193.939,41.286 L191.939,43.36 L191.939,48.786 L200.939,48.786 L202.689,46.536 L206.439,49.536 L204.689,51.36 C204.689,56.204 204.771,60.36 204.939,62.536 L201.439,64.36 L201.439,61.786 L191.939,61.786 L191.939,73.536 C196.271,73.204 200.21,72.872 203.189,72.536 C201.853,70.204 200.271,67.954 198.439,65.786 L198.939,65.286 C201.603,66.954 203.814,68.661 205.564,70.411 C207.314,72.161 208.271,73.622 208.439,74.786 C208.603,75.950 208.439,76.950 207.939,77.786 C207.439,78.618 206.939,79.161 206.439,79.411 ZM188.689,50.286 L179.440,50.286 L179.440,60.286 L188.689,60.286 L188.689,50.286 ZM201.439,60.286 L201.439,50.286 L191.939,50.286 L191.939,60.286 L201.439,60.286 ZM181.940,41.36 L178.440,42.286 C178.604,40.122 178.690,37.411 178.690,34.161 C178.690,30.911 178.604,27.704 178.440,24.536 L181.940,26.536 L198.189,26.536 L199.939,24.36 L203.939,27.286 L201.939,28.786 C201.939,34.786 202.21,38.622 202.189,40.286 L198.689,41.536 L198.689,38.786 L188.689,38.786 L181.940,38.786 L181.940,41.36 ZM198.689,37.286 L198.689,28.36 L181.940,28.36 L181.940,37.286 L198.689,37.286 ZM170.940,44.536 L167.440,46.36 L167.440,43.286 L158.940,43.286 L157.690,54.536 L166.440,54.536 L168.190,52.36 L172.190,55.36 L170.440,56.786 C169.604,64.786 168.604,70.454 167.440,73.786 C166.272,77.118 163.772,79.286 159.940,80.286 C160.272,78.286 158.604,76.286 154.940,74.286 L155.190,73.286 C157.190,73.954 158.854,74.454 160.190,74.786 C161.522,75.118 162.565,74.825 163.315,73.911 C164.65,72.997 164.690,71.329 165.190,68.911 C165.690,66.497 166.272,62.204 166.940,56.36 L157.690,56.36 L155.940,58.36 L152.940,55.286 C153.940,54.622 154.604,52.829 154.940,49.911 C155.272,46.997 155.522,43.536 155.690,39.536 L159.190,41.786 L167.440,41.786 L167.440,29.286 L156.690,29.286 L153.940,29.786 L151.940,27.786 L166.940,27.786 L168.690,25.286 L172.690,28.286 L170.690,29.786 C170.690,36.286 170.772,41.204 170.940,44.536 ZM139.690,76.786 L135.940,78.286 L135.940,72.786 L122.940,72.786 L122.940,77.536 L119.190,79.36 C119.354,75.200 119.440,70.622 119.440,65.286 C119.440,59.954 119.354,55.372 119.190,51.536 L122.940,54.36 L135.440,54.36 L137.440,51.536 L141.440,54.786 L139.440,56.286 C139.440,68.286 139.522,75.118 139.690,76.786 ZM135.940,55.536 L122.940,55.536 L122.940,71.286 L135.940,71.286 L135.940,55.536 ZM129.940,47.286 L126.190,48.786 L126.190,45.36 L105.440,45.36 L105.440,48.286 L101.690,49.536 C101.854,44.204 101.940,39.497 101.940,35.411 C101.940,31.329 101.854,27.536 101.690,24.36 L105.690,26.286 L125.690,26.286 L127.690,23.786 L131.690,27.36 L129.690,28.536 C129.690,36.704 129.772,42.954 129.940,47.286 ZM126.190,27.786 L105.440,27.786 L105.440,43.536 L126.190,43.536 L126.190,27.786 ZM109.190,51.536 L113.190,55.36 L111.190,56.536 C111.190,65.704 111.272,72.286 111.440,76.286 L107.690,78.36 L107.690,72.786 L95.440,72.786 L95.440,78.286 L91.690,79.786 C91.854,75.618 91.940,70.829 91.940,65.411 C91.940,59.997 91.854,55.454 91.690,51.786 L95.440,54.36 L107.190,54.36 L109.190,51.536 ZM95.440,71.286 L107.690,71.286 L107.690,55.536 L95.440,55.536 L95.440,71.286 ZM75.690,73.411 C74.354,76.825 71.272,79.36 66.440,80.36 C66.772,77.536 64.522,75.450 59.690,73.786 L59.940,72.786 C64.272,73.786 67.190,74.286 68.690,74.286 C70.190,74.286 71.440,73.161 72.440,70.911 C73.440,68.661 74.440,57.286 75.440,36.786 L70.690,36.786 C69.22,48.454 65.940,57.411 61.440,63.661 C56.940,69.911 51.272,74.868 44.441,78.536 L43.941,77.786 C50.440,73.122 55.522,67.704 59.190,61.536 C62.854,55.372 65.440,47.122 66.940,36.786 L61.690,36.786 C58.854,48.286 52.940,57.704 43.941,65.36 L43.441,64.286 C51.272,55.454 56.104,46.286 57.940,36.786 L53.440,36.786 C50.273,42.286 47.355,46.454 44.691,49.286 L43.941,48.786 C46.941,43.954 49.315,39.79 51.65,34.161 C52.815,29.247 53.855,25.372 54.190,22.536 L59.690,25.536 L57.690,26.786 C56.522,29.454 55.272,32.286 53.940,35.286 L74.940,35.286 L76.690,32.786 L80.690,36.36 L78.940,37.536 C78.104,58.36 77.22,69.997 75.690,73.411 ZM39.191,54.286 L46.941,51.36 L47.190,52.36 L39.191,56.536 C39.191,67.372 39.273,74.868 39.441,79.36 L35.691,80.786 C35.855,77.286 35.941,69.704 35.941,58.36 C30.105,60.704 26.855,62.786 26.191,64.286 L23.441,60.36 C26.273,59.372 30.441,57.872 35.941,55.536 L35.941,40.536 L29.441,40.536 C27.605,44.536 25.523,48.204 23.191,51.536 L22.441,51.36 C24.273,47.204 25.730,43.36 26.816,38.536 C27.898,34.36 28.441,30.622 28.441,28.286 L34.191,31.36 L31.941,32.536 C31.273,34.372 30.523,36.536 29.691,39.36 L35.941,39.36 C35.941,31.36 35.855,25.622 35.691,22.786 L41.441,25.286 L39.191,27.36 L39.191,39.36 L40.941,39.36 L43.691,36.36 L47.690,40.536 L39.191,40.536 L39.191,54.286 ZM127.440,118.36 L139.190,118.36 L141.190,115.536 L145.190,119.36 L143.190,120.536 C143.190,129.703 143.272,136.285 143.440,140.285 L139.690,142.35 L139.690,136.785 L127.440,136.785 L127.440,142.285 L123.690,143.785 C123.854,139.617 123.940,134.828 123.940,129.411 C123.940,123.996 123.854,119.454 123.690,115.786 L127.440,118.36 ZM127.440,135.285 L139.690,135.285 L139.690,119.536 L127.440,119.536 L127.440,135.285 ZM137.690,90.286 L157.690,90.286 L159.690,87.786 L163.690,91.36 L161.690,92.536 C161.690,100.704 161.772,106.954 161.940,111.286 L158.190,112.786 L158.190,109.36 L137.440,109.36 L137.440,112.286 L133.690,113.536 C133.854,108.204 133.940,103.497 133.940,99.411 C133.940,95.329 133.854,91.536 133.690,88.36 L137.690,90.286 ZM137.440,107.536 L158.190,107.536 L158.190,91.786 L137.440,91.786 L137.440,107.536 ZM154.940,118.36 L167.440,118.36 L169.440,115.536 L173.440,118.786 L171.440,120.286 C171.440,132.285 171.522,139.117 171.690,140.785 L167.940,142.285 L167.940,136.785 L154.940,136.785 L154.940,141.535 L151.190,143.35 C151.354,139.200 151.440,134.621 151.440,129.286 C151.440,123.954 151.354,119.372 151.190,115.536 L154.940,118.36 ZM154.940,135.285 L167.940,135.285 L167.940,119.536 L154.940,119.536 L154.940,135.285 ZM187.189,103.286 L184.939,103.786 L182.939,101.786 L194.439,101.786 C194.439,96.622 194.353,91.536 194.189,86.536 L200.189,89.536 L197.939,91.536 L197.939,101.786 L202.939,101.786 L205.939,98.786 L210.439,103.286 L197.939,103.286 L197.939,109.786 C201.271,111.122 203.478,112.329 204.564,113.411 C205.646,114.497 206.189,115.536 206.189,116.536 C206.189,117.536 205.978,118.454 205.564,119.286 C205.146,120.122 204.771,120.536 204.439,120.536 C203.939,120.536 203.353,119.704 202.689,118.36 C201.689,115.536 200.103,113.204 197.939,111.36 C197.939,129.371 198.21,140.35 198.189,143.35 L194.189,145.35 C194.353,136.871 194.439,126.871 194.439,115.36 C190.771,122.36 187.21,127.454 183.189,131.286 L182.439,130.536 C188.604,121.704 192.521,112.622 194.189,103.286 L187.189,103.286 ZM231.689,117.286 L236.189,121.786 L213.189,121.786 L210.939,122.286 L208.939,120.286 L228.689,120.286 L231.689,117.286 ZM234.689,102.286 L239.189,106.786 L214.439,106.786 C212.271,106.786 210.271,107.36 208.439,107.536 L206.189,105.286 L223.689,105.286 C227.189,96.786 229.353,90.536 230.189,86.536 L235.689,89.786 L233.439,91.36 C230.771,95.872 228.21,100.622 225.189,105.286 L231.689,105.286 L234.689,102.286 ZM236.439,135.785 L241.439,140.785 L210.189,140.785 C207.689,140.785 205.689,141.35 204.189,141.535 L201.939,139.285 L232.939,139.285 L236.439,135.785 ZM264.439,113.36 L288.689,113.36 L290.689,110.786 L294.689,113.786 L292.439,115.536 C292.439,126.371 292.521,133.35 292.689,135.535 L288.939,137.285 L288.939,134.35 L263.939,134.35 L263.939,137.35 L260.189,138.785 C260.353,134.285 260.439,129.746 260.439,125.161 C260.439,120.579 260.353,115.954 260.189,111.286 L264.439,113.36 ZM263.939,132.535 L288.939,132.535 L288.939,124.536 L263.939,124.536 L263.939,132.535 ZM263.939,123.36 L288.939,123.36 L288.939,114.536 L263.939,114.536 L263.939,123.36 ZM297.689,136.785 L302.939,142.35 L257.939,142.35 C255.271,142.35 253.189,142.285 251.689,142.785 L249.439,140.535 L293.939,140.535 L297.689,136.785 ZM386.188,96.286 C385.352,93.786 383.852,91.286 381.688,88.786 L382.188,88.286 C384.688,89.622 386.602,90.872 387.938,92.36 C389.270,93.204 389.938,94.411 389.938,95.661 C389.938,96.911 389.645,97.786 389.63,98.286 C388.477,98.786 388.102,99.36 387.938,99.36 C387.270,99.36 386.688,98.122 386.188,96.286 ZM387.188,106.286 L390.438,109.536 L388.188,111.36 L388.188,133.535 L396.938,125.786 L397.688,126.536 C391.688,133.703 388.270,138.371 387.438,140.535 L383.938,136.785 C384.602,136.121 384.938,134.871 384.938,133.35 L384.938,110.286 L383.688,110.286 C381.520,110.286 379.520,110.536 377.688,111.36 L375.438,108.786 L384.688,108.786 L387.188,106.286 ZM419.63,125.911 C422.645,121.661 425.102,118.122 426.438,115.286 L430.938,119.286 L428.688,120.36 C425.520,123.704 422.520,127.36 419.688,130.36 C423.688,132.371 426.645,134.328 428.563,135.910 C430.477,137.496 431.395,138.950 431.313,140.285 C431.227,141.617 430.813,142.535 430.63,143.35 C429.313,143.535 428.438,142.617 427.438,140.285 C426.270,137.785 423.520,134.621 419.188,130.786 C411.352,137.621 402.938,141.949 393.938,143.785 L393.688,142.785 C398.188,141.449 402.645,139.367 407.63,136.535 C411.477,133.703 415.477,130.161 419.63,125.911 ZM487.187,72.786 C489.851,69.122 492.62,65.329 493.812,61.411 C495.562,57.497 496.937,53.286 497.937,48.786 L503.187,52.36 L500.937,53.286 C497.601,61.286 493.269,67.954 487.937,73.286 L487.187,72.786 ZM504.812,75.36 C506.394,75.36 507.187,74.36 507.187,72.36 L507.187,49.36 C507.187,46.372 507.101,43.622 506.937,40.786 L512.687,43.36 L510.687,44.786 L510.687,74.536 C510.851,77.368 509.19,79.368 505.187,80.536 C505.187,78.700 502.601,76.868 497.437,75.36 L497.687,74.36 C500.851,74.704 503.226,75.36 504.812,75.36 ZM539.687,86.786 L545.187,90.36 C543.851,90.872 541.769,94.286 538.937,100.286 L552.437,100.286 L555.187,97.536 L558.937,101.286 L556.687,103.36 C556.351,122.536 555.894,133.578 555.312,136.160 C554.726,138.746 553.894,140.535 552.812,141.535 C551.726,142.535 550.19,143.449 547.687,144.285 C546.851,141.617 544.101,139.617 539.437,138.285 L539.437,137.35 C543.601,137.871 546.601,138.285 548.437,138.285 C550.269,138.285 551.394,136.871 551.812,134.35 C552.226,131.203 552.601,120.454 552.937,101.786 L538.437,101.786 C535.437,106.622 532.269,110.704 528.937,114.36 L528.187,113.536 C531.687,108.204 534.269,103.454 535.937,99.286 C537.601,95.122 538.851,90.954 539.687,86.786 ZM542.187,117.911 C542.851,119.329 543.187,120.372 543.187,121.36 C543.187,122.204 542.851,123.204 542.187,124.36 C541.519,124.871 541.19,125.286 540.687,125.286 C540.19,125.286 539.519,124.121 539.187,121.786 C538.519,118.454 537.19,115.204 534.687,112.36 L535.187,111.286 C539.187,114.286 541.519,116.497 542.187,117.911 ZM547.687,66.786 L543.937,68.36 C544.101,62.204 544.187,57.79 544.187,52.661 C544.187,48.247 544.101,43.622 543.937,38.786 L547.937,40.786 L561.687,40.786 L563.187,38.286 L567.437,41.536 L565.437,43.286 L565.437,54.36 C565.437,56.872 565.519,60.204 565.687,64.36 L561.937,65.536 L561.937,61.36 L547.687,61.36 L547.687,66.786 ZM561.937,59.536 L561.937,42.286 L547.687,42.286 L547.687,59.536 L561.937,59.536 ZM575.187,117.911 C575.519,113.161 575.601,102.954 575.437,87.286 L579.187,89.286 L614.436,89.286 L616.186,87.36 L620.186,90.36 L618.436,91.286 C618.436,94.454 618.518,97.122 618.686,99.286 L614.936,100.786 L614.936,98.786 L579.187,98.786 C579.187,106.954 579.62,113.286 578.812,117.786 C578.562,122.286 577.601,126.871 575.937,131.536 C574.269,136.203 571.519,140.535 567.687,144.535 L566.937,144.35 C569.769,139.367 571.769,135.35 572.937,131.36 C574.101,127.36 574.851,122.661 575.187,117.911 ZM579.187,97.286 L614.936,97.286 L614.936,90.786 L579.187,90.786 L579.187,97.286 ZM585.937,124.536 L599.436,124.536 L599.436,119.536 L589.686,119.536 L589.686,120.786 L586.187,121.786 C586.351,119.286 586.437,117.122 586.437,115.286 C586.437,113.454 586.351,111.536 586.187,109.536 L589.686,111.286 L599.436,111.286 L599.436,106.36 C594.101,106.204 588.851,106.286 583.687,106.286 L583.687,105.286 C589.686,104.954 595.643,104.411 601.561,103.661 C607.475,102.911 611.686,101.954 614.186,100.786 L618.186,105.36 C615.850,105.36 610.686,105.286 602.686,105.786 L602.686,111.286 L612.936,111.286 L614.686,109.36 L618.436,111.786 L616.436,113.286 C616.436,116.122 616.518,118.454 616.686,120.286 L613.186,121.536 L613.186,119.536 L602.686,119.536 L602.686,124.536 L616.936,124.536 L618.686,122.286 L622.436,125.286 L620.686,126.536 L620.686,138.285 C620.850,141.285 619.186,143.449 615.686,144.785 C615.518,142.949 613.268,141.367 608.936,140.35 L608.936,139.35 C612.100,139.367 614.311,139.535 615.561,139.535 C616.811,139.535 617.436,138.867 617.436,137.535 L617.436,126.36 L602.686,126.36 L602.686,132.285 L609.686,132.35 C609.18,130.536 608.350,129.286 607.686,128.286 L608.436,127.786 C612.268,130.621 614.225,132.660 614.311,133.910 C614.393,135.160 614.100,136.78 613.436,136.660 C612.768,137.246 612.350,137.535 612.186,137.535 C611.686,137.535 611.350,137.121 611.186,136.285 C610.850,135.121 610.518,134.35 610.186,133.35 C599.686,134.371 593.601,135.785 591.936,137.285 L589.686,133.35 L599.436,132.535 L599.436,126.36 L585.937,126.36 L585.937,142.535 L582.437,144.285 C582.601,142.117 582.687,138.825 582.687,134.410 C582.687,129.996 582.601,126.121 582.437,122.786 L585.937,124.536 ZM599.436,112.786 L589.686,112.786 L589.686,118.36 L599.436,118.36 L599.436,112.786 ZM602.686,118.36 L613.186,118.36 L613.186,112.786 L602.686,112.786 L602.686,118.36 ZM635.686,102.536 L636.686,102.536 C637.186,107.536 637.268,110.661 636.936,111.911 C636.600,113.161 636.61,113.997 635.311,114.411 C634.561,114.829 633.936,115.36 633.436,115.36 C633.100,115.36 632.643,114.911 632.61,114.661 C631.475,114.411 631.186,114.204 631.186,114.36 C631.186,113.372 631.768,112.372 632.936,111.36 C634.436,109.204 635.350,106.372 635.686,102.536 ZM639.936,86.286 L645.936,89.36 L643.686,90.786 L643.686,99.286 C646.350,100.286 648.268,101.204 649.436,102.36 C650.600,102.872 651.100,103.954 650.936,105.286 C650.768,106.622 650.350,107.536 649.686,108.36 C649.18,108.536 648.350,107.872 647.686,106.36 C646.850,104.204 645.518,102.372 643.686,100.536 L643.686,133.785 C643.686,136.621 643.768,139.700 643.936,143.35 L639.936,144.785 C640.100,139.950 640.186,135.621 640.186,131.786 L640.186,96.536 C640.186,93.704 640.100,90.286 639.936,86.286 Z"/>
    <path fill-rule="evenodd" stroke="rgb(81, 137, 2)" stroke-width="12px" stroke-linecap="square"
          stroke-linejoin="round" fill="rgb(81, 137, 2)"
          d="M782.935,37.536 C782.99,58.36 781.17,69.997 779.685,73.411 C778.349,76.825 775.267,79.36 770.435,80.36 C770.767,77.536 768.517,75.450 763.685,73.786 L763.935,72.786 C768.267,73.786 771.185,74.286 772.685,74.286 C774.185,74.286 775.435,73.161 776.435,70.911 C777.435,68.661 778.435,57.286 779.435,36.786 L774.685,36.786 C773.17,48.454 769.935,57.411 765.435,63.661 C760.935,69.911 755.267,74.868 748.435,78.536 L747.935,77.786 C754.435,73.122 759.517,67.704 763.185,61.536 C766.849,55.372 769.435,47.122 770.935,36.786 L765.685,36.786 C762.849,48.286 756.935,57.704 747.935,65.36 L747.435,64.286 C755.267,55.454 760.99,46.286 761.935,36.786 L757.435,36.786 C754.267,42.286 751.349,46.454 748.685,49.286 L747.935,48.786 C750.935,43.954 753.310,39.79 755.60,34.161 C756.810,29.247 757.849,25.372 758.185,22.536 L763.685,25.536 L761.685,26.786 C760.517,29.454 759.267,32.286 757.935,35.286 L778.935,35.286 L780.685,32.786 L784.685,36.36 L782.935,37.536 ZM743.185,54.286 L750.935,51.36 L751.185,52.36 L743.185,56.536 C743.185,67.372 743.267,74.868 743.435,79.36 L739.685,80.786 C739.849,77.286 739.935,69.704 739.935,58.36 C734.100,60.704 730.850,62.786 730.185,64.286 L727.435,60.36 C730.267,59.372 734.435,57.872 739.935,55.536 L739.935,40.536 L733.435,40.536 C731.600,44.536 729.518,48.204 727.185,51.536 L726.435,51.36 C728.268,47.204 729.725,43.36 730.810,38.536 C731.892,34.36 732.435,30.622 732.435,28.286 L738.185,31.36 L735.935,32.536 C735.267,34.372 734.517,36.536 733.685,39.36 L739.935,39.36 C739.935,31.36 739.849,25.622 739.685,22.786 L745.435,25.286 L743.185,27.36 L743.185,39.36 L744.935,39.36 L747.685,36.36 L751.685,40.536 L743.185,40.536 L743.185,54.286 ZM717.436,73.36 C717.600,77.200 715.768,79.868 711.936,81.36 C711.600,78.536 708.850,76.700 703.686,75.536 L703.686,74.286 C706.186,74.622 708.518,74.786 710.686,74.786 C711.850,74.786 712.768,74.661 713.436,74.411 C714.100,74.161 714.350,72.954 714.186,70.786 L714.186,31.536 C714.186,29.36 714.100,26.204 713.936,23.36 L719.436,25.536 L717.436,27.286 L717.436,73.36 ZM705.436,59.36 C705.436,60.704 705.518,62.954 705.686,65.786 L701.936,67.286 C702.100,61.786 702.186,55.579 702.186,48.661 C702.186,41.747 702.100,35.872 701.936,31.36 L707.686,34.36 L705.436,35.786 L705.436,59.36 ZM685.436,32.36 C683.436,32.704 681.350,34.204 679.186,36.536 C676.850,39.36 674.268,41.536 671.436,44.36 L691.436,43.536 C689.936,41.204 688.18,38.786 685.686,36.286 L686.436,35.536 C693.436,40.372 697.100,43.622 697.436,45.286 C697.768,46.954 697.518,48.204 696.686,49.36 C695.850,49.872 695.268,50.286 694.936,50.286 C694.600,50.286 694.350,49.954 694.186,49.286 C693.686,48.122 692.936,46.622 691.936,44.786 C688.268,45.122 684.686,45.454 681.186,45.786 L685.186,47.786 L683.186,49.536 L683.186,57.536 L689.936,57.536 L692.936,54.536 L697.436,59.36 L683.186,59.36 L683.186,71.36 L697.436,68.286 L697.686,69.536 C678.686,74.372 668.436,77.536 666.936,79.36 L664.186,74.36 C667.18,73.704 672.186,72.954 679.686,71.786 L679.686,59.36 L670.186,59.36 L667.186,59.536 L665.186,57.536 L679.686,57.536 L679.686,45.786 C673.686,46.622 670.100,47.536 668.936,48.536 L666.686,44.36 C669.18,43.872 671.436,42.204 673.936,39.36 C676.436,35.872 678.436,32.622 679.936,29.286 L673.436,29.286 C671.268,29.286 669.268,29.536 667.436,30.36 L665.186,27.786 L690.436,27.786 L693.686,24.536 L698.436,29.286 L680.936,29.286 L685.436,32.36 ZM657.936,104.286 L667.686,104.286 C667.686,95.286 667.600,89.454 667.436,86.786 L673.686,89.536 L671.186,91.286 L671.186,104.286 L678.436,104.286 L681.936,100.786 L686.936,105.786 L671.186,105.786 L671.186,119.536 L677.686,119.536 L680.936,116.286 L685.686,121.36 L671.186,121.36 L671.186,138.535 L680.936,138.535 L684.436,135.35 L689.436,140.35 L656.686,140.35 C654.518,140.35 652.518,140.285 650.686,140.785 L648.436,138.535 L667.686,138.535 L667.686,121.36 L662.436,121.36 C660.268,121.36 658.268,121.286 656.436,121.786 L654.186,119.536 L667.686,119.536 L667.686,105.786 L657.436,105.786 C655.268,111.122 652.850,115.454 650.186,118.786 L649.436,118.286 C651.436,114.286 653.100,109.829 654.436,104.911 C655.768,99.997 656.600,95.954 656.936,92.786 L662.686,95.536 L660.436,97.36 L657.936,104.286 ZM652.186,77.286 C651.518,77.286 650.768,76.118 649.936,73.786 C648.768,70.954 646.100,67.122 641.936,62.286 C638.768,67.622 634.393,71.661 628.811,74.411 C623.225,77.161 616.768,79.118 609.436,80.286 L608.936,79.286 C613.600,78.286 617.850,76.950 621.686,75.286 C625.518,73.622 629.100,71.329 632.436,68.411 C635.768,65.497 638.225,61.536 639.811,56.536 C641.393,51.536 642.18,40.622 641.686,23.786 L647.936,26.536 L645.936,28.286 C645.768,37.786 645.475,44.747 645.61,49.161 C644.643,53.579 643.768,57.536 642.436,61.36 C646.268,63.704 649.186,65.872 651.186,67.536 C653.186,69.204 654.186,70.911 654.186,72.661 C654.186,74.411 653.893,75.618 653.311,76.286 C652.725,76.950 652.350,77.286 652.186,77.286 ZM627.686,44.536 C627.18,44.536 626.436,43.454 625.936,41.286 C625.100,38.286 623.100,34.622 619.936,30.286 L620.686,29.536 C627.186,34.36 630.436,37.247 630.436,39.161 C630.436,41.79 630.61,42.454 629.311,43.286 C628.561,44.122 628.18,44.536 627.686,44.536 ZM610.686,64.286 C614.18,62.622 619.850,58.872 628.186,53.36 L628.936,53.786 C622.436,59.454 617.936,63.372 615.436,65.536 C612.936,67.704 610.936,69.872 609.436,72.36 L605.686,67.536 C606.518,66.536 606.936,65.122 606.936,63.286 L606.936,38.536 C606.936,33.536 606.850,29.372 606.686,26.36 L612.936,29.36 L610.686,31.36 L610.686,64.286 ZM581.187,71.286 C581.351,75.618 579.519,78.536 575.687,80.36 C575.351,77.700 572.519,75.786 567.187,74.286 L567.187,73.36 C569.687,73.372 572.144,73.622 574.562,73.786 C576.976,73.954 578.19,72.786 577.687,70.286 L577.687,30.536 L543.187,30.536 C541.19,30.536 539.19,30.786 537.187,31.286 L534.937,29.36 L584.187,29.36 L587.937,25.286 L593.186,30.536 L581.187,30.536 L581.187,71.286 ZM527.687,140.785 L524.187,142.785 L524.187,137.535 L511.187,137.535 L511.187,141.785 L507.687,143.785 C507.851,135.953 507.937,128.161 507.937,120.411 C507.937,112.661 507.851,104.954 507.687,97.286 L511.437,99.536 L513.937,99.536 C515.601,93.872 516.519,89.536 516.687,86.536 L522.187,89.536 C520.519,90.372 518.269,93.704 515.437,99.536 L523.687,99.536 L526.187,97.36 L529.937,100.786 L527.437,102.536 C527.437,122.36 527.519,134.785 527.687,140.785 ZM524.187,101.36 L511.187,101.36 L511.187,117.36 L524.187,117.36 L524.187,101.36 ZM524.187,118.536 L511.187,118.536 L511.187,136.35 L524.187,136.35 L524.187,118.536 ZM528.62,66.36 C528.144,67.872 527.894,69.161 527.312,69.911 C526.726,70.661 526.269,71.36 525.937,71.36 C525.437,71.36 525.19,70.286 524.687,68.786 C524.19,66.622 522.726,63.747 520.812,60.161 C518.894,56.579 516.937,53.536 514.937,51.36 L515.687,50.536 C519.187,53.704 522.101,56.622 524.437,59.286 C526.769,61.954 527.976,64.204 528.62,66.36 ZM518.937,45.536 L518.187,45.36 L521.687,37.786 L499.937,37.786 C496.769,42.786 493.519,46.872 490.187,50.36 L489.437,49.536 C492.601,45.372 495.269,40.579 497.437,35.161 C499.601,29.747 500.937,25.622 501.437,22.786 L507.437,26.536 L504.937,27.786 C503.437,30.622 501.937,33.454 500.437,36.286 L521.187,36.286 L523.687,33.286 L528.687,38.286 C526.19,38.286 522.769,40.704 518.937,45.536 ZM483.437,39.536 L486.937,41.536 L485.187,42.786 L485.187,69.36 C485.187,72.704 485.269,75.786 485.437,78.286 L481.437,80.786 C481.601,73.122 481.687,68.36 481.687,65.536 L481.687,42.786 C478.187,47.954 474.769,52.122 471.437,55.286 L470.687,54.786 C475.851,47.454 479.601,41.79 481.937,35.661 C484.269,30.247 485.937,25.704 486.937,22.36 L492.687,25.786 L490.437,26.786 C488.101,31.122 485.769,35.372 483.437,39.536 ZM466.437,97.786 L482.437,97.786 L485.687,94.536 L490.437,99.286 L466.437,99.286 L466.437,110.536 L487.687,110.536 L491.437,106.786 L496.687,112.36 L463.937,112.36 L468.687,114.786 L466.437,116.286 L466.437,119.36 C478.601,121.872 485.437,124.121 486.937,125.786 C488.437,127.454 489.62,128.911 488.812,130.161 C488.562,131.411 488.187,132.35 487.687,132.35 C487.19,132.35 485.937,131.371 484.437,130.36 C481.937,127.703 475.937,124.454 466.437,120.286 L466.437,135.285 C466.437,138.285 466.519,140.867 466.687,143.35 L462.687,144.785 C462.851,140.285 462.937,136.703 462.937,134.35 L462.937,112.36 L447.438,112.36 C445.270,112.36 443.270,112.286 441.438,112.786 L439.188,110.536 L462.937,110.536 L462.937,94.786 C462.937,92.122 462.851,89.286 462.687,86.286 L468.687,89.286 L466.437,91.36 L466.437,97.786 ZM413.938,101.286 L411.938,102.286 C408.270,106.286 404.852,109.622 401.688,112.286 L417.188,111.536 C418.688,108.872 419.852,106.372 420.688,104.36 L425.688,107.286 L423.188,108.786 C419.352,114.954 415.438,119.872 411.438,123.536 C407.438,127.204 402.438,130.203 396.438,132.535 L395.938,131.536 C404.602,127.204 411.438,121.36 416.438,113.36 C412.938,113.372 409.602,113.829 406.438,114.411 C403.270,114.997 401.102,115.786 399.938,116.786 L397.688,112.286 C399.520,111.954 401.477,110.411 403.563,107.661 C405.645,104.911 407.352,101.954 408.688,98.786 L401.938,98.786 C399.770,98.786 397.770,99.36 395.938,99.536 L393.688,97.286 L425.438,97.286 L428.438,94.286 L432.688,98.786 L410.438,98.786 L413.938,101.286 ZM417.563,73.911 C415.813,75.825 414.395,76.868 413.313,77.36 C412.227,77.200 411.688,77.200 411.688,77.36 C411.688,76.868 411.938,76.618 412.438,76.286 C413.438,75.450 414.395,74.454 415.313,73.286 C416.227,72.122 417.20,70.454 417.688,68.286 C416.188,68.286 415.102,68.36 414.438,67.536 C413.770,67.36 413.313,66.372 413.63,65.536 C412.813,64.704 412.770,63.911 412.938,63.161 C413.102,62.411 413.688,61.661 414.688,60.911 C415.688,60.161 416.938,59.954 418.438,60.286 C419.938,60.622 420.852,61.247 421.188,62.161 C421.520,63.79 421.688,63.954 421.688,64.786 C421.688,65.786 421.438,67.79 420.938,68.661 C420.438,70.247 419.313,71.997 417.563,73.911 ZM414.63,94.661 C413.313,95.411 412.852,95.786 412.688,95.786 C412.188,95.786 411.852,95.372 411.688,94.536 C411.352,93.204 410.895,91.954 410.313,90.786 C409.727,89.622 408.852,88.372 407.688,87.36 L408.188,86.536 C412.188,88.372 414.352,89.997 414.688,91.411 C415.20,92.829 414.813,93.911 414.63,94.661 ZM396.188,67.911 C395.852,72.329 395.63,75.368 393.813,77.36 C392.563,78.700 390.688,79.950 388.188,80.786 C388.20,78.450 384.852,76.286 378.688,74.286 L378.938,73.36 C384.602,74.36 388.145,74.536 389.563,74.536 C390.977,74.536 391.938,72.786 392.438,69.286 C392.938,65.786 393.520,56.536 394.188,41.536 L383.188,41.536 C382.688,48.372 381.727,54.36 380.313,58.536 C378.895,63.36 376.520,67.79 373.188,70.661 C369.852,74.247 364.852,77.618 358.188,80.786 L357.438,80.36 C362.938,76.868 367.188,73.579 370.188,70.161 C373.188,66.747 375.438,62.911 376.938,58.661 C378.438,54.411 379.438,48.704 379.938,41.536 L373.188,41.536 L370.188,42.36 L368.188,40.36 L379.938,40.36 C380.102,32.36 380.20,26.122 379.688,22.286 L385.688,25.36 L383.438,27.36 C383.438,32.204 383.352,36.536 383.188,40.36 L393.688,40.36 L395.938,37.536 L399.688,40.786 L397.688,42.286 C397.20,54.954 396.520,63.497 396.188,67.911 ZM359.438,62.36 C364.102,60.872 368.188,59.704 371.688,58.536 L372.188,59.536 C364.852,62.204 358.977,64.454 354.563,66.286 C350.145,68.122 347.602,69.536 346.938,70.536 L343.438,65.786 C345.938,65.454 350.188,64.454 356.188,62.786 L356.188,34.786 L352.438,34.786 C350.270,34.786 348.270,35.36 346.438,35.536 L344.188,33.286 L364.938,33.286 L367.688,30.536 L371.938,34.786 L359.438,34.786 L359.438,62.36 ZM357.688,86.536 L361.188,90.786 C359.520,90.954 357.352,91.204 354.688,91.536 C352.20,91.872 347.102,92.454 339.938,93.286 C339.270,95.622 338.520,97.872 337.688,100.36 L353.188,100.36 L356.938,96.786 L360.938,101.536 L337.188,101.536 C336.20,104.204 335.20,106.372 334.188,108.36 L360.688,108.36 L364.688,104.536 L369.188,109.536 L333.438,109.536 C332.102,112.36 330.770,114.286 329.438,116.286 L352.938,116.286 L354.688,113.786 L358.438,116.786 L356.688,118.536 C356.688,131.371 356.770,139.617 356.938,143.285 L353.188,145.35 L353.188,141.785 L330.688,141.785 L330.688,144.35 L326.938,145.285 C327.103,142.449 327.188,133.621 327.188,118.786 C322.853,124.286 317.521,128.871 311.189,132.535 L310.689,131.786 C319.21,125.286 325.353,117.872 329.688,109.536 L318.688,109.536 C316.521,109.536 314.521,109.786 312.689,110.286 L310.439,108.36 L330.438,108.36 C331.270,106.372 332.188,104.204 333.188,101.536 L324.938,101.536 C322.770,101.536 320.771,101.786 318.938,102.286 L316.689,100.36 L333.688,100.36 C334.520,98.204 335.188,96.36 335.688,93.536 C331.20,93.872 324.188,94.204 315.189,94.536 L315.189,93.286 C326.520,92.622 335.977,91.622 343.563,90.286 C351.145,88.954 355.852,87.704 357.688,86.536 ZM330.688,140.285 L353.188,140.285 L353.188,134.35 L330.688,134.35 L330.688,140.285 ZM330.688,132.535 L353.188,132.535 L353.188,125.786 L330.688,125.786 L330.688,132.535 ZM330.688,124.286 L353.188,124.286 L353.188,117.786 L330.688,117.786 L330.688,124.286 ZM335.938,79.286 C334.770,79.286 332.602,78.700 329.438,77.536 C326.270,76.368 322.603,73.204 318.439,68.36 C313.271,73.372 307.603,77.368 301.439,80.36 L301.189,79.36 C307.853,74.704 312.939,70.122 316.439,65.286 C313.103,59.122 310.939,50.122 309.939,38.286 L290.189,38.286 L289.939,50.286 L301.439,50.286 L303.689,47.786 L307.439,51.286 L305.189,53.36 C304.689,63.36 304.21,68.829 303.189,70.411 C302.353,71.997 300.771,73.286 298.439,74.286 C297.939,71.954 295.689,70.36 291.689,68.536 L291.689,67.536 C294.853,68.36 297.64,68.372 298.314,68.536 C299.564,68.704 300.353,67.997 300.689,66.411 C301.21,64.829 301.353,59.954 301.689,51.786 L289.939,51.786 C289.439,65.622 285.939,75.286 279.439,80.786 L278.939,80.36 C283.271,73.872 285.564,67.247 285.814,60.161 C286.64,53.79 286.189,47.704 286.189,44.36 C286.189,40.372 286.103,37.204 285.939,34.536 L290.439,36.786 L309.689,36.786 C309.189,31.286 308.771,26.786 308.439,23.286 L314.939,25.786 L313.189,27.786 C313.189,30.454 313.353,33.454 313.689,36.786 L327.438,36.786 L330.938,33.286 L335.938,38.286 L313.689,38.286 C314.689,49.286 316.439,57.36 318.939,61.536 C320.271,59.536 321.603,56.954 322.938,53.786 C324.271,50.622 325.603,47.36 326.938,43.36 L332.188,47.36 L329.938,48.286 C327.103,55.122 324.188,60.704 321.188,65.36 C324.688,69.204 328.353,72.122 332.188,73.786 L335.188,63.36 L336.188,63.286 C335.520,68.454 335.188,71.872 335.188,73.536 C335.188,75.200 335.602,76.786 336.438,78.286 C336.770,78.950 336.602,79.286 335.938,79.286 ZM326.188,34.161 C325.520,34.579 325.103,34.786 324.938,34.786 C324.271,34.786 323.771,34.122 323.438,32.786 C322.938,30.954 321.271,28.286 318.439,24.786 L319.189,24.36 C322.688,26.36 325.21,27.579 326.188,28.661 C327.353,29.747 327.813,30.829 327.563,31.911 C327.313,32.997 326.853,33.747 326.188,34.161 ZM280.189,89.36 L277.939,90.786 L277.939,94.786 L295.189,94.786 L298.689,91.286 L303.689,96.286 L280.689,96.286 C286.521,104.454 294.521,109.372 304.689,111.36 L304.689,111.786 C301.853,112.122 300.271,113.122 299.939,114.786 C290.103,110.622 283.271,104.454 279.439,96.286 L277.939,96.286 C277.939,103.286 278.21,107.872 278.189,110.36 L274.189,111.786 C274.353,107.786 274.439,103.372 274.439,98.536 C267.939,106.704 259.21,112.872 247.689,117.36 L247.189,116.286 C257.521,111.286 265.689,104.622 271.689,96.286 L257.439,96.286 C255.271,96.286 253.271,96.536 251.439,97.36 L249.189,94.786 L274.439,94.786 C274.439,91.786 274.353,88.954 274.189,86.286 L280.189,89.36 ZM265.939,78.36 L252.689,78.36 C248.521,78.36 246.439,76.118 246.439,72.286 L246.439,57.36 C242.103,60.372 237.103,63.204 231.439,65.536 L231.189,64.536 C237.21,61.204 242.103,57.536 246.439,53.536 L246.439,35.536 C246.439,31.872 246.353,27.622 246.189,22.786 L251.939,25.536 L249.939,27.536 L249.939,50.786 C252.271,48.622 254.814,45.872 257.564,42.536 C260.314,39.204 262.271,36.536 263.439,34.536 L267.939,38.786 L265.189,39.536 C260.353,45.36 255.271,50.122 249.939,54.786 L249.939,70.536 C249.939,73.372 251.353,74.786 254.189,74.786 L264.939,74.786 C266.271,74.786 267.103,73.704 267.439,71.536 C267.771,69.372 267.939,66.36 267.939,61.536 L269.189,61.536 C269.521,66.36 269.939,69.36 270.439,70.536 C270.939,72.36 271.853,73.36 273.189,73.536 C271.689,76.536 269.271,78.36 265.939,78.36 ZM227.939,40.36 L231.439,42.36 L229.439,44.36 L229.439,71.286 C229.439,73.122 229.521,75.618 229.689,78.786 L225.689,80.786 C225.853,75.450 225.939,70.372 225.939,65.536 L225.939,43.536 C222.271,49.36 218.771,53.536 215.439,57.36 L214.689,56.286 C218.353,51.122 221.771,45.122 224.939,38.286 C228.103,31.454 230.103,26.286 230.939,22.786 L236.439,26.36 L233.939,27.536 C231.771,32.372 229.771,36.536 227.939,40.36 ZM219.439,98.36 C219.439,99.36 219.103,100.79 218.439,101.161 C217.771,102.247 217.271,102.786 216.939,102.786 C216.439,102.786 215.939,101.704 215.439,99.536 C214.603,96.536 212.939,92.872 210.439,88.536 L211.189,88.36 C215.521,91.872 217.978,94.329 218.564,95.411 C219.146,96.497 219.439,97.372 219.439,98.36 ZM206.439,79.411 C205.939,79.661 205.603,79.200 205.439,78.36 C205.103,76.868 204.603,75.618 203.939,74.286 C193.271,75.618 185.854,76.661 181.690,77.411 C177.522,78.161 174.772,79.36 173.440,80.36 L170.940,75.286 C176.440,74.786 182.354,74.286 188.689,73.786 L188.689,61.786 L179.440,61.786 L179.440,63.786 L175.940,65.786 C176.104,62.622 176.190,59.79 176.190,55.161 C176.190,51.247 176.104,48.454 175.940,46.786 L179.940,48.786 L188.689,48.786 L188.689,38.786 L193.939,41.286 L191.939,43.36 L191.939,48.786 L200.939,48.786 L202.689,46.536 L206.439,49.536 L204.689,51.36 C204.689,56.204 204.771,60.36 204.939,62.536 L201.439,64.36 L201.439,61.786 L191.939,61.786 L191.939,73.536 C196.271,73.204 200.21,72.872 203.189,72.536 C201.853,70.204 200.271,67.954 198.439,65.786 L198.939,65.286 C201.603,66.954 203.814,68.661 205.564,70.411 C207.314,72.161 208.271,73.622 208.439,74.786 C208.603,75.950 208.439,76.950 207.939,77.786 C207.439,78.618 206.939,79.161 206.439,79.411 ZM188.689,50.286 L179.440,50.286 L179.440,60.286 L188.689,60.286 L188.689,50.286 ZM201.439,60.286 L201.439,50.286 L191.939,50.286 L191.939,60.286 L201.439,60.286 ZM181.940,41.36 L178.440,42.286 C178.604,40.122 178.690,37.411 178.690,34.161 C178.690,30.911 178.604,27.704 178.440,24.536 L181.940,26.536 L198.189,26.536 L199.939,24.36 L203.939,27.286 L201.939,28.786 C201.939,34.786 202.21,38.622 202.189,40.286 L198.689,41.536 L198.689,38.786 L188.689,38.786 L181.940,38.786 L181.940,41.36 ZM198.689,37.286 L198.689,28.36 L181.940,28.36 L181.940,37.286 L198.689,37.286 ZM170.940,44.536 L167.440,46.36 L167.440,43.286 L158.940,43.286 L157.690,54.536 L166.440,54.536 L168.190,52.36 L172.190,55.36 L170.440,56.786 C169.604,64.786 168.604,70.454 167.440,73.786 C166.272,77.118 163.772,79.286 159.940,80.286 C160.272,78.286 158.604,76.286 154.940,74.286 L155.190,73.286 C157.190,73.954 158.854,74.454 160.190,74.786 C161.522,75.118 162.565,74.825 163.315,73.911 C164.65,72.997 164.690,71.329 165.190,68.911 C165.690,66.497 166.272,62.204 166.940,56.36 L157.690,56.36 L155.940,58.36 L152.940,55.286 C153.940,54.622 154.604,52.829 154.940,49.911 C155.272,46.997 155.522,43.536 155.690,39.536 L159.190,41.786 L167.440,41.786 L167.440,29.286 L156.690,29.286 L153.940,29.786 L151.940,27.786 L166.940,27.786 L168.690,25.286 L172.690,28.286 L170.690,29.786 C170.690,36.286 170.772,41.204 170.940,44.536 ZM139.690,76.786 L135.940,78.286 L135.940,72.786 L122.940,72.786 L122.940,77.536 L119.190,79.36 C119.354,75.200 119.440,70.622 119.440,65.286 C119.440,59.954 119.354,55.372 119.190,51.536 L122.940,54.36 L135.440,54.36 L137.440,51.536 L141.440,54.786 L139.440,56.286 C139.440,68.286 139.522,75.118 139.690,76.786 ZM135.940,55.536 L122.940,55.536 L122.940,71.286 L135.940,71.286 L135.940,55.536 ZM129.940,47.286 L126.190,48.786 L126.190,45.36 L105.440,45.36 L105.440,48.286 L101.690,49.536 C101.854,44.204 101.940,39.497 101.940,35.411 C101.940,31.329 101.854,27.536 101.690,24.36 L105.690,26.286 L125.690,26.286 L127.690,23.786 L131.690,27.36 L129.690,28.536 C129.690,36.704 129.772,42.954 129.940,47.286 ZM126.190,27.786 L105.440,27.786 L105.440,43.536 L126.190,43.536 L126.190,27.786 ZM109.190,51.536 L113.190,55.36 L111.190,56.536 C111.190,65.704 111.272,72.286 111.440,76.286 L107.690,78.36 L107.690,72.786 L95.440,72.786 L95.440,78.286 L91.690,79.786 C91.854,75.618 91.940,70.829 91.940,65.411 C91.940,59.997 91.854,55.454 91.690,51.786 L95.440,54.36 L107.190,54.36 L109.190,51.536 ZM95.440,71.286 L107.690,71.286 L107.690,55.536 L95.440,55.536 L95.440,71.286 ZM75.690,73.411 C74.354,76.825 71.272,79.36 66.440,80.36 C66.772,77.536 64.522,75.450 59.690,73.786 L59.940,72.786 C64.272,73.786 67.190,74.286 68.690,74.286 C70.190,74.286 71.440,73.161 72.440,70.911 C73.440,68.661 74.440,57.286 75.440,36.786 L70.690,36.786 C69.22,48.454 65.940,57.411 61.440,63.661 C56.940,69.911 51.272,74.868 44.441,78.536 L43.941,77.786 C50.440,73.122 55.522,67.704 59.190,61.536 C62.854,55.372 65.440,47.122 66.940,36.786 L61.690,36.786 C58.854,48.286 52.940,57.704 43.941,65.36 L43.441,64.286 C51.272,55.454 56.104,46.286 57.940,36.786 L53.440,36.786 C50.273,42.286 47.355,46.454 44.691,49.286 L43.941,48.786 C46.941,43.954 49.315,39.79 51.65,34.161 C52.815,29.247 53.855,25.372 54.190,22.536 L59.690,25.536 L57.690,26.786 C56.522,29.454 55.272,32.286 53.940,35.286 L74.940,35.286 L76.690,32.786 L80.690,36.36 L78.940,37.536 C78.104,58.36 77.22,69.997 75.690,73.411 ZM39.191,54.286 L46.941,51.36 L47.190,52.36 L39.191,56.536 C39.191,67.372 39.273,74.868 39.441,79.36 L35.691,80.786 C35.855,77.286 35.941,69.704 35.941,58.36 C30.105,60.704 26.855,62.786 26.191,64.286 L23.441,60.36 C26.273,59.372 30.441,57.872 35.941,55.536 L35.941,40.536 L29.441,40.536 C27.605,44.536 25.523,48.204 23.191,51.536 L22.441,51.36 C24.273,47.204 25.730,43.36 26.816,38.536 C27.898,34.36 28.441,30.622 28.441,28.286 L34.191,31.36 L31.941,32.536 C31.273,34.372 30.523,36.536 29.691,39.36 L35.941,39.36 C35.941,31.36 35.855,25.622 35.691,22.786 L41.441,25.286 L39.191,27.36 L39.191,39.36 L40.941,39.36 L43.691,36.36 L47.690,40.536 L39.191,40.536 L39.191,54.286 ZM127.440,118.36 L139.190,118.36 L141.190,115.536 L145.190,119.36 L143.190,120.536 C143.190,129.703 143.272,136.285 143.440,140.285 L139.690,142.35 L139.690,136.785 L127.440,136.785 L127.440,142.285 L123.690,143.785 C123.854,139.617 123.940,134.828 123.940,129.411 C123.940,123.996 123.854,119.454 123.690,115.786 L127.440,118.36 ZM127.440,135.285 L139.690,135.285 L139.690,119.536 L127.440,119.536 L127.440,135.285 ZM137.690,90.286 L157.690,90.286 L159.690,87.786 L163.690,91.36 L161.690,92.536 C161.690,100.704 161.772,106.954 161.940,111.286 L158.190,112.786 L158.190,109.36 L137.440,109.36 L137.440,112.286 L133.690,113.536 C133.854,108.204 133.940,103.497 133.940,99.411 C133.940,95.329 133.854,91.536 133.690,88.36 L137.690,90.286 ZM137.440,107.536 L158.190,107.536 L158.190,91.786 L137.440,91.786 L137.440,107.536 ZM154.940,118.36 L167.440,118.36 L169.440,115.536 L173.440,118.786 L171.440,120.286 C171.440,132.285 171.522,139.117 171.690,140.785 L167.940,142.285 L167.940,136.785 L154.940,136.785 L154.940,141.535 L151.190,143.35 C151.354,139.200 151.440,134.621 151.440,129.286 C151.440,123.954 151.354,119.372 151.190,115.536 L154.940,118.36 ZM154.940,135.285 L167.940,135.285 L167.940,119.536 L154.940,119.536 L154.940,135.285 ZM187.189,103.286 L184.939,103.786 L182.939,101.786 L194.439,101.786 C194.439,96.622 194.353,91.536 194.189,86.536 L200.189,89.536 L197.939,91.536 L197.939,101.786 L202.939,101.786 L205.939,98.786 L210.439,103.286 L197.939,103.286 L197.939,109.786 C201.271,111.122 203.478,112.329 204.564,113.411 C205.646,114.497 206.189,115.536 206.189,116.536 C206.189,117.536 205.978,118.454 205.564,119.286 C205.146,120.122 204.771,120.536 204.439,120.536 C203.939,120.536 203.353,119.704 202.689,118.36 C201.689,115.536 200.103,113.204 197.939,111.36 C197.939,129.371 198.21,140.35 198.189,143.35 L194.189,145.35 C194.353,136.871 194.439,126.871 194.439,115.36 C190.771,122.36 187.21,127.454 183.189,131.286 L182.439,130.536 C188.604,121.704 192.521,112.622 194.189,103.286 L187.189,103.286 ZM231.689,117.286 L236.189,121.786 L213.189,121.786 L210.939,122.286 L208.939,120.286 L228.689,120.286 L231.689,117.286 ZM234.689,102.286 L239.189,106.786 L214.439,106.786 C212.271,106.786 210.271,107.36 208.439,107.536 L206.189,105.286 L223.689,105.286 C227.189,96.786 229.353,90.536 230.189,86.536 L235.689,89.786 L233.439,91.36 C230.771,95.872 228.21,100.622 225.189,105.286 L231.689,105.286 L234.689,102.286 ZM236.439,135.785 L241.439,140.785 L210.189,140.785 C207.689,140.785 205.689,141.35 204.189,141.535 L201.939,139.285 L232.939,139.285 L236.439,135.785 ZM264.439,113.36 L288.689,113.36 L290.689,110.786 L294.689,113.786 L292.439,115.536 C292.439,126.371 292.521,133.35 292.689,135.535 L288.939,137.285 L288.939,134.35 L263.939,134.35 L263.939,137.35 L260.189,138.785 C260.353,134.285 260.439,129.746 260.439,125.161 C260.439,120.579 260.353,115.954 260.189,111.286 L264.439,113.36 ZM263.939,132.535 L288.939,132.535 L288.939,124.536 L263.939,124.536 L263.939,132.535 ZM263.939,123.36 L288.939,123.36 L288.939,114.536 L263.939,114.536 L263.939,123.36 ZM297.689,136.785 L302.939,142.35 L257.939,142.35 C255.271,142.35 253.189,142.285 251.689,142.785 L249.439,140.535 L293.939,140.535 L297.689,136.785 ZM386.188,96.286 C385.352,93.786 383.852,91.286 381.688,88.786 L382.188,88.286 C384.688,89.622 386.602,90.872 387.938,92.36 C389.270,93.204 389.938,94.411 389.938,95.661 C389.938,96.911 389.645,97.786 389.63,98.286 C388.477,98.786 388.102,99.36 387.938,99.36 C387.270,99.36 386.688,98.122 386.188,96.286 ZM387.188,106.286 L390.438,109.536 L388.188,111.36 L388.188,133.535 L396.938,125.786 L397.688,126.536 C391.688,133.703 388.270,138.371 387.438,140.535 L383.938,136.785 C384.602,136.121 384.938,134.871 384.938,133.35 L384.938,110.286 L383.688,110.286 C381.520,110.286 379.520,110.536 377.688,111.36 L375.438,108.786 L384.688,108.786 L387.188,106.286 ZM419.63,125.911 C422.645,121.661 425.102,118.122 426.438,115.286 L430.938,119.286 L428.688,120.36 C425.520,123.704 422.520,127.36 419.688,130.36 C423.688,132.371 426.645,134.328 428.563,135.910 C430.477,137.496 431.395,138.950 431.313,140.285 C431.227,141.617 430.813,142.535 430.63,143.35 C429.313,143.535 428.438,142.617 427.438,140.285 C426.270,137.785 423.520,134.621 419.188,130.786 C411.352,137.621 402.938,141.949 393.938,143.785 L393.688,142.785 C398.188,141.449 402.645,139.367 407.63,136.535 C411.477,133.703 415.477,130.161 419.63,125.911 ZM487.187,72.786 C489.851,69.122 492.62,65.329 493.812,61.411 C495.562,57.497 496.937,53.286 497.937,48.786 L503.187,52.36 L500.937,53.286 C497.601,61.286 493.269,67.954 487.937,73.286 L487.187,72.786 ZM504.812,75.36 C506.394,75.36 507.187,74.36 507.187,72.36 L507.187,49.36 C507.187,46.372 507.101,43.622 506.937,40.786 L512.687,43.36 L510.687,44.786 L510.687,74.536 C510.851,77.368 509.19,79.368 505.187,80.536 C505.187,78.700 502.601,76.868 497.437,75.36 L497.687,74.36 C500.851,74.704 503.226,75.36 504.812,75.36 ZM539.687,86.786 L545.187,90.36 C543.851,90.872 541.769,94.286 538.937,100.286 L552.437,100.286 L555.187,97.536 L558.937,101.286 L556.687,103.36 C556.351,122.536 555.894,133.578 555.312,136.160 C554.726,138.746 553.894,140.535 552.812,141.535 C551.726,142.535 550.19,143.449 547.687,144.285 C546.851,141.617 544.101,139.617 539.437,138.285 L539.437,137.35 C543.601,137.871 546.601,138.285 548.437,138.285 C550.269,138.285 551.394,136.871 551.812,134.35 C552.226,131.203 552.601,120.454 552.937,101.786 L538.437,101.786 C535.437,106.622 532.269,110.704 528.937,114.36 L528.187,113.536 C531.687,108.204 534.269,103.454 535.937,99.286 C537.601,95.122 538.851,90.954 539.687,86.786 ZM542.187,117.911 C542.851,119.329 543.187,120.372 543.187,121.36 C543.187,122.204 542.851,123.204 542.187,124.36 C541.519,124.871 541.19,125.286 540.687,125.286 C540.19,125.286 539.519,124.121 539.187,121.786 C538.519,118.454 537.19,115.204 534.687,112.36 L535.187,111.286 C539.187,114.286 541.519,116.497 542.187,117.911 ZM547.687,66.786 L543.937,68.36 C544.101,62.204 544.187,57.79 544.187,52.661 C544.187,48.247 544.101,43.622 543.937,38.786 L547.937,40.786 L561.687,40.786 L563.187,38.286 L567.437,41.536 L565.437,43.286 L565.437,54.36 C565.437,56.872 565.519,60.204 565.687,64.36 L561.937,65.536 L561.937,61.36 L547.687,61.36 L547.687,66.786 ZM561.937,59.536 L561.937,42.286 L547.687,42.286 L547.687,59.536 L561.937,59.536 ZM575.187,117.911 C575.519,113.161 575.601,102.954 575.437,87.286 L579.187,89.286 L614.436,89.286 L616.186,87.36 L620.186,90.36 L618.436,91.286 C618.436,94.454 618.518,97.122 618.686,99.286 L614.936,100.786 L614.936,98.786 L579.187,98.786 C579.187,106.954 579.62,113.286 578.812,117.786 C578.562,122.286 577.601,126.871 575.937,131.536 C574.269,136.203 571.519,140.535 567.687,144.535 L566.937,144.35 C569.769,139.367 571.769,135.35 572.937,131.36 C574.101,127.36 574.851,122.661 575.187,117.911 ZM579.187,97.286 L614.936,97.286 L614.936,90.786 L579.187,90.786 L579.187,97.286 ZM585.937,124.536 L599.436,124.536 L599.436,119.536 L589.686,119.536 L589.686,120.786 L586.187,121.786 C586.351,119.286 586.437,117.122 586.437,115.286 C586.437,113.454 586.351,111.536 586.187,109.536 L589.686,111.286 L599.436,111.286 L599.436,106.36 C594.101,106.204 588.851,106.286 583.687,106.286 L583.687,105.286 C589.686,104.954 595.643,104.411 601.561,103.661 C607.475,102.911 611.686,101.954 614.186,100.786 L618.186,105.36 C615.850,105.36 610.686,105.286 602.686,105.786 L602.686,111.286 L612.936,111.286 L614.686,109.36 L618.436,111.786 L616.436,113.286 C616.436,116.122 616.518,118.454 616.686,120.286 L613.186,121.536 L613.186,119.536 L602.686,119.536 L602.686,124.536 L616.936,124.536 L618.686,122.286 L622.436,125.286 L620.686,126.536 L620.686,138.285 C620.850,141.285 619.186,143.449 615.686,144.785 C615.518,142.949 613.268,141.367 608.936,140.35 L608.936,139.35 C612.100,139.367 614.311,139.535 615.561,139.535 C616.811,139.535 617.436,138.867 617.436,137.535 L617.436,126.36 L602.686,126.36 L602.686,132.285 L609.686,132.35 C609.18,130.536 608.350,129.286 607.686,128.286 L608.436,127.786 C612.268,130.621 614.225,132.660 614.311,133.910 C614.393,135.160 614.100,136.78 613.436,136.660 C612.768,137.246 612.350,137.535 612.186,137.535 C611.686,137.535 611.350,137.121 611.186,136.285 C610.850,135.121 610.518,134.35 610.186,133.35 C599.686,134.371 593.601,135.785 591.936,137.285 L589.686,133.35 L599.436,132.535 L599.436,126.36 L585.937,126.36 L585.937,142.535 L582.437,144.285 C582.601,142.117 582.687,138.825 582.687,134.410 C582.687,129.996 582.601,126.121 582.437,122.786 L585.937,124.536 ZM599.436,112.786 L589.686,112.786 L589.686,118.36 L599.436,118.36 L599.436,112.786 ZM602.686,118.36 L613.186,118.36 L613.186,112.786 L602.686,112.786 L602.686,118.36 ZM635.686,102.536 L636.686,102.536 C637.186,107.536 637.268,110.661 636.936,111.911 C636.600,113.161 636.61,113.997 635.311,114.411 C634.561,114.829 633.936,115.36 633.436,115.36 C633.100,115.36 632.643,114.911 632.61,114.661 C631.475,114.411 631.186,114.204 631.186,114.36 C631.186,113.372 631.768,112.372 632.936,111.36 C634.436,109.204 635.350,106.372 635.686,102.536 ZM639.936,86.286 L645.936,89.36 L643.686,90.786 L643.686,99.286 C646.350,100.286 648.268,101.204 649.436,102.36 C650.600,102.872 651.100,103.954 650.936,105.286 C650.768,106.622 650.350,107.536 649.686,108.36 C649.18,108.536 648.350,107.872 647.686,106.36 C646.850,104.204 645.518,102.372 643.686,100.536 L643.686,133.785 C643.686,136.621 643.768,139.700 643.936,143.35 L639.936,144.785 C640.100,139.950 640.186,135.621 640.186,131.786 L640.186,96.536 C640.186,93.704 640.100,90.286 639.936,86.286 Z"/>
    <path fill-rule="evenodd" stroke="rgb(228, 255, 0)" stroke-width="2px" stroke-linecap="square"
          stroke-linejoin="bevel" fill="rgb(228, 255, 0)"
          d="M782.935,37.536 C782.99,58.36 781.17,69.997 779.685,73.411 C778.349,76.825 775.267,79.36 770.435,80.36 C770.767,77.536 768.517,75.450 763.685,73.786 L763.935,72.786 C768.267,73.786 771.185,74.286 772.685,74.286 C774.185,74.286 775.435,73.161 776.435,70.911 C777.435,68.661 778.435,57.286 779.435,36.786 L774.685,36.786 C773.17,48.454 769.935,57.411 765.435,63.661 C760.935,69.911 755.267,74.868 748.435,78.536 L747.935,77.786 C754.435,73.122 759.517,67.704 763.185,61.536 C766.849,55.372 769.435,47.122 770.935,36.786 L765.685,36.786 C762.849,48.286 756.935,57.704 747.935,65.36 L747.435,64.286 C755.267,55.454 760.99,46.286 761.935,36.786 L757.435,36.786 C754.267,42.286 751.349,46.454 748.685,49.286 L747.935,48.786 C750.935,43.954 753.310,39.79 755.60,34.161 C756.810,29.247 757.849,25.372 758.185,22.536 L763.685,25.536 L761.685,26.786 C760.517,29.454 759.267,32.286 757.935,35.286 L778.935,35.286 L780.685,32.786 L784.685,36.36 L782.935,37.536 ZM743.185,54.286 L750.935,51.36 L751.185,52.36 L743.185,56.536 C743.185,67.372 743.267,74.868 743.435,79.36 L739.685,80.786 C739.849,77.286 739.935,69.704 739.935,58.36 C734.100,60.704 730.850,62.786 730.185,64.286 L727.435,60.36 C730.267,59.372 734.435,57.872 739.935,55.536 L739.935,40.536 L733.435,40.536 C731.600,44.536 729.518,48.204 727.185,51.536 L726.435,51.36 C728.268,47.204 729.725,43.36 730.810,38.536 C731.892,34.36 732.435,30.622 732.435,28.286 L738.185,31.36 L735.935,32.536 C735.267,34.372 734.517,36.536 733.685,39.36 L739.935,39.36 C739.935,31.36 739.849,25.622 739.685,22.786 L745.435,25.286 L743.185,27.36 L743.185,39.36 L744.935,39.36 L747.685,36.36 L751.685,40.536 L743.185,40.536 L743.185,54.286 ZM717.436,73.36 C717.600,77.200 715.768,79.868 711.936,81.36 C711.600,78.536 708.850,76.700 703.686,75.536 L703.686,74.286 C706.186,74.622 708.518,74.786 710.686,74.786 C711.850,74.786 712.768,74.661 713.436,74.411 C714.100,74.161 714.350,72.954 714.186,70.786 L714.186,31.536 C714.186,29.36 714.100,26.204 713.936,23.36 L719.436,25.536 L717.436,27.286 L717.436,73.36 ZM705.436,59.36 C705.436,60.704 705.518,62.954 705.686,65.786 L701.936,67.286 C702.100,61.786 702.186,55.579 702.186,48.661 C702.186,41.747 702.100,35.872 701.936,31.36 L707.686,34.36 L705.436,35.786 L705.436,59.36 ZM685.436,32.36 C683.436,32.704 681.350,34.204 679.186,36.536 C676.850,39.36 674.268,41.536 671.436,44.36 L691.436,43.536 C689.936,41.204 688.18,38.786 685.686,36.286 L686.436,35.536 C693.436,40.372 697.100,43.622 697.436,45.286 C697.768,46.954 697.518,48.204 696.686,49.36 C695.850,49.872 695.268,50.286 694.936,50.286 C694.600,50.286 694.350,49.954 694.186,49.286 C693.686,48.122 692.936,46.622 691.936,44.786 C688.268,45.122 684.686,45.454 681.186,45.786 L685.186,47.786 L683.186,49.536 L683.186,57.536 L689.936,57.536 L692.936,54.536 L697.436,59.36 L683.186,59.36 L683.186,71.36 L697.436,68.286 L697.686,69.536 C678.686,74.372 668.436,77.536 666.936,79.36 L664.186,74.36 C667.18,73.704 672.186,72.954 679.686,71.786 L679.686,59.36 L670.186,59.36 L667.186,59.536 L665.186,57.536 L679.686,57.536 L679.686,45.786 C673.686,46.622 670.100,47.536 668.936,48.536 L666.686,44.36 C669.18,43.872 671.436,42.204 673.936,39.36 C676.436,35.872 678.436,32.622 679.936,29.286 L673.436,29.286 C671.268,29.286 669.268,29.536 667.436,30.36 L665.186,27.786 L690.436,27.786 L693.686,24.536 L698.436,29.286 L680.936,29.286 L685.436,32.36 ZM657.936,104.286 L667.686,104.286 C667.686,95.286 667.600,89.454 667.436,86.786 L673.686,89.536 L671.186,91.286 L671.186,104.286 L678.436,104.286 L681.936,100.786 L686.936,105.786 L671.186,105.786 L671.186,119.536 L677.686,119.536 L680.936,116.286 L685.686,121.36 L671.186,121.36 L671.186,138.535 L680.936,138.535 L684.436,135.35 L689.436,140.35 L656.686,140.35 C654.518,140.35 652.518,140.285 650.686,140.785 L648.436,138.535 L667.686,138.535 L667.686,121.36 L662.436,121.36 C660.268,121.36 658.268,121.286 656.436,121.786 L654.186,119.536 L667.686,119.536 L667.686,105.786 L657.436,105.786 C655.268,111.122 652.850,115.454 650.186,118.786 L649.436,118.286 C651.436,114.286 653.100,109.829 654.436,104.911 C655.768,99.997 656.600,95.954 656.936,92.786 L662.686,95.536 L660.436,97.36 L657.936,104.286 ZM652.186,77.286 C651.518,77.286 650.768,76.118 649.936,73.786 C648.768,70.954 646.100,67.122 641.936,62.286 C638.768,67.622 634.393,71.661 628.811,74.411 C623.225,77.161 616.768,79.118 609.436,80.286 L608.936,79.286 C613.600,78.286 617.850,76.950 621.686,75.286 C625.518,73.622 629.100,71.329 632.436,68.411 C635.768,65.497 638.225,61.536 639.811,56.536 C641.393,51.536 642.18,40.622 641.686,23.786 L647.936,26.536 L645.936,28.286 C645.768,37.786 645.475,44.747 645.61,49.161 C644.643,53.579 643.768,57.536 642.436,61.36 C646.268,63.704 649.186,65.872 651.186,67.536 C653.186,69.204 654.186,70.911 654.186,72.661 C654.186,74.411 653.893,75.618 653.311,76.286 C652.725,76.950 652.350,77.286 652.186,77.286 ZM627.686,44.536 C627.18,44.536 626.436,43.454 625.936,41.286 C625.100,38.286 623.100,34.622 619.936,30.286 L620.686,29.536 C627.186,34.36 630.436,37.247 630.436,39.161 C630.436,41.79 630.61,42.454 629.311,43.286 C628.561,44.122 628.18,44.536 627.686,44.536 ZM610.686,64.286 C614.18,62.622 619.850,58.872 628.186,53.36 L628.936,53.786 C622.436,59.454 617.936,63.372 615.436,65.536 C612.936,67.704 610.936,69.872 609.436,72.36 L605.686,67.536 C606.518,66.536 606.936,65.122 606.936,63.286 L606.936,38.536 C606.936,33.536 606.850,29.372 606.686,26.36 L612.936,29.36 L610.686,31.36 L610.686,64.286 ZM581.187,71.286 C581.351,75.618 579.519,78.536 575.687,80.36 C575.351,77.700 572.519,75.786 567.187,74.286 L567.187,73.36 C569.687,73.372 572.144,73.622 574.562,73.786 C576.976,73.954 578.19,72.786 577.687,70.286 L577.687,30.536 L543.187,30.536 C541.19,30.536 539.19,30.786 537.187,31.286 L534.937,29.36 L584.187,29.36 L587.937,25.286 L593.186,30.536 L581.187,30.536 L581.187,71.286 ZM527.687,140.785 L524.187,142.785 L524.187,137.535 L511.187,137.535 L511.187,141.785 L507.687,143.785 C507.851,135.953 507.937,128.161 507.937,120.411 C507.937,112.661 507.851,104.954 507.687,97.286 L511.437,99.536 L513.937,99.536 C515.601,93.872 516.519,89.536 516.687,86.536 L522.187,89.536 C520.519,90.372 518.269,93.704 515.437,99.536 L523.687,99.536 L526.187,97.36 L529.937,100.786 L527.437,102.536 C527.437,122.36 527.519,134.785 527.687,140.785 ZM524.187,101.36 L511.187,101.36 L511.187,117.36 L524.187,117.36 L524.187,101.36 ZM524.187,118.536 L511.187,118.536 L511.187,136.35 L524.187,136.35 L524.187,118.536 ZM528.62,66.36 C528.144,67.872 527.894,69.161 527.312,69.911 C526.726,70.661 526.269,71.36 525.937,71.36 C525.437,71.36 525.19,70.286 524.687,68.786 C524.19,66.622 522.726,63.747 520.812,60.161 C518.894,56.579 516.937,53.536 514.937,51.36 L515.687,50.536 C519.187,53.704 522.101,56.622 524.437,59.286 C526.769,61.954 527.976,64.204 528.62,66.36 ZM518.937,45.536 L518.187,45.36 L521.687,37.786 L499.937,37.786 C496.769,42.786 493.519,46.872 490.187,50.36 L489.437,49.536 C492.601,45.372 495.269,40.579 497.437,35.161 C499.601,29.747 500.937,25.622 501.437,22.786 L507.437,26.536 L504.937,27.786 C503.437,30.622 501.937,33.454 500.437,36.286 L521.187,36.286 L523.687,33.286 L528.687,38.286 C526.19,38.286 522.769,40.704 518.937,45.536 ZM483.437,39.536 L486.937,41.536 L485.187,42.786 L485.187,69.36 C485.187,72.704 485.269,75.786 485.437,78.286 L481.437,80.786 C481.601,73.122 481.687,68.36 481.687,65.536 L481.687,42.786 C478.187,47.954 474.769,52.122 471.437,55.286 L470.687,54.786 C475.851,47.454 479.601,41.79 481.937,35.661 C484.269,30.247 485.937,25.704 486.937,22.36 L492.687,25.786 L490.437,26.786 C488.101,31.122 485.769,35.372 483.437,39.536 ZM466.437,97.786 L482.437,97.786 L485.687,94.536 L490.437,99.286 L466.437,99.286 L466.437,110.536 L487.687,110.536 L491.437,106.786 L496.687,112.36 L463.937,112.36 L468.687,114.786 L466.437,116.286 L466.437,119.36 C478.601,121.872 485.437,124.121 486.937,125.786 C488.437,127.454 489.62,128.911 488.812,130.161 C488.562,131.411 488.187,132.35 487.687,132.35 C487.19,132.35 485.937,131.371 484.437,130.36 C481.937,127.703 475.937,124.454 466.437,120.286 L466.437,135.285 C466.437,138.285 466.519,140.867 466.687,143.35 L462.687,144.785 C462.851,140.285 462.937,136.703 462.937,134.35 L462.937,112.36 L447.438,112.36 C445.270,112.36 443.270,112.286 441.438,112.786 L439.188,110.536 L462.937,110.536 L462.937,94.786 C462.937,92.122 462.851,89.286 462.687,86.286 L468.687,89.286 L466.437,91.36 L466.437,97.786 ZM413.938,101.286 L411.938,102.286 C408.270,106.286 404.852,109.622 401.688,112.286 L417.188,111.536 C418.688,108.872 419.852,106.372 420.688,104.36 L425.688,107.286 L423.188,108.786 C419.352,114.954 415.438,119.872 411.438,123.536 C407.438,127.204 402.438,130.203 396.438,132.535 L395.938,131.536 C404.602,127.204 411.438,121.36 416.438,113.36 C412.938,113.372 409.602,113.829 406.438,114.411 C403.270,114.997 401.102,115.786 399.938,116.786 L397.688,112.286 C399.520,111.954 401.477,110.411 403.563,107.661 C405.645,104.911 407.352,101.954 408.688,98.786 L401.938,98.786 C399.770,98.786 397.770,99.36 395.938,99.536 L393.688,97.286 L425.438,97.286 L428.438,94.286 L432.688,98.786 L410.438,98.786 L413.938,101.286 ZM417.563,73.911 C415.813,75.825 414.395,76.868 413.313,77.36 C412.227,77.200 411.688,77.200 411.688,77.36 C411.688,76.868 411.938,76.618 412.438,76.286 C413.438,75.450 414.395,74.454 415.313,73.286 C416.227,72.122 417.20,70.454 417.688,68.286 C416.188,68.286 415.102,68.36 414.438,67.536 C413.770,67.36 413.313,66.372 413.63,65.536 C412.813,64.704 412.770,63.911 412.938,63.161 C413.102,62.411 413.688,61.661 414.688,60.911 C415.688,60.161 416.938,59.954 418.438,60.286 C419.938,60.622 420.852,61.247 421.188,62.161 C421.520,63.79 421.688,63.954 421.688,64.786 C421.688,65.786 421.438,67.79 420.938,68.661 C420.438,70.247 419.313,71.997 417.563,73.911 ZM414.63,94.661 C413.313,95.411 412.852,95.786 412.688,95.786 C412.188,95.786 411.852,95.372 411.688,94.536 C411.352,93.204 410.895,91.954 410.313,90.786 C409.727,89.622 408.852,88.372 407.688,87.36 L408.188,86.536 C412.188,88.372 414.352,89.997 414.688,91.411 C415.20,92.829 414.813,93.911 414.63,94.661 ZM396.188,67.911 C395.852,72.329 395.63,75.368 393.813,77.36 C392.563,78.700 390.688,79.950 388.188,80.786 C388.20,78.450 384.852,76.286 378.688,74.286 L378.938,73.36 C384.602,74.36 388.145,74.536 389.563,74.536 C390.977,74.536 391.938,72.786 392.438,69.286 C392.938,65.786 393.520,56.536 394.188,41.536 L383.188,41.536 C382.688,48.372 381.727,54.36 380.313,58.536 C378.895,63.36 376.520,67.79 373.188,70.661 C369.852,74.247 364.852,77.618 358.188,80.786 L357.438,80.36 C362.938,76.868 367.188,73.579 370.188,70.161 C373.188,66.747 375.438,62.911 376.938,58.661 C378.438,54.411 379.438,48.704 379.938,41.536 L373.188,41.536 L370.188,42.36 L368.188,40.36 L379.938,40.36 C380.102,32.36 380.20,26.122 379.688,22.286 L385.688,25.36 L383.438,27.36 C383.438,32.204 383.352,36.536 383.188,40.36 L393.688,40.36 L395.938,37.536 L399.688,40.786 L397.688,42.286 C397.20,54.954 396.520,63.497 396.188,67.911 ZM359.438,62.36 C364.102,60.872 368.188,59.704 371.688,58.536 L372.188,59.536 C364.852,62.204 358.977,64.454 354.563,66.286 C350.145,68.122 347.602,69.536 346.938,70.536 L343.438,65.786 C345.938,65.454 350.188,64.454 356.188,62.786 L356.188,34.786 L352.438,34.786 C350.270,34.786 348.270,35.36 346.438,35.536 L344.188,33.286 L364.938,33.286 L367.688,30.536 L371.938,34.786 L359.438,34.786 L359.438,62.36 ZM357.688,86.536 L361.188,90.786 C359.520,90.954 357.352,91.204 354.688,91.536 C352.20,91.872 347.102,92.454 339.938,93.286 C339.270,95.622 338.520,97.872 337.688,100.36 L353.188,100.36 L356.938,96.786 L360.938,101.536 L337.188,101.536 C336.20,104.204 335.20,106.372 334.188,108.36 L360.688,108.36 L364.688,104.536 L369.188,109.536 L333.438,109.536 C332.102,112.36 330.770,114.286 329.438,116.286 L352.938,116.286 L354.688,113.786 L358.438,116.786 L356.688,118.536 C356.688,131.371 356.770,139.617 356.938,143.285 L353.188,145.35 L353.188,141.785 L330.688,141.785 L330.688,144.35 L326.938,145.285 C327.103,142.449 327.188,133.621 327.188,118.786 C322.853,124.286 317.521,128.871 311.189,132.535 L310.689,131.786 C319.21,125.286 325.353,117.872 329.688,109.536 L318.688,109.536 C316.521,109.536 314.521,109.786 312.689,110.286 L310.439,108.36 L330.438,108.36 C331.270,106.372 332.188,104.204 333.188,101.536 L324.938,101.536 C322.770,101.536 320.771,101.786 318.938,102.286 L316.689,100.36 L333.688,100.36 C334.520,98.204 335.188,96.36 335.688,93.536 C331.20,93.872 324.188,94.204 315.189,94.536 L315.189,93.286 C326.520,92.622 335.977,91.622 343.563,90.286 C351.145,88.954 355.852,87.704 357.688,86.536 ZM330.688,140.285 L353.188,140.285 L353.188,134.35 L330.688,134.35 L330.688,140.285 ZM330.688,132.535 L353.188,132.535 L353.188,125.786 L330.688,125.786 L330.688,132.535 ZM330.688,124.286 L353.188,124.286 L353.188,117.786 L330.688,117.786 L330.688,124.286 ZM335.938,79.286 C334.770,79.286 332.602,78.700 329.438,77.536 C326.270,76.368 322.603,73.204 318.439,68.36 C313.271,73.372 307.603,77.368 301.439,80.36 L301.189,79.36 C307.853,74.704 312.939,70.122 316.439,65.286 C313.103,59.122 310.939,50.122 309.939,38.286 L290.189,38.286 L289.939,50.286 L301.439,50.286 L303.689,47.786 L307.439,51.286 L305.189,53.36 C304.689,63.36 304.21,68.829 303.189,70.411 C302.353,71.997 300.771,73.286 298.439,74.286 C297.939,71.954 295.689,70.36 291.689,68.536 L291.689,67.536 C294.853,68.36 297.64,68.372 298.314,68.536 C299.564,68.704 300.353,67.997 300.689,66.411 C301.21,64.829 301.353,59.954 301.689,51.786 L289.939,51.786 C289.439,65.622 285.939,75.286 279.439,80.786 L278.939,80.36 C283.271,73.872 285.564,67.247 285.814,60.161 C286.64,53.79 286.189,47.704 286.189,44.36 C286.189,40.372 286.103,37.204 285.939,34.536 L290.439,36.786 L309.689,36.786 C309.189,31.286 308.771,26.786 308.439,23.286 L314.939,25.786 L313.189,27.786 C313.189,30.454 313.353,33.454 313.689,36.786 L327.438,36.786 L330.938,33.286 L335.938,38.286 L313.689,38.286 C314.689,49.286 316.439,57.36 318.939,61.536 C320.271,59.536 321.603,56.954 322.938,53.786 C324.271,50.622 325.603,47.36 326.938,43.36 L332.188,47.36 L329.938,48.286 C327.103,55.122 324.188,60.704 321.188,65.36 C324.688,69.204 328.353,72.122 332.188,73.786 L335.188,63.36 L336.188,63.286 C335.520,68.454 335.188,71.872 335.188,73.536 C335.188,75.200 335.602,76.786 336.438,78.286 C336.770,78.950 336.602,79.286 335.938,79.286 ZM326.188,34.161 C325.520,34.579 325.103,34.786 324.938,34.786 C324.271,34.786 323.771,34.122 323.438,32.786 C322.938,30.954 321.271,28.286 318.439,24.786 L319.189,24.36 C322.688,26.36 325.21,27.579 326.188,28.661 C327.353,29.747 327.813,30.829 327.563,31.911 C327.313,32.997 326.853,33.747 326.188,34.161 ZM280.189,89.36 L277.939,90.786 L277.939,94.786 L295.189,94.786 L298.689,91.286 L303.689,96.286 L280.689,96.286 C286.521,104.454 294.521,109.372 304.689,111.36 L304.689,111.786 C301.853,112.122 300.271,113.122 299.939,114.786 C290.103,110.622 283.271,104.454 279.439,96.286 L277.939,96.286 C277.939,103.286 278.21,107.872 278.189,110.36 L274.189,111.786 C274.353,107.786 274.439,103.372 274.439,98.536 C267.939,106.704 259.21,112.872 247.689,117.36 L247.189,116.286 C257.521,111.286 265.689,104.622 271.689,96.286 L257.439,96.286 C255.271,96.286 253.271,96.536 251.439,97.36 L249.189,94.786 L274.439,94.786 C274.439,91.786 274.353,88.954 274.189,86.286 L280.189,89.36 ZM265.939,78.36 L252.689,78.36 C248.521,78.36 246.439,76.118 246.439,72.286 L246.439,57.36 C242.103,60.372 237.103,63.204 231.439,65.536 L231.189,64.536 C237.21,61.204 242.103,57.536 246.439,53.536 L246.439,35.536 C246.439,31.872 246.353,27.622 246.189,22.786 L251.939,25.536 L249.939,27.536 L249.939,50.786 C252.271,48.622 254.814,45.872 257.564,42.536 C260.314,39.204 262.271,36.536 263.439,34.536 L267.939,38.786 L265.189,39.536 C260.353,45.36 255.271,50.122 249.939,54.786 L249.939,70.536 C249.939,73.372 251.353,74.786 254.189,74.786 L264.939,74.786 C266.271,74.786 267.103,73.704 267.439,71.536 C267.771,69.372 267.939,66.36 267.939,61.536 L269.189,61.536 C269.521,66.36 269.939,69.36 270.439,70.536 C270.939,72.36 271.853,73.36 273.189,73.536 C271.689,76.536 269.271,78.36 265.939,78.36 ZM227.939,40.36 L231.439,42.36 L229.439,44.36 L229.439,71.286 C229.439,73.122 229.521,75.618 229.689,78.786 L225.689,80.786 C225.853,75.450 225.939,70.372 225.939,65.536 L225.939,43.536 C222.271,49.36 218.771,53.536 215.439,57.36 L214.689,56.286 C218.353,51.122 221.771,45.122 224.939,38.286 C228.103,31.454 230.103,26.286 230.939,22.786 L236.439,26.36 L233.939,27.536 C231.771,32.372 229.771,36.536 227.939,40.36 ZM219.439,98.36 C219.439,99.36 219.103,100.79 218.439,101.161 C217.771,102.247 217.271,102.786 216.939,102.786 C216.439,102.786 215.939,101.704 215.439,99.536 C214.603,96.536 212.939,92.872 210.439,88.536 L211.189,88.36 C215.521,91.872 217.978,94.329 218.564,95.411 C219.146,96.497 219.439,97.372 219.439,98.36 ZM206.439,79.411 C205.939,79.661 205.603,79.200 205.439,78.36 C205.103,76.868 204.603,75.618 203.939,74.286 C193.271,75.618 185.854,76.661 181.690,77.411 C177.522,78.161 174.772,79.36 173.440,80.36 L170.940,75.286 C176.440,74.786 182.354,74.286 188.689,73.786 L188.689,61.786 L179.440,61.786 L179.440,63.786 L175.940,65.786 C176.104,62.622 176.190,59.79 176.190,55.161 C176.190,51.247 176.104,48.454 175.940,46.786 L179.940,48.786 L188.689,48.786 L188.689,38.786 L193.939,41.286 L191.939,43.36 L191.939,48.786 L200.939,48.786 L202.689,46.536 L206.439,49.536 L204.689,51.36 C204.689,56.204 204.771,60.36 204.939,62.536 L201.439,64.36 L201.439,61.786 L191.939,61.786 L191.939,73.536 C196.271,73.204 200.21,72.872 203.189,72.536 C201.853,70.204 200.271,67.954 198.439,65.786 L198.939,65.286 C201.603,66.954 203.814,68.661 205.564,70.411 C207.314,72.161 208.271,73.622 208.439,74.786 C208.603,75.950 208.439,76.950 207.939,77.786 C207.439,78.618 206.939,79.161 206.439,79.411 ZM188.689,50.286 L179.440,50.286 L179.440,60.286 L188.689,60.286 L188.689,50.286 ZM201.439,60.286 L201.439,50.286 L191.939,50.286 L191.939,60.286 L201.439,60.286 ZM181.940,41.36 L178.440,42.286 C178.604,40.122 178.690,37.411 178.690,34.161 C178.690,30.911 178.604,27.704 178.440,24.536 L181.940,26.536 L198.189,26.536 L199.939,24.36 L203.939,27.286 L201.939,28.786 C201.939,34.786 202.21,38.622 202.189,40.286 L198.689,41.536 L198.689,38.786 L188.689,38.786 L181.940,38.786 L181.940,41.36 ZM198.689,37.286 L198.689,28.36 L181.940,28.36 L181.940,37.286 L198.689,37.286 ZM170.940,44.536 L167.440,46.36 L167.440,43.286 L158.940,43.286 L157.690,54.536 L166.440,54.536 L168.190,52.36 L172.190,55.36 L170.440,56.786 C169.604,64.786 168.604,70.454 167.440,73.786 C166.272,77.118 163.772,79.286 159.940,80.286 C160.272,78.286 158.604,76.286 154.940,74.286 L155.190,73.286 C157.190,73.954 158.854,74.454 160.190,74.786 C161.522,75.118 162.565,74.825 163.315,73.911 C164.65,72.997 164.690,71.329 165.190,68.911 C165.690,66.497 166.272,62.204 166.940,56.36 L157.690,56.36 L155.940,58.36 L152.940,55.286 C153.940,54.622 154.604,52.829 154.940,49.911 C155.272,46.997 155.522,43.536 155.690,39.536 L159.190,41.786 L167.440,41.786 L167.440,29.286 L156.690,29.286 L153.940,29.786 L151.940,27.786 L166.940,27.786 L168.690,25.286 L172.690,28.286 L170.690,29.786 C170.690,36.286 170.772,41.204 170.940,44.536 ZM139.690,76.786 L135.940,78.286 L135.940,72.786 L122.940,72.786 L122.940,77.536 L119.190,79.36 C119.354,75.200 119.440,70.622 119.440,65.286 C119.440,59.954 119.354,55.372 119.190,51.536 L122.940,54.36 L135.440,54.36 L137.440,51.536 L141.440,54.786 L139.440,56.286 C139.440,68.286 139.522,75.118 139.690,76.786 ZM135.940,55.536 L122.940,55.536 L122.940,71.286 L135.940,71.286 L135.940,55.536 ZM129.940,47.286 L126.190,48.786 L126.190,45.36 L105.440,45.36 L105.440,48.286 L101.690,49.536 C101.854,44.204 101.940,39.497 101.940,35.411 C101.940,31.329 101.854,27.536 101.690,24.36 L105.690,26.286 L125.690,26.286 L127.690,23.786 L131.690,27.36 L129.690,28.536 C129.690,36.704 129.772,42.954 129.940,47.286 ZM126.190,27.786 L105.440,27.786 L105.440,43.536 L126.190,43.536 L126.190,27.786 ZM109.190,51.536 L113.190,55.36 L111.190,56.536 C111.190,65.704 111.272,72.286 111.440,76.286 L107.690,78.36 L107.690,72.786 L95.440,72.786 L95.440,78.286 L91.690,79.786 C91.854,75.618 91.940,70.829 91.940,65.411 C91.940,59.997 91.854,55.454 91.690,51.786 L95.440,54.36 L107.190,54.36 L109.190,51.536 ZM95.440,71.286 L107.690,71.286 L107.690,55.536 L95.440,55.536 L95.440,71.286 ZM75.690,73.411 C74.354,76.825 71.272,79.36 66.440,80.36 C66.772,77.536 64.522,75.450 59.690,73.786 L59.940,72.786 C64.272,73.786 67.190,74.286 68.690,74.286 C70.190,74.286 71.440,73.161 72.440,70.911 C73.440,68.661 74.440,57.286 75.440,36.786 L70.690,36.786 C69.22,48.454 65.940,57.411 61.440,63.661 C56.940,69.911 51.272,74.868 44.441,78.536 L43.941,77.786 C50.440,73.122 55.522,67.704 59.190,61.536 C62.854,55.372 65.440,47.122 66.940,36.786 L61.690,36.786 C58.854,48.286 52.940,57.704 43.941,65.36 L43.441,64.286 C51.272,55.454 56.104,46.286 57.940,36.786 L53.440,36.786 C50.273,42.286 47.355,46.454 44.691,49.286 L43.941,48.786 C46.941,43.954 49.315,39.79 51.65,34.161 C52.815,29.247 53.855,25.372 54.190,22.536 L59.690,25.536 L57.690,26.786 C56.522,29.454 55.272,32.286 53.940,35.286 L74.940,35.286 L76.690,32.786 L80.690,36.36 L78.940,37.536 C78.104,58.36 77.22,69.997 75.690,73.411 ZM39.191,54.286 L46.941,51.36 L47.190,52.36 L39.191,56.536 C39.191,67.372 39.273,74.868 39.441,79.36 L35.691,80.786 C35.855,77.286 35.941,69.704 35.941,58.36 C30.105,60.704 26.855,62.786 26.191,64.286 L23.441,60.36 C26.273,59.372 30.441,57.872 35.941,55.536 L35.941,40.536 L29.441,40.536 C27.605,44.536 25.523,48.204 23.191,51.536 L22.441,51.36 C24.273,47.204 25.730,43.36 26.816,38.536 C27.898,34.36 28.441,30.622 28.441,28.286 L34.191,31.36 L31.941,32.536 C31.273,34.372 30.523,36.536 29.691,39.36 L35.941,39.36 C35.941,31.36 35.855,25.622 35.691,22.786 L41.441,25.286 L39.191,27.36 L39.191,39.36 L40.941,39.36 L43.691,36.36 L47.690,40.536 L39.191,40.536 L39.191,54.286 ZM127.440,118.36 L139.190,118.36 L141.190,115.536 L145.190,119.36 L143.190,120.536 C143.190,129.703 143.272,136.285 143.440,140.285 L139.690,142.35 L139.690,136.785 L127.440,136.785 L127.440,142.285 L123.690,143.785 C123.854,139.617 123.940,134.828 123.940,129.411 C123.940,123.996 123.854,119.454 123.690,115.786 L127.440,118.36 ZM127.440,135.285 L139.690,135.285 L139.690,119.536 L127.440,119.536 L127.440,135.285 ZM137.690,90.286 L157.690,90.286 L159.690,87.786 L163.690,91.36 L161.690,92.536 C161.690,100.704 161.772,106.954 161.940,111.286 L158.190,112.786 L158.190,109.36 L137.440,109.36 L137.440,112.286 L133.690,113.536 C133.854,108.204 133.940,103.497 133.940,99.411 C133.940,95.329 133.854,91.536 133.690,88.36 L137.690,90.286 ZM137.440,107.536 L158.190,107.536 L158.190,91.786 L137.440,91.786 L137.440,107.536 ZM154.940,118.36 L167.440,118.36 L169.440,115.536 L173.440,118.786 L171.440,120.286 C171.440,132.285 171.522,139.117 171.690,140.785 L167.940,142.285 L167.940,136.785 L154.940,136.785 L154.940,141.535 L151.190,143.35 C151.354,139.200 151.440,134.621 151.440,129.286 C151.440,123.954 151.354,119.372 151.190,115.536 L154.940,118.36 ZM154.940,135.285 L167.940,135.285 L167.940,119.536 L154.940,119.536 L154.940,135.285 ZM187.189,103.286 L184.939,103.786 L182.939,101.786 L194.439,101.786 C194.439,96.622 194.353,91.536 194.189,86.536 L200.189,89.536 L197.939,91.536 L197.939,101.786 L202.939,101.786 L205.939,98.786 L210.439,103.286 L197.939,103.286 L197.939,109.786 C201.271,111.122 203.478,112.329 204.564,113.411 C205.646,114.497 206.189,115.536 206.189,116.536 C206.189,117.536 205.978,118.454 205.564,119.286 C205.146,120.122 204.771,120.536 204.439,120.536 C203.939,120.536 203.353,119.704 202.689,118.36 C201.689,115.536 200.103,113.204 197.939,111.36 C197.939,129.371 198.21,140.35 198.189,143.35 L194.189,145.35 C194.353,136.871 194.439,126.871 194.439,115.36 C190.771,122.36 187.21,127.454 183.189,131.286 L182.439,130.536 C188.604,121.704 192.521,112.622 194.189,103.286 L187.189,103.286 ZM231.689,117.286 L236.189,121.786 L213.189,121.786 L210.939,122.286 L208.939,120.286 L228.689,120.286 L231.689,117.286 ZM234.689,102.286 L239.189,106.786 L214.439,106.786 C212.271,106.786 210.271,107.36 208.439,107.536 L206.189,105.286 L223.689,105.286 C227.189,96.786 229.353,90.536 230.189,86.536 L235.689,89.786 L233.439,91.36 C230.771,95.872 228.21,100.622 225.189,105.286 L231.689,105.286 L234.689,102.286 ZM236.439,135.785 L241.439,140.785 L210.189,140.785 C207.689,140.785 205.689,141.35 204.189,141.535 L201.939,139.285 L232.939,139.285 L236.439,135.785 ZM264.439,113.36 L288.689,113.36 L290.689,110.786 L294.689,113.786 L292.439,115.536 C292.439,126.371 292.521,133.35 292.689,135.535 L288.939,137.285 L288.939,134.35 L263.939,134.35 L263.939,137.35 L260.189,138.785 C260.353,134.285 260.439,129.746 260.439,125.161 C260.439,120.579 260.353,115.954 260.189,111.286 L264.439,113.36 ZM263.939,132.535 L288.939,132.535 L288.939,124.536 L263.939,124.536 L263.939,132.535 ZM263.939,123.36 L288.939,123.36 L288.939,114.536 L263.939,114.536 L263.939,123.36 ZM297.689,136.785 L302.939,142.35 L257.939,142.35 C255.271,142.35 253.189,142.285 251.689,142.785 L249.439,140.535 L293.939,140.535 L297.689,136.785 ZM386.188,96.286 C385.352,93.786 383.852,91.286 381.688,88.786 L382.188,88.286 C384.688,89.622 386.602,90.872 387.938,92.36 C389.270,93.204 389.938,94.411 389.938,95.661 C389.938,96.911 389.645,97.786 389.63,98.286 C388.477,98.786 388.102,99.36 387.938,99.36 C387.270,99.36 386.688,98.122 386.188,96.286 ZM387.188,106.286 L390.438,109.536 L388.188,111.36 L388.188,133.535 L396.938,125.786 L397.688,126.536 C391.688,133.703 388.270,138.371 387.438,140.535 L383.938,136.785 C384.602,136.121 384.938,134.871 384.938,133.35 L384.938,110.286 L383.688,110.286 C381.520,110.286 379.520,110.536 377.688,111.36 L375.438,108.786 L384.688,108.786 L387.188,106.286 ZM419.63,125.911 C422.645,121.661 425.102,118.122 426.438,115.286 L430.938,119.286 L428.688,120.36 C425.520,123.704 422.520,127.36 419.688,130.36 C423.688,132.371 426.645,134.328 428.563,135.910 C430.477,137.496 431.395,138.950 431.313,140.285 C431.227,141.617 430.813,142.535 430.63,143.35 C429.313,143.535 428.438,142.617 427.438,140.285 C426.270,137.785 423.520,134.621 419.188,130.786 C411.352,137.621 402.938,141.949 393.938,143.785 L393.688,142.785 C398.188,141.449 402.645,139.367 407.63,136.535 C411.477,133.703 415.477,130.161 419.63,125.911 ZM487.187,72.786 C489.851,69.122 492.62,65.329 493.812,61.411 C495.562,57.497 496.937,53.286 497.937,48.786 L503.187,52.36 L500.937,53.286 C497.601,61.286 493.269,67.954 487.937,73.286 L487.187,72.786 ZM504.812,75.36 C506.394,75.36 507.187,74.36 507.187,72.36 L507.187,49.36 C507.187,46.372 507.101,43.622 506.937,40.786 L512.687,43.36 L510.687,44.786 L510.687,74.536 C510.851,77.368 509.19,79.368 505.187,80.536 C505.187,78.700 502.601,76.868 497.437,75.36 L497.687,74.36 C500.851,74.704 503.226,75.36 504.812,75.36 ZM539.687,86.786 L545.187,90.36 C543.851,90.872 541.769,94.286 538.937,100.286 L552.437,100.286 L555.187,97.536 L558.937,101.286 L556.687,103.36 C556.351,122.536 555.894,133.578 555.312,136.160 C554.726,138.746 553.894,140.535 552.812,141.535 C551.726,142.535 550.19,143.449 547.687,144.285 C546.851,141.617 544.101,139.617 539.437,138.285 L539.437,137.35 C543.601,137.871 546.601,138.285 548.437,138.285 C550.269,138.285 551.394,136.871 551.812,134.35 C552.226,131.203 552.601,120.454 552.937,101.786 L538.437,101.786 C535.437,106.622 532.269,110.704 528.937,114.36 L528.187,113.536 C531.687,108.204 534.269,103.454 535.937,99.286 C537.601,95.122 538.851,90.954 539.687,86.786 ZM542.187,117.911 C542.851,119.329 543.187,120.372 543.187,121.36 C543.187,122.204 542.851,123.204 542.187,124.36 C541.519,124.871 541.19,125.286 540.687,125.286 C540.19,125.286 539.519,124.121 539.187,121.786 C538.519,118.454 537.19,115.204 534.687,112.36 L535.187,111.286 C539.187,114.286 541.519,116.497 542.187,117.911 ZM547.687,66.786 L543.937,68.36 C544.101,62.204 544.187,57.79 544.187,52.661 C544.187,48.247 544.101,43.622 543.937,38.786 L547.937,40.786 L561.687,40.786 L563.187,38.286 L567.437,41.536 L565.437,43.286 L565.437,54.36 C565.437,56.872 565.519,60.204 565.687,64.36 L561.937,65.536 L561.937,61.36 L547.687,61.36 L547.687,66.786 ZM561.937,59.536 L561.937,42.286 L547.687,42.286 L547.687,59.536 L561.937,59.536 ZM575.187,117.911 C575.519,113.161 575.601,102.954 575.437,87.286 L579.187,89.286 L614.436,89.286 L616.186,87.36 L620.186,90.36 L618.436,91.286 C618.436,94.454 618.518,97.122 618.686,99.286 L614.936,100.786 L614.936,98.786 L579.187,98.786 C579.187,106.954 579.62,113.286 578.812,117.786 C578.562,122.286 577.601,126.871 575.937,131.536 C574.269,136.203 571.519,140.535 567.687,144.535 L566.937,144.35 C569.769,139.367 571.769,135.35 572.937,131.36 C574.101,127.36 574.851,122.661 575.187,117.911 ZM579.187,97.286 L614.936,97.286 L614.936,90.786 L579.187,90.786 L579.187,97.286 ZM585.937,124.536 L599.436,124.536 L599.436,119.536 L589.686,119.536 L589.686,120.786 L586.187,121.786 C586.351,119.286 586.437,117.122 586.437,115.286 C586.437,113.454 586.351,111.536 586.187,109.536 L589.686,111.286 L599.436,111.286 L599.436,106.36 C594.101,106.204 588.851,106.286 583.687,106.286 L583.687,105.286 C589.686,104.954 595.643,104.411 601.561,103.661 C607.475,102.911 611.686,101.954 614.186,100.786 L618.186,105.36 C615.850,105.36 610.686,105.286 602.686,105.786 L602.686,111.286 L612.936,111.286 L614.686,109.36 L618.436,111.786 L616.436,113.286 C616.436,116.122 616.518,118.454 616.686,120.286 L613.186,121.536 L613.186,119.536 L602.686,119.536 L602.686,124.536 L616.936,124.536 L618.686,122.286 L622.436,125.286 L620.686,126.536 L620.686,138.285 C620.850,141.285 619.186,143.449 615.686,144.785 C615.518,142.949 613.268,141.367 608.936,140.35 L608.936,139.35 C612.100,139.367 614.311,139.535 615.561,139.535 C616.811,139.535 617.436,138.867 617.436,137.535 L617.436,126.36 L602.686,126.36 L602.686,132.285 L609.686,132.35 C609.18,130.536 608.350,129.286 607.686,128.286 L608.436,127.786 C612.268,130.621 614.225,132.660 614.311,133.910 C614.393,135.160 614.100,136.78 613.436,136.660 C612.768,137.246 612.350,137.535 612.186,137.535 C611.686,137.535 611.350,137.121 611.186,136.285 C610.850,135.121 610.518,134.35 610.186,133.35 C599.686,134.371 593.601,135.785 591.936,137.285 L589.686,133.35 L599.436,132.535 L599.436,126.36 L585.937,126.36 L585.937,142.535 L582.437,144.285 C582.601,142.117 582.687,138.825 582.687,134.410 C582.687,129.996 582.601,126.121 582.437,122.786 L585.937,124.536 ZM599.436,112.786 L589.686,112.786 L589.686,118.36 L599.436,118.36 L599.436,112.786 ZM602.686,118.36 L613.186,118.36 L613.186,112.786 L602.686,112.786 L602.686,118.36 ZM635.686,102.536 L636.686,102.536 C637.186,107.536 637.268,110.661 636.936,111.911 C636.600,113.161 636.61,113.997 635.311,114.411 C634.561,114.829 633.936,115.36 633.436,115.36 C633.100,115.36 632.643,114.911 632.61,114.661 C631.475,114.411 631.186,114.204 631.186,114.36 C631.186,113.372 631.768,112.372 632.936,111.36 C634.436,109.204 635.350,106.372 635.686,102.536 ZM639.936,86.286 L645.936,89.36 L643.686,90.786 L643.686,99.286 C646.350,100.286 648.268,101.204 649.436,102.36 C650.600,102.872 651.100,103.954 650.936,105.286 C650.768,106.622 650.350,107.536 649.686,108.36 C649.18,108.536 648.350,107.872 647.686,106.36 C646.850,104.204 645.518,102.372 643.686,100.536 L643.686,133.785 C643.686,136.621 643.768,139.700 643.936,143.35 L639.936,144.785 C640.100,139.950 640.186,135.621 640.186,131.786 L640.186,96.536 C640.186,93.704 640.100,90.286 639.936,86.286 Z"/>
</svg>