<svg 
 xmlns="http://www.w3.org/2000/svg"
 xmlns:xlink="http://www.w3.org/1999/xlink"
 width="481px" height="486px">
<path fill-rule="evenodd"  stroke="rgb(0, 0, 0)" stroke-width="20px" stroke-linecap="butt" stroke-linejoin="miter" fill="none"
 d="M122.647,242.515 C104.466,242.515 101.819,242.515 101.819,242.515 C75.116,242.515 20.717,299.261 20.717,299.261 C20.717,299.261 20.717,264.730 20.717,242.138 C20.717,177.34 20.717,68.946 20.717,68.946 C20.717,42.243 42.364,20.597 69.66,20.597 L289.424,20.597 C316.127,20.597 337.773,42.243 337.773,68.946 C337.773,68.946 337.773,92.821 337.773,132.981 C337.773,151.942 337.773,165.898 337.773,165.898 "/>
<path fill-rule="evenodd"  stroke="rgb(0, 0, 0)" stroke-width="20px" stroke-linecap="round" stroke-linejoin="round" fill="none"
 d="M216.121,159.789 L170.695,67.91 L126.709,161.348 "/>
<path fill-rule="evenodd"  stroke="rgb(0, 0, 0)" stroke-width="20px" stroke-linecap="round" stroke-linejoin="round" fill="none"
 d="M142.305,133.788 L203.131,133.788 "/>
<path fill-rule="evenodd"  stroke="rgb(0, 0, 0)" stroke-width="20px" stroke-linecap="butt" stroke-linejoin="miter" fill="none"
 d="M412.80,176.753 L181.252,176.753 C154.550,176.753 132.903,198.400 132.903,225.102 L132.903,360.791 C132.903,387.494 154.550,409.140 181.252,409.140 L379.327,409.140 C406.30,409.140 460.429,465.886 460.429,465.886 C460.429,465.886 460.429,431.356 460.429,408.763 C460.429,343.660 460.429,225.102 460.429,225.102 C460.429,198.400 438.782,176.753 412.80,176.753 Z"/>
<path fill-rule="evenodd"  fill="rgb(0, 0, 0)"
 d="M347.147,329.609 C328.867,324.286 314.443,317.927 303.874,310.536 C309.40,304.814 313.430,298.417 317.47,291.343 C320.662,284.271 323.741,276.244 326.286,267.263 L342.617,267.263 L342.617,251.50 L303.398,251.50 C301.568,242.706 300.257,237.421 299.464,235.196 L279.437,238.57 C280.310,240.998 281.422,245.328 282.774,251.50 L239.740,251.50 L239.740,267.263 L255.833,267.263 C258.614,276.244 261.872,284.250 265.608,291.283 C269.343,298.317 273.754,304.694 278.841,310.416 C273.595,314.153 267.436,317.649 260.363,320.907 C253.289,324.166 244.944,327.424 235.329,330.682 L243.316,347.967 C253.646,343.914 262.766,339.801 270.675,335.629 C278.582,331.457 285.516,326.986 291.477,322.218 C297.595,326.986 304.608,331.418 312.517,335.510 C320.424,339.602 329.583,343.596 339.995,347.490 L347.147,329.609 ZM308.47,267.263 C306.139,273.938 303.833,279.899 301.133,285.144 C298.430,290.389 295.92,295.199 291.119,299.568 C283.251,290.985 277.410,280.217 273.595,267.263 L308.47,267.263 Z"/>
</svg>