<svg
        xmlns:xlink="http://www.w3.org/1999/xlink"
        xmlns="http://www.w3.org/2000/svg"
        width="560.6px" height="65.4px">
    <path fill-rule="evenodd" stroke="rgb(0, 0, 0)" stroke-width="1.6px" stroke-linecap="butt" stroke-linejoin="miter"
          fill="rgb(0, 0, 0)"
          d="M204.627,39.838 C205.373,49.785 212.499,56.89 221.697,56.89 C228.243,56.89 233.964,53.895 238.94,46.798 L242.527,49.845 C242.527,49.845 236.174,61.559 221.863,61.559 C208.522,61.559 198.743,51.682 198.743,39.166 C198.743,25.904 208.764,15.709 222.685,15.709 C235.861,15.709 245.390,24.505 245.390,39.424 C245.390,39.590 245.390,39.673 245.390,39.838 L204.627,39.838 ZM221.856,21.97 C213.404,21.97 206.201,25.582 204.793,35.31 L239.93,35.31 C236.938,25.85 231.138,21.97 221.856,21.97 ZM182.133,34.34 C182.276,36.323 182.133,60.621 182.133,60.621 L176.906,60.621 C176.906,60.621 176.802,33.951 176.906,31.278 C177.49,27.602 179.266,15.818 193.307,15.717 L193.307,20.788 C186.91,21.451 182.276,26.594 182.133,34.34 ZM150.333,61.803 C142.779,62.18 137.188,58.588 134.685,54.9 C131.732,48.607 132.182,41.605 132.182,37.105 C132.182,30.808 132.182,15.806 132.182,15.806 L137.817,15.806 C137.817,15.806 137.935,34.356 137.817,40.416 C137.759,43.400 138.228,48.489 140.209,51.163 C142.249,53.918 145.870,55.866 150.426,55.685 C155.67,55.501 158.297,53.505 159.953,50.782 C161.500,48.239 161.622,43.407 161.679,40.480 C161.797,34.421 161.542,15.806 161.542,15.806 L167.260,15.806 C167.260,15.806 167.260,29.85 167.260,37.136 C167.312,43.585 167.632,49.189 165.424,53.113 C162.102,59.17 155.960,61.644 150.333,61.803 ZM122.780,50.392 C122.712,57.370 117.474,61.731 110.403,61.660 C102.264,61.413 98.552,55.16 98.552,55.16 L102.536,51.71 C102.536,51.71 105.912,56.186 110.787,56.15 C115.662,55.844 117.310,54.325 117.346,50.670 C117.494,43.479 107.633,40.259 107.633,40.259 C107.633,40.259 98.201,37.40 98.88,28.278 C98.88,21.300 103.272,15.735 110.343,15.735 C118.732,15.458 122.660,20.343 122.660,20.343 L119.521,24.688 C119.521,24.688 115.613,20.969 110.14,21.383 C106.242,21.663 103.604,23.423 103.520,27.946 C103.436,32.469 111.681,36.366 114.464,37.571 C123.559,42.720 122.793,49.151 122.780,50.392 ZM83.910,9.419 C82.5,9.419 80.461,7.879 80.461,5.980 C80.461,4.81 82.5,2.541 83.910,2.541 C85.816,2.541 87.360,4.81 87.360,5.980 C87.360,7.879 85.816,9.419 83.910,9.419 ZM48.355,56.89 C54.901,56.89 60.622,53.895 64.752,46.798 L69.185,49.845 C69.185,49.845 62.832,61.559 48.521,61.559 C35.179,61.559 25.401,51.682 25.401,39.166 C25.401,25.904 35.422,15.709 49.343,15.709 C62.519,15.709 72.48,24.505 72.48,39.424 C72.48,39.590 72.48,39.673 72.48,39.838 L31.285,39.838 C32.31,49.785 39.157,56.89 48.355,56.89 ZM65.751,35.31 C63.596,25.85 57.795,21.97 48.514,21.97 C40.62,21.97 32.859,25.582 31.451,35.31 L65.751,35.31 ZM2.677,45.402 C2.571,42.728 2.677,2.529 2.677,2.529 L7.960,2.529 C7.960,2.529 8.105,40.353 7.960,42.644 C8.105,50.89 11.962,55.237 19.256,55.900 L19.256,60.976 C5.62,60.874 2.822,49.81 2.677,45.402 ZM86.650,61.462 L80.933,61.462 L80.933,15.806 L86.650,15.806 L86.650,61.462 Z"/>
    <path fill-rule="evenodd" fill="rgb(0, 0, 0)"
          d="M546.524,54.798 C547.810,56.289 549.624,57.35 551.964,57.35 C554.11,57.35 556.0,56.509 557.930,55.456 L559.597,59.492 C557.374,61.12 554.684,61.773 551.525,61.773 C547.898,61.773 545.3,60.735 542.839,58.658 C540.674,56.583 539.593,52.970 539.593,47.822 L539.593,19.482 L532.47,19.482 L532.47,15.183 L539.593,15.183 L539.593,2.549 L544.594,2.549 L544.594,15.183 L557.492,15.183 L557.492,19.482 L544.594,19.482 L544.594,47.208 C544.594,50.777 545.237,53.306 546.524,54.798 ZM523.185,33.609 C523.185,28.929 522.146,25.332 520.70,22.816 C517.994,20.302 515.113,19.44 511.428,19.44 C508.972,19.44 506.675,19.614 504.541,20.755 C502.405,21.895 500.680,23.606 499.364,25.887 C498.48,28.169 497.390,30.919 497.390,34.135 L497.390,60.896 L492.476,60.896 L492.476,15.271 L496.776,15.271 C496.951,20.68 497.68,22.992 497.127,24.45 C498.472,20.945 500.505,18.547 503.224,16.850 C505.945,15.154 509.29,14.306 512.481,14.306 C517.160,14.306 520.948,15.856 523.843,18.956 C526.739,22.57 528.186,26.501 528.186,32.292 L528.186,60.896 L523.185,60.896 L523.185,33.609 ZM477.385,59.141 C477.385,56.276 477.297,53.935 477.122,52.122 C475.776,55.223 473.729,57.605 470.980,59.272 C468.230,60.939 465.159,61.773 461.767,61.773 C457.146,61.773 453.388,60.224 450.493,57.123 C447.598,54.23 446.150,49.607 446.150,43.874 L446.150,15.183 L451.63,15.183 L451.63,42.558 C451.63,47.238 452.116,50.821 454.222,53.306 C456.328,55.793 459.193,57.35 462.820,57.35 C465.277,57.35 467.572,56.465 469.708,55.324 C471.843,54.183 473.568,52.459 474.885,50.147 C476.201,47.837 476.859,45.74 476.859,41.856 L476.859,15.183 L481.772,15.183 L481.772,60.896 L477.473,60.896 C477.473,60.136 477.443,59.551 477.385,59.141 ZM428.295,58.746 C425.106,60.764 421.640,61.773 417.898,61.773 C414.153,61.773 410.673,60.779 407.457,58.790 C404.239,56.802 401.679,53.994 399.779,50.367 C397.878,46.741 396.928,42.646 396.928,38.83 C396.928,33.521 397.878,29.427 399.779,25.800 C401.679,22.173 404.239,19.351 407.457,17.333 C410.673,15.315 414.153,14.306 417.898,14.306 C421.640,14.306 425.106,15.301 428.295,17.289 C431.482,19.278 434.42,22.86 435.972,25.712 C437.902,29.339 438.867,33.463 438.867,38.83 C438.867,42.646 437.902,46.726 435.972,50.323 C434.42,53.920 431.482,56.728 428.295,58.746 ZM431.497,28.37 C430.93,25.142 428.207,22.919 425.838,21.369 C423.469,19.820 420.822,19.44 417.898,19.44 C415.31,19.44 412.384,19.820 409.957,21.369 C407.529,22.919 405.614,25.142 404.210,28.37 C402.806,30.932 402.104,34.282 402.104,38.83 C402.104,41.886 402.806,45.220 404.210,48.86 C405.614,50.952 407.529,53.161 409.957,54.710 C412.384,56.260 415.31,57.35 417.898,57.35 C420.822,57.35 423.469,56.260 425.838,54.710 C428.207,53.161 430.93,50.952 431.497,48.86 C432.901,45.220 433.603,41.886 433.603,38.83 C433.603,34.282 432.901,30.932 431.497,28.37 ZM371.264,54.710 C373.633,56.260 376.338,57.35 379.380,57.35 C384.702,57.35 388.562,54.754 390.961,50.191 L394.910,52.473 C393.447,55.574 391.356,57.899 388.636,59.448 C385.916,60.997 382.859,61.773 379.467,61.773 C375.548,61.773 371.994,60.779 368.807,58.790 C365.618,56.802 363.104,54.8 361.262,50.411 C359.419,46.813 358.498,42.676 358.498,37.995 C358.498,33.316 359.419,29.178 361.262,25.580 C363.104,21.983 365.618,19.205 368.807,17.245 C371.994,15.286 375.548,14.306 379.467,14.306 C382.859,14.306 385.930,15.82 388.680,16.631 C391.429,18.181 393.506,20.506 394.910,23.606 L390.961,25.887 C388.562,21.325 384.702,19.44 379.380,19.44 C376.338,19.44 373.633,19.805 371.264,21.325 C368.895,22.847 367.37,25.40 365.692,27.905 C364.346,30.772 363.674,34.135 363.674,37.995 C363.674,41.856 364.346,45.220 365.692,48.86 C367.37,50.952 368.895,53.161 371.264,54.710 ZM332.834,54.710 C335.203,56.260 337.908,57.35 340.950,57.35 C346.272,57.35 350.132,54.754 352.531,50.191 L356.480,52.473 C355.17,55.574 352.926,57.899 350.206,59.448 C347.486,60.997 344.429,61.773 341.38,61.773 C337.118,61.773 333.565,60.779 330.377,58.790 C327.188,56.802 324.674,54.8 322.831,50.411 C320.989,46.813 320.68,42.676 320.68,37.995 C320.68,33.316 320.989,29.178 322.831,25.580 C324.674,21.983 327.188,19.205 330.377,17.245 C333.565,15.286 337.118,14.306 341.38,14.306 C344.429,14.306 347.500,15.82 350.250,16.631 C352.999,18.181 355.76,20.506 356.480,23.606 L352.531,25.887 C350.132,21.325 346.272,19.44 340.950,19.44 C337.908,19.44 335.203,19.805 332.834,21.325 C330.465,22.847 328.607,25.40 327.262,27.905 C325.916,30.772 325.244,34.135 325.244,37.995 C325.244,41.856 325.916,45.220 327.262,48.86 C328.607,50.952 330.465,53.161 332.834,54.710 ZM308.398,53.789 C307.52,56.304 305.108,58.263 302.564,59.667 C300.19,61.71 297.80,61.773 293.746,61.773 C290.820,61.773 288.130,61.231 285.673,60.150 C283.217,59.68 281.243,57.489 279.751,55.412 C278.260,53.336 277.514,50.836 277.514,47.910 C277.514,43.465 279.326,39.970 282.954,37.425 C286.580,34.881 291.289,33.609 297.80,33.609 C300.471,33.609 304.99,34.106 307.959,35.100 L307.959,32.643 C307.959,27.964 306.920,24.499 304.845,22.246 C302.768,19.995 299.887,18.868 296.202,18.868 C293.277,18.868 290.763,19.512 288.657,20.798 C286.551,22.86 284.884,23.928 283.656,26.326 L279.795,24.133 C281.81,21.149 283.231,18.767 286.244,16.982 C289.256,15.198 292.663,14.306 296.466,14.306 C301.261,14.306 305.209,15.784 308.310,18.737 C311.410,21.691 312.961,26.34 312.961,31.766 L312.961,60.896 L308.574,60.896 C308.574,59.83 308.515,56.714 308.398,53.789 ZM307.959,39.312 C303.981,38.259 300.355,37.732 297.80,37.732 C292.693,37.732 289.197,38.610 286.595,40.364 C283.991,42.119 282.691,44.606 282.691,47.822 C282.691,50.864 283.787,53.233 285.981,54.929 C288.174,56.627 290.879,57.474 294.97,57.474 C297.957,57.474 301.232,56.333 303.923,54.52 C306.613,51.771 307.959,48.642 307.959,44.664 L307.959,39.312 Z"/>
</svg>